<svg version="1.1" viewBox="0.0 0.0 1317.706036745407 723.7401574803149" fill="none" stroke="none" stroke-linecap="square" stroke-miterlimit="10" xmlns:xlink="http://www.w3.org/1999/xlink" xmlns="http://www.w3.org/2000/svg"><clipPath id="p.0"><path d="m0 0l1317.706 0l0 723.7402l-1317.706 0l0 -723.7402z" clip-rule="nonzero"/></clipPath><g clip-path="url(#p.0)"><path fill="#000000" fill-opacity="0.0" d="m0 0l1317.706 0l0 723.7402l-1317.706 0z" fill-rule="evenodd"/><path fill="#f3f3f3" d="m10.186352 27.898779l0 0c0 -10.726696 8.695705 -19.422401 19.422401 -19.422401l806.5095 0c5.151123 0 10.091309 2.0462828 13.733704 5.68869c3.642395 3.6424065 5.6887207 8.582569 5.6887207 13.733711l0 665.3757c0 10.726685 -8.69574 19.422363 -19.422424 19.422363l-806.5095 0c-10.726696 0 -19.422401 -8.695679 -19.422401 -19.422363z" fill-rule="evenodd"/><path fill="#d9d2e9" d="m269.72385 53.523323l0 0c0 -7.3900375 5.990814 -13.380844 13.380829 -13.380844l175.12808 0c3.5488281 0 6.952301 1.4097633 9.4617 3.919159c2.5093994 2.5093956 3.919159 5.9128647 3.919159 9.461685l0 53.521774c0 7.3900375 -5.990814 13.380844 -13.380859 13.380844l-175.12808 0l0 0c-7.3900146 0 -13.380829 -5.9908066 -13.380829 -13.380844z" fill-rule="evenodd"/><path stroke="#ffffff" stroke-width="1.0" stroke-linejoin="round" stroke-linecap="butt" d="m269.72385 53.523323l0 0c0 -7.3900375 5.990814 -13.380844 13.380829 -13.380844l175.12808 0c3.5488281 0 6.952301 1.4097633 9.4617 3.919159c2.5093994 2.5093956 3.919159 5.9128647 3.919159 9.461685l0 53.521774c0 7.3900375 -5.990814 13.380844 -13.380859 13.380844l-175.12808 0l0 0c-7.3900146 0 -13.380829 -5.9908066 -13.380829 -13.380844z" fill-rule="evenodd"/><path fill="#d9d2e9" d="m279.64276 63.44224l0 0c0 -7.3900375 5.990814 -13.380844 13.380859 -13.380844l175.12805 0c3.5488281 0 6.952301 1.4097633 9.4617 3.919159c2.5093994 2.5093956 3.919159 5.9128647 3.919159 9.461685l0 53.52177c0 7.3900375 -5.990814 13.380852 -13.380859 13.380852l-175.12805 0l0 0c-7.390045 0 -13.380859 -5.990814 -13.380859 -13.380852z" fill-rule="evenodd"/><path stroke="#ffffff" stroke-width="1.0" stroke-linejoin="round" stroke-linecap="butt" d="m279.64276 63.44224l0 0c0 -7.3900375 5.990814 -13.380844 13.380859 -13.380844l175.12805 0c3.5488281 0 6.952301 1.4097633 9.4617 3.919159c2.5093994 2.5093956 3.919159 5.9128647 3.919159 9.461685l0 53.52177c0 7.3900375 -5.990814 13.380852 -13.380859 13.380852l-175.12805 0l0 0c-7.390045 0 -13.380859 -5.990814 -13.380859 -13.380852z" fill-rule="evenodd"/><path fill="#d9d2e9" d="m289.56168 73.36116l0 0c0 -7.3900375 5.990814 -13.380844 13.380859 -13.380844l175.12805 0c3.5488281 0 6.952301 1.4097633 9.4617 3.919159c2.5093994 2.5093918 3.919159 5.9128647 3.919159 9.461685l0 53.521774c0 7.39003 -5.990814 13.380844 -13.380859 13.380844l-175.12805 0l0 0c-7.390045 0 -13.380859 -5.990814 -13.380859 -13.380844z" fill-rule="evenodd"/><path stroke="#ffffff" stroke-width="1.0" stroke-linejoin="round" stroke-linecap="butt" d="m289.56168 73.36116l0 0c0 -7.3900375 5.990814 -13.380844 13.380859 -13.380844l175.12805 0c3.5488281 0 6.952301 1.4097633 9.4617 3.919159c2.5093994 2.5093918 3.919159 5.9128647 3.919159 9.461685l0 53.521774c0 7.39003 -5.990814 13.380844 -13.380859 13.380844l-175.12805 0l0 0c-7.390045 0 -13.380859 -5.990814 -13.380859 -13.380844z" fill-rule="evenodd"/><path fill="#000000" d="m352.10333 103.948296l-5.125 0l-1.078125 3.09375l-2.40625 0l5.015625 -13.265625l2.0625 0l5.03125 13.265625l-2.40625 0l-1.09375 -3.09375zm-4.484375 -1.859375l3.84375 0l-1.921875 -5.5l-1.921875 5.5zm17.463104 0.125q0 2.28125 -1.046875 3.65625q-1.03125 1.359375 -2.78125 1.359375q-1.625 0 -2.59375 -1.078125l0 4.6875l-2.21875 0l0 -13.65625l2.046875 0l0.09375 1.0q0.96875 -1.171875 2.640625 -1.171875q1.8125 0 2.828125 1.34375q1.03125 1.34375 1.03125 3.71875l0 0.140625zm-2.203125 -0.1875q0 -1.484375 -0.59375 -2.34375q-0.578125 -0.859375 -1.671875 -0.859375q-1.359375 0 -1.953125 1.109375l0 4.375q0.59375 1.15625 1.96875 1.15625q1.0625 0 1.65625 -0.84375q0.59375 -0.859375 0.59375 -2.59375zm12.70639 0.1875q0 2.28125 -1.046875 3.65625q-1.03125 1.359375 -2.78125 1.359375q-1.625 0 -2.59375 -1.078125l0 4.6875l-2.21875 0l0 -13.65625l2.046875 0l0.09375 1.0q0.96875 -1.171875 2.640625 -1.171875q1.8125 0 2.828125 1.34375q1.03125 1.34375 1.03125 3.71875l0 0.140625zm-2.203125 -0.1875q0 -1.484375 -0.59375 -2.34375q-0.578125 -0.859375 -1.671875 -0.859375q-1.359375 0 -1.953125 1.109375l0 4.375q0.59375 1.15625 1.96875 1.15625q1.0625 0 1.65625 -0.84375q0.59375 -0.859375 0.59375 -2.59375zm6.42511 5.015625l-2.203125 0l0 -14.0l2.203125 0l0 14.0zm4.764282 0l-2.203125 0l0 -9.859375l2.203125 0l0 9.859375zm-2.34375 -12.421875q0 -0.5 0.3125 -0.828125q0.328125 -0.34375 0.921875 -0.34375q0.609375 0 0.9375 0.34375q0.328125 0.328125 0.328125 0.828125q0 0.5 -0.328125 0.84375q-0.328125 0.328125 -0.9375 0.328125q-0.59375 0 -0.921875 -0.328125q-0.3125 -0.34375 -0.3125 -0.84375zm8.811127 10.84375q0.828125 0 1.375 -0.484375q0.546875 -0.484375 0.578125 -1.203125l2.09375 0q-0.046875 0.921875 -0.59375 1.71875q-0.53125 0.796875 -1.453125 1.265625q-0.90625 0.46875 -1.984375 0.46875q-2.0625 0 -3.28125 -1.34375q-1.203125 -1.34375 -1.203125 -3.703125l0 -0.21875q0 -2.25 1.203125 -3.59375q1.203125 -1.359375 3.28125 -1.359375q1.75 0 2.859375 1.03125q1.109375 1.015625 1.171875 2.671875l-2.09375 0q-0.03125 -0.84375 -0.578125 -1.390625q-0.546875 -0.546875 -1.375 -0.546875q-1.078125 0 -1.671875 0.78125q-0.578125 0.78125 -0.578125 2.359375l0 0.359375q0 1.609375 0.578125 2.40625q0.578125 0.78125 1.671875 0.78125zm11.593506 1.578125q-0.140625 -0.28125 -0.25 -0.921875q-1.046875 1.109375 -2.578125 1.109375q-1.484375 0 -2.4375 -0.84375q-0.9375 -0.859375 -0.9375 -2.109375q0 -1.578125 1.171875 -2.40625q1.171875 -0.84375 3.359375 -0.84375l1.359375 0l0 -0.65625q0 -0.765625 -0.4375 -1.21875q-0.421875 -0.46875 -1.296875 -0.46875q-0.765625 0 -1.25 0.390625q-0.46875 0.375 -0.46875 0.953125l-2.21875 0q0 -0.8125 0.53125 -1.515625q0.546875 -0.703125 1.46875 -1.09375q0.921875 -0.40625 2.0625 -0.40625q1.734375 0 2.75 0.875q1.03125 0.859375 1.0625 2.4375l0 4.4375q0 1.328125 0.375 2.125l0 0.15625l-2.265625 0zm-2.421875 -1.59375q0.65625 0 1.234375 -0.3125q0.578125 -0.328125 0.875 -0.859375l0 -1.859375l-1.203125 0q-1.234375 0 -1.859375 0.4375q-0.609375 0.421875 -0.609375 1.203125q0 0.640625 0.421875 1.015625q0.421875 0.375 1.140625 0.375zm9.405823 -10.65625l0 2.390625l1.734375 0l0 1.640625l-1.734375 0l0 5.5q0 0.5625 0.21875 0.8125q0.234375 0.25 0.796875 0.25q0.390625 0 0.78125 -0.078125l0 1.703125q-0.75 0.21875 -1.453125 0.21875q-2.5625 0 -2.5625 -2.8125l0 -5.59375l-1.609375 0l0 -1.640625l1.609375 0l0 -2.390625l2.21875 0zm5.781708 12.25l-2.203125 0l0 -9.859375l2.203125 0l0 9.859375zm-2.34375 -12.421875q0 -0.5 0.3125 -0.828125q0.328125 -0.34375 0.921875 -0.34375q0.609375 0 0.9375 0.34375q0.328125 0.328125 0.328125 0.828125q0 0.5 -0.328125 0.84375q-0.328125 0.328125 -0.9375 0.328125q-0.59375 0 -0.921875 -0.328125q-0.3125 -0.34375 -0.3125 -0.84375zm4.3423767 7.40625q0 -1.453125 0.578125 -2.609375q0.578125 -1.171875 1.609375 -1.78125q1.03125 -0.625 2.3906555 -0.625q1.984375 0 3.234375 1.28125q1.25 1.28125 1.34375 3.40625l0.015625 0.515625q0 1.453125 -0.5625 2.609375q-0.5625 1.140625 -1.609375 1.78125q-1.046875 0.625 -2.40625 0.625q-2.0937805 0 -3.3437805 -1.390625q-1.25 -1.390625 -1.25 -3.703125l0 -0.109375zm2.21875 0.1875q0 1.515625 0.625 2.390625q0.625 0.859375 1.7500305 0.859375q1.125 0 1.734375 -0.875q0.625 -0.875 0.625 -2.5625q0 -1.5 -0.640625 -2.375q-0.640625 -0.875 -1.734375 -0.875q-1.0937805 0 -1.7344055 0.859375q-0.625 0.859375 -0.625 2.578125zm10.871704 -5.03125l0.0625 1.140625q1.09375 -1.3125 2.875 -1.3125q3.078125 0 3.125 3.515625l0 6.515625l-2.203125 0l0 -6.390625q0 -0.9375 -0.40625 -1.375q-0.40625 -0.453125 -1.328125 -0.453125q-1.34375 0 -2.0 1.203125l0 7.015625l-2.203125 0l0 -9.859375l2.078125 0z" fill-rule="nonzero"/><path fill="#c9daf8" d="m271.42258 267.5866l0 0c0 -22.169662 17.972046 -40.141724 40.141724 -40.141724l154.04724 0l0 0c10.646271 0 20.856476 4.2292023 28.384491 11.757233c7.5280457 7.5280457 11.757263 17.73825 11.757263 28.384491l0 0l0 0c0 22.169678 -17.972076 40.141724 -40.141754 40.141724l-154.04724 0c-22.169678 0 -40.141724 -17.972046 -40.141724 -40.141724z" fill-rule="evenodd"/><path fill="#000000" d="m363.53113 271.616l3.375 -10.375l2.53125 0l-4.765625 13.265625l-2.234375 0l-4.765625 -13.265625l2.53125 0l3.328125 10.375zm16.991943 -8.515625l-4.140625 0l0 11.40625l-2.28125 0l0 -11.40625l-4.109375 0l0 -1.859375l10.53125 0l0 1.859375zm11.646027 9.6875q-0.71875 0.9375 -2.0 1.421875q-1.265625 0.484375 -2.890625 0.484375q-1.671875 0 -2.953125 -0.75q-1.28125 -0.765625 -1.984375 -2.171875q-0.6875 -1.40625 -0.71875 -3.28125l0 -1.046875q0 -3.0 1.4375 -4.6875q1.4375 -1.703125 4.015625 -1.703125q2.21875 0 3.515625 1.09375q1.296875 1.09375 1.5625 3.15625l-2.25 0q-0.390625 -2.390625 -2.78125 -2.390625q-1.546875 0 -2.359375 1.125q-0.796875 1.109375 -0.828125 3.265625l0 1.015625q0 2.15625 0.90625 3.34375q0.90625 1.1875 2.515625 1.1875q1.765625 0 2.515625 -0.796875l0 -2.609375l-2.734375 0l0 -1.75l5.03125 0l0 5.09375zm8.198639 1.71875q-0.140625 -0.28125 -0.25 -0.921875q-1.046875 1.109375 -2.578125 1.109375q-1.484375 0 -2.4375 -0.84375q-0.9375 -0.859375 -0.9375 -2.109375q0 -1.578125 1.171875 -2.40625q1.171875 -0.84375 3.359375 -0.84375l1.359375 0l0 -0.65625q0 -0.765625 -0.4375 -1.21875q-0.421875 -0.46875 -1.296875 -0.46875q-0.765625 0 -1.25 0.390625q-0.46875 0.375 -0.46875 0.953125l-2.21875 0q0 -0.8125 0.53125 -1.515625q0.546875 -0.703125 1.46875 -1.09375q0.921875 -0.40625 2.0625 -0.40625q1.734375 0 2.75 0.875q1.03125 0.859375 1.0625 2.4375l0 4.4375q0 1.328125 0.375 2.125l0 0.15625l-2.265625 0zm-2.421875 -1.59375q0.65625 0 1.234375 -0.3125q0.578125 -0.328125 0.875 -0.859375l0 -1.859375l-1.203125 0q-1.234375 0 -1.859375 0.4375q-0.609375 0.421875 -0.609375 1.203125q0 0.640625 0.421875 1.015625q0.421875 0.375 1.140625 0.375zm9.405823 -10.65625l0 2.390625l1.734375 0l0 1.640625l-1.734375 0l0 5.5q0 0.5625 0.21875 0.8125q0.234375 0.25 0.796875 0.25q0.390625 0 0.78125 -0.078125l0 1.703125q-0.75 0.21875 -1.453125 0.21875q-2.5625 0 -2.5625 -2.8125l0 -5.59375l-1.609375 0l0 -1.640625l1.609375 0l0 -2.390625l2.21875 0zm7.766083 12.4375q-2.09375 0 -3.40625 -1.328125q-1.3125 -1.328125 -1.3125 -3.53125l0 -0.28125q0 -1.46875 0.5625 -2.625q0.578125 -1.171875 1.609375 -1.8125q1.03125 -0.640625 2.296875 -0.640625q2.015625 0 3.109375 1.28125q1.09375 1.28125 1.09375 3.625l0 0.890625l-6.4375 0q0.109375 1.234375 0.8125 1.953125q0.71875 0.703125 1.8125 0.703125q1.515625 0 2.46875 -1.234375l1.203125 1.140625q-0.59375 0.875 -1.59375 1.375q-0.984375 0.484375 -2.21875 0.484375zm-0.265625 -8.453125q-0.90625 0 -1.46875 0.640625q-0.5625 0.640625 -0.703125 1.78125l4.203125 0l0 -0.171875q-0.0625 -1.109375 -0.59375 -1.671875q-0.515625 -0.578125 -1.4375 -0.578125z" fill-rule="nonzero"/><path fill="#ea9999" d="m598.6352 224.20691l0 0c0 -11.978973 50.36792 -21.68985 112.5 -21.68985c62.13202 0 112.5 9.710876 112.5 21.68985l0 86.7594c0 11.978973 -50.36798 21.68985 -112.5 21.68985c-62.13208 0 -112.5 -9.710876 -112.5 -21.68985z" fill-rule="evenodd"/><path fill="#000000" fill-opacity="0.0" d="m823.6352 224.20691l0 0c0 11.978973 -50.36798 21.68985 -112.5 21.68985c-62.13208 0 -112.5 -9.710876 -112.5 -21.68985" fill-rule="evenodd"/><path fill="#000000" fill-opacity="0.0" d="m598.6352 224.20691l0 0c0 -11.978973 50.36792 -21.68985 112.5 -21.68985c62.13202 0 112.5 9.710876 112.5 21.68985l0 86.7594c0 11.978973 -50.36798 21.68985 -112.5 21.68985c-62.13208 0 -112.5 -9.710876 -112.5 -21.68985z" fill-rule="evenodd"/><path stroke="#ffffff" stroke-width="1.0" stroke-linejoin="round" stroke-linecap="butt" d="m823.6352 224.20691l0 0c0 11.978973 -50.36798 21.68985 -112.5 21.68985c-62.13208 0 -112.5 -9.710876 -112.5 -21.68985" fill-rule="evenodd"/><path stroke="#ffffff" stroke-width="1.0" stroke-linejoin="round" stroke-linecap="butt" d="m598.6352 224.20691l0 0c0 -11.978973 50.36792 -21.68985 112.5 -21.68985c62.13202 0 112.5 9.710876 112.5 21.68985l0 86.7594c0 11.978973 -50.36798 21.68985 -112.5 21.68985c-62.13208 0 -112.5 -9.710876 -112.5 -21.68985z" fill-rule="evenodd"/><path fill="#000000" d="m683.9636 262.94528l-4.140625 0l0 11.40625l-2.28125 0l0 -11.40625l-4.109375 0l0 -1.859375l10.53125 0l0 1.859375zm-0.7915039 6.390625q0 -1.453125 0.578125 -2.609375q0.578125 -1.171875 1.609375 -1.78125q1.03125 -0.625 2.390625 -0.625q1.984375 0 3.234375 1.28125q1.25 1.28125 1.34375 3.40625l0.015625 0.515625q0 1.453125 -0.5625 2.609375q-0.5625 1.140625 -1.609375 1.78125q-1.046875 0.625 -2.40625 0.625q-2.09375 0 -3.34375 -1.390625q-1.25 -1.390625 -1.25 -3.703125l0 -0.109375zm2.21875 0.1875q0 1.515625 0.625 2.390625q0.625 0.859375 1.75 0.859375q1.125 0 1.734375 -0.875q0.625 -0.875 0.625 -2.5625q0 -1.5 -0.640625 -2.375q-0.640625 -0.875 -1.734375 -0.875q-1.09375 0 -1.734375 0.859375q-0.625 0.859375 -0.625 2.578125zm17.44983 0q0 2.28125 -1.046875 3.65625q-1.03125 1.359375 -2.78125 1.359375q-1.625 0 -2.59375 -1.078125l0 4.6875l-2.21875 0l0 -13.65625l2.046875 0l0.09375 1.0q0.96875 -1.171875 2.640625 -1.171875q1.8125 0 2.828125 1.34375q1.03125 1.34375 1.03125 3.71875l0 0.140625zm-2.203125 -0.1875q0 -1.484375 -0.59375 -2.34375q-0.578125 -0.859375 -1.671875 -0.859375q-1.359375 0 -1.953125 1.109375l0 4.375q0.59375 1.15625 1.96875 1.15625q1.0625 0 1.65625 -0.84375q0.59375 -0.859375 0.59375 -2.59375zm3.6594849 0q0 -1.453125 0.578125 -2.609375q0.578125 -1.171875 1.609375 -1.78125q1.03125 -0.625 2.390625 -0.625q1.984375 0 3.234375 1.28125q1.25 1.28125 1.34375 3.40625l0.015625 0.515625q0 1.453125 -0.5625 2.609375q-0.5625 1.140625 -1.609375 1.78125q-1.046875 0.625 -2.40625 0.625q-2.09375 0 -3.34375 -1.390625q-1.25 -1.390625 -1.25 -3.703125l0 -0.109375zm2.21875 0.1875q0 1.515625 0.625 2.390625q0.625 0.859375 1.75 0.859375q1.125 0 1.734375 -0.875q0.625 -0.875 0.625 -2.5625q0 -1.5 -0.640625 -2.375q-0.640625 -0.875 -1.734375 -0.875q-1.09375 0 -1.734375 0.859375q-0.625 0.859375 -0.625 2.578125zm11.168579 4.828125l-2.203125 0l0 -14.0l2.203125 0l0 14.0zm1.9985962 -5.015625q0 -1.453125 0.578125 -2.609375q0.578125 -1.171875 1.609375 -1.78125q1.03125 -0.625 2.390625 -0.625q1.984375 0 3.234375 1.28125q1.25 1.28125 1.34375 3.40625l0.015625 0.515625q0 1.453125 -0.5625 2.609375q-0.5625 1.140625 -1.609375 1.78125q-1.046875 0.625 -2.40625 0.625q-2.09375 0 -3.34375 -1.390625q-1.25 -1.390625 -1.25 -3.703125l0 -0.109375zm2.21875 0.1875q0 1.515625 0.625 2.390625q0.625 0.859375 1.75 0.859375q1.125 0 1.734375 -0.875q0.625 -0.875 0.625 -2.5625q0 -1.5 -0.640625 -2.375q-0.640625 -0.875 -1.734375 -0.875q-1.09375 0 -1.734375 0.859375q-0.625 0.859375 -0.625 2.578125zm8.434204 -0.171875q0 -2.296875 1.078125 -3.65625q1.078125 -1.375 2.859375 -1.375q1.6875 0 2.65625 1.171875l0.09375 -1.0l2.0 0l0 9.5625q0 1.9375 -1.21875 3.046875q-1.203125 1.125 -3.25 1.125q-1.078125 0 -2.109375 -0.453125q-1.03125 -0.4375 -1.578125 -1.171875l1.046875 -1.328125q1.03125 1.203125 2.515625 1.203125q1.109375 0 1.734375 -0.59375q0.640625 -0.59375 0.640625 -1.75l0 -0.671875q-0.953125 1.078125 -2.546875 1.078125q-1.734375 0 -2.828125 -1.375q-1.09375 -1.375 -1.09375 -3.8125zm2.203125 0.1875q0 1.484375 0.59375 2.34375q0.609375 0.84375 1.6875 0.84375q1.34375 0 1.984375 -1.140625l0 -4.34375q-0.625 -1.109375 -1.96875 -1.109375q-1.09375 0 -1.703125 0.859375q-0.59375 0.859375 -0.59375 2.546875zm12.201111 1.640625l2.015625 -6.6875l2.359375 0l-3.921875 11.359375q-0.90625 2.484375 -3.0625 2.484375q-0.484375 0 -1.0625 -0.171875l0 -1.703125l0.421875 0.015625q0.828125 0 1.25 -0.3125q0.421875 -0.296875 0.671875 -1.015625l0.328125 -0.84375l-3.46875 -9.8125l2.390625 0l2.078125 6.6875z" fill-rule="nonzero"/><path fill="#000000" d="m644.15906 290.99216q0 -1.984375 0.5 -3.859375q0.515625 -1.875 1.5 -3.421875q0.984375 -1.546875 2.109375 -2.21875l0.265625 0.734375q-0.59375 0.421875 -1.1875 1.25q-0.59375 0.8125 -1.0625 1.953125q-0.46875 1.125 -0.75 2.53125q-0.28125 1.40625 -0.28125 3.1875q0 1.90625 0.421875 3.671875q0.4375 1.75 1.1875 3.09375q0.765625 1.34375 1.671875 2.015625l-0.265625 0.703125q-1.15625 -0.6875 -2.140625 -2.234375q-0.984375 -1.546875 -1.484375 -3.390625q-0.484375 -1.859375 -0.484375 -4.015625zm7.0734863 -4.5l0.046875 1.609375q0.546875 -0.890625 1.359375 -1.328125q0.828125 -0.453125 1.828125 -0.453125q2.328125 0 2.953125 1.90625q0.53125 -0.921875 1.40625 -1.40625q0.890625 -0.5 1.953125 -0.5q3.171875 0 3.234375 3.453125l0 6.578125l-1.09375 0l0 -6.5q0 -1.3125 -0.5625 -1.953125q-0.5625 -0.640625 -1.828125 -0.640625q-1.171875 0.015625 -1.984375 0.765625q-0.8125 0.734375 -0.90625 1.8125l0 6.515625l-1.09375 0l0 -6.578125q0 -1.265625 -0.59375 -1.890625q-0.578125 -0.625 -1.8125 -0.625q-1.015625 0 -1.765625 0.59375q-0.734375 0.578125 -1.09375 1.734375l0 6.765625l-1.09375 0l0 -9.859375l1.046875 0zm19.361877 10.046875q-1.25 0 -2.265625 -0.625q-1.015625 -0.625 -1.59375 -1.71875q-0.5625 -1.109375 -0.5625 -2.484375l0 -0.390625q0 -1.421875 0.546875 -2.5625q0.5625 -1.140625 1.546875 -1.78125q0.984375 -0.65625 2.125 -0.65625q1.796875 0 2.84375 1.21875q1.0625 1.21875 1.0625 3.34375l0 0.609375l-7.03125 0l0 0.21875q0 1.671875 0.953125 2.796875q0.96875 1.109375 2.421875 1.109375q0.875 0 1.546875 -0.3125q0.671875 -0.328125 1.21875 -1.03125l0.6875 0.515625q-1.203125 1.75 -3.5 1.75zm-0.203125 -9.296875q-1.21875 0 -2.0625 0.90625q-0.84375 0.890625 -1.03125 2.421875l5.921875 0l0 -0.125q-0.046875 -1.421875 -0.8125 -2.3125q-0.765625 -0.890625 -2.015625 -0.890625zm7.7160034 -3.265625l0 2.515625l2.046875 0l0 0.890625l-2.046875 0l0 6.578125q0 0.8125 0.296875 1.21875q0.296875 0.390625 1.0 0.390625q0.265625 0 0.875 -0.078125l0.046875 0.890625q-0.421875 0.15625 -1.171875 0.15625q-1.109375 0 -1.625 -0.65625q-0.515625 -0.65625 -0.515625 -1.921875l0 -6.578125l-1.8125 0l0 -0.890625l1.8125 0l0 -2.515625l1.09375 0zm10.525269 12.375q-0.15625 -0.46875 -0.203125 -1.375q-0.578125 0.75 -1.46875 1.15625q-0.890625 0.40625 -1.875 0.40625q-1.421875 0 -2.3125 -0.796875q-0.875 -0.796875 -0.875 -2.0q0 -1.4375 1.203125 -2.28125q1.203125 -0.84375 3.34375 -0.84375l1.96875 0l0 -1.109375q0 -1.0625 -0.65625 -1.671875q-0.640625 -0.609375 -1.890625 -0.609375q-1.140625 0 -1.890625 0.59375q-0.75 0.578125 -0.75 1.40625l-1.09375 -0.015625q0 -1.171875 1.09375 -2.03125q1.09375 -0.859375 2.6875 -0.859375q1.65625 0 2.609375 0.828125q0.953125 0.8125 0.984375 2.28125l0 4.671875q0 1.4375 0.296875 2.140625l0 0.109375l-1.171875 0zm-3.421875 -0.78125q1.09375 0 1.953125 -0.53125q0.859375 -0.53125 1.25 -1.40625l0 -2.171875l-1.953125 0q-1.625 0.015625 -2.546875 0.59375q-0.921875 0.578125 -0.921875 1.59375q0 0.828125 0.609375 1.375q0.625 0.546875 1.609375 0.546875zm6.758728 -4.234375q0 -2.296875 1.015625 -3.65625q1.03125 -1.359375 2.796875 -1.359375q1.984375 0 3.03125 1.5625l0 -5.53125l1.09375 0l0 14.0l-1.03125 0l-0.03125 -1.3125q-1.046875 1.5 -3.09375 1.5q-1.703125 0 -2.75 -1.375q-1.03125 -1.375 -1.03125 -3.703125l0 -0.125zm1.109375 0.1875q0 1.890625 0.75 2.984375q0.75 1.078125 2.125 1.078125q2.015625 0 2.859375 -1.78125l0 -4.625q-0.84375 -1.921875 -2.84375 -1.921875q-1.375 0 -2.140625 1.078125q-0.75 1.078125 -0.75 3.1875zm15.913513 4.828125q-0.15625 -0.46875 -0.203125 -1.375q-0.578125 0.75 -1.46875 1.15625q-0.890625 0.40625 -1.875 0.40625q-1.421875 0 -2.3125 -0.796875q-0.875 -0.796875 -0.875 -2.0q0 -1.4375 1.203125 -2.28125q1.203125 -0.84375 3.34375 -0.84375l1.96875 0l0 -1.109375q0 -1.0625 -0.65625 -1.671875q-0.640625 -0.609375 -1.890625 -0.609375q-1.140625 0 -1.890625 0.59375q-0.75 0.578125 -0.75 1.40625l-1.09375 -0.015625q0 -1.171875 1.09375 -2.03125q1.09375 -0.859375 2.6875 -0.859375q1.65625 0 2.609375 0.828125q0.953125 0.8125 0.984375 2.28125l0 4.671875q0 1.4375 0.296875 2.140625l0 0.109375l-1.171875 0zm-3.421875 -0.78125q1.09375 0 1.953125 -0.53125q0.859375 -0.53125 1.25 -1.40625l0 -2.171875l-1.953125 0q-1.625 0.015625 -2.546875 0.59375q-0.921875 0.578125 -0.921875 1.59375q0 0.828125 0.609375 1.375q0.625 0.546875 1.609375 0.546875zm8.883728 -11.59375l0 2.515625l2.046875 0l0 0.890625l-2.046875 0l0 6.578125q0 0.8125 0.296875 1.21875q0.296875 0.390625 1.0 0.390625q0.265625 0 0.875 -0.078125l0.046875 0.890625q-0.421875 0.15625 -1.171875 0.15625q-1.109375 0 -1.625 -0.65625q-0.515625 -0.65625 -0.515625 -1.921875l0 -6.578125l-1.8125 0l0 -0.890625l1.8125 0l0 -2.515625l1.09375 0zm10.52533 12.375q-0.15625 -0.46875 -0.203125 -1.375q-0.578125 0.75 -1.46875 1.15625q-0.890625 0.40625 -1.875 0.40625q-1.421875 0 -2.3125 -0.796875q-0.875 -0.796875 -0.875 -2.0q0 -1.4375 1.203125 -2.28125q1.203125 -0.84375 3.34375 -0.84375l1.96875 0l0 -1.109375q0 -1.0625 -0.65625 -1.671875q-0.640625 -0.609375 -1.890625 -0.609375q-1.140625 0 -1.890625 0.59375q-0.75 0.578125 -0.75 1.40625l-1.09375 -0.015625q0 -1.171875 1.09375 -2.03125q1.09375 -0.859375 2.6875 -0.859375q1.65625 0 2.609375 0.828125q0.953125 0.8125 0.984375 2.28125l0 4.671875q0 1.4375 0.296875 2.140625l0 0.109375l-1.171875 0zm-3.421875 -0.78125q1.09375 0 1.953125 -0.53125q0.859375 -0.53125 1.25 -1.40625l0 -2.171875l-1.953125 0q-1.625 0.015625 -2.546875 0.59375q-0.921875 0.578125 -0.921875 1.59375q0 0.828125 0.609375 1.375q0.625 0.546875 1.609375 0.546875zm17.638977 -1.71875q0 -0.8125 -0.65625 -1.296875q-0.65625 -0.5 -1.96875 -0.78125q-1.3125 -0.28125 -2.03125 -0.640625q-0.71875 -0.359375 -1.078125 -0.875q-0.34375 -0.515625 -0.34375 -1.25q0 -1.171875 0.96875 -1.921875q0.984375 -0.765625 2.5 -0.765625q1.65625 0 2.640625 0.8125q1.0 0.8125 1.0 2.125l-1.09375 0q0 -0.875 -0.71875 -1.4375q-0.71875 -0.578125 -1.828125 -0.578125q-1.078125 0 -1.734375 0.484375q-0.640625 0.46875 -0.640625 1.234375q0 0.734375 0.53125 1.140625q0.546875 0.40625 1.984375 0.75q1.4375 0.328125 2.140625 0.71875q0.71875 0.375 1.0625 0.921875q0.359375 0.53125 0.359375 1.296875q0 1.25 -1.015625 2.0q-1.0 0.75 -2.625 0.75q-1.71875 0 -2.796875 -0.828125q-1.0625 -0.84375 -1.0625 -2.125l1.09375 0q0.0625 0.96875 0.796875 1.5q0.75 0.53125 1.96875 0.53125q1.140625 0 1.84375 -0.5q0.703125 -0.5 0.703125 -1.265625zm5.227844 -9.875l0 2.515625l2.046875 0l0 0.890625l-2.046875 0l0 6.578125q0 0.8125 0.296875 1.21875q0.296875 0.390625 1.0 0.390625q0.265625 0 0.875 -0.078125l0.046875 0.890625q-0.421875 0.15625 -1.171875 0.15625q-1.109375 0 -1.625 -0.65625q-0.515625 -0.65625 -0.515625 -1.921875l0 -6.578125l-1.8125 0l0 -0.890625l1.8125 0l0 -2.515625l1.09375 0zm3.5148315 7.296875q0 -1.421875 0.546875 -2.546875q0.5625 -1.140625 1.5625 -1.765625q1.015625 -0.640625 2.28125 -0.640625q1.96875 0 3.1875 1.375q1.234375 1.375 1.234375 3.65625l0 0.234375q0 1.421875 -0.5625 2.5625q-0.546875 1.140625 -1.546875 1.765625q-1.0 0.625 -2.28125 0.625q-1.96875 0 -3.203125 -1.375q-1.21875 -1.390625 -1.21875 -3.671875l0 -0.21875zm1.09375 0.3125q0 1.765625 0.921875 2.90625q0.921875 1.125 2.40625 1.125q1.46875 0 2.375 -1.125q0.921875 -1.140625 0.921875 -3.0l0 -0.21875q0 -1.125 -0.421875 -2.0625q-0.40625 -0.9375 -1.171875 -1.453125q-0.75 -0.515625 -1.734375 -0.515625q-1.453125 0 -2.375 1.140625q-0.921875 1.140625 -0.921875 3.0l0 0.203125zm14.511108 -4.15625q-0.34375 -0.0625 -0.734375 -0.0625q-1.015625 0 -1.71875 0.5625q-0.703125 0.5625 -1.015625 1.65625l0 6.765625l-1.078125 0l0 -9.859375l1.0625 0l0.015625 1.5625q0.875 -1.734375 2.78125 -1.734375q0.453125 0 0.71875 0.109375l-0.03125 1.0zm5.3688965 9.109375q-1.25 0 -2.265625 -0.625q-1.015625 -0.625 -1.59375 -1.71875q-0.5625 -1.109375 -0.5625 -2.484375l0 -0.390625q0 -1.421875 0.546875 -2.5625q0.5625 -1.140625 1.546875 -1.78125q0.984375 -0.65625 2.125 -0.65625q1.796875 0 2.84375 1.21875q1.0625 1.21875 1.0625 3.34375l0 0.609375l-7.03125 0l0 0.21875q0 1.671875 0.953125 2.796875q0.96875 1.109375 2.421875 1.109375q0.875 0 1.546875 -0.3125q0.671875 -0.328125 1.21875 -1.03125l0.6875 0.515625q-1.203125 1.75 -3.5 1.75zm-0.203125 -9.296875q-1.21875 0 -2.0625 0.90625q-0.84375 0.890625 -1.03125 2.421875l5.921875 0l0 -0.125q-0.046875 -1.421875 -0.8125 -2.3125q-0.765625 -0.890625 -2.015625 -0.890625zm9.294128 3.890625q0 2.0 -0.5 3.859375q-0.5 1.84375 -1.484375 3.390625q-0.96875 1.546875 -2.140625 2.25l-0.265625 -0.703125q0.890625 -0.640625 1.65625 -1.984375q0.765625 -1.328125 1.203125 -3.109375q0.4375 -1.78125 0.4375 -3.875q0 -1.875 -0.4375 -3.625q-0.4375 -1.765625 -1.21875 -3.140625q-0.765625 -1.375 -1.640625 -2.015625l0.265625 -0.6875q1.15625 0.6875 2.125 2.234375q0.96875 1.53125 1.484375 3.421875q0.515625 1.875 0.515625 3.984375z" fill-rule="nonzero"/><path fill="#ffffff" d="m63.643044 414.66272l0 0c0 -8.239746E-4 6.790161E-4 -0.0014953613 0.0015106201 -0.0014953613l181.22684 0.0014953613c4.119873E-4 0 7.9345703E-4 1.8310547E-4 0.0010681152 4.5776367E-4c2.89917E-4 2.746582E-4 4.4250488E-4 6.713867E-4 4.4250488E-4 0.0010681152l-0.0015106201 274.86462c0 8.544922E-4 -6.713867E-4 0.0015258789 -0.0014953613 0.0015258789l-181.22684 -0.0015258789l0 0c-8.31604E-4 0 -0.0015106201 -6.713867E-4 -0.0015106201 -0.0015258789z" fill-rule="evenodd"/><path stroke="#cccccc" stroke-width="1.0" stroke-linejoin="round" stroke-linecap="butt" stroke-dasharray="4.0,3.0" d="m63.643044 414.66272l0 0c0 -8.239746E-4 6.790161E-4 -0.0014953613 0.0015106201 -0.0014953613l181.22684 0.0014953613c4.119873E-4 0 7.9345703E-4 1.8310547E-4 0.0010681152 4.5776367E-4c2.89917E-4 2.746582E-4 4.4250488E-4 6.713867E-4 4.4250488E-4 0.0010681152l-0.0015106201 274.86462c0 8.544922E-4 -6.713867E-4 0.0015258789 -0.0014953613 0.0015258789l-181.22684 -0.0015258789l0 0c-8.31604E-4 0 -0.0015106201 -6.713867E-4 -0.0015106201 -0.0015258789z" fill-rule="evenodd"/><path fill="#cfe2f3" d="m84.32021 442.43723l0 0c0 -5.9346313 4.810974 -10.745636 10.745621 -10.745636l118.382774 0c2.8499146 0 5.5830994 1.1321411 7.598297 3.1473389c2.0151978 2.0151978 3.1473236 4.7483826 3.1473236 7.598297l0 42.9812c0 5.9346313 -4.8109894 10.745605 -10.745621 10.745605l-118.382774 0c-5.9346466 0 -10.745621 -4.810974 -10.745621 -10.745605z" fill-rule="evenodd"/><path fill="#000000" d="m122.819534 467.95718l3.375 -10.375l2.53125 0l-4.765625 13.265625l-2.234375 0l-4.765625 -13.265625l2.53125 0l3.328125 10.375zm16.991959 -8.515625l-4.140625 0l0 11.40625l-2.28125 0l0 -11.40625l-4.109375 0l0 -1.859375l10.53125 0l0 1.859375zm11.468933 0l-4.140625 0l0 11.40625l-2.28125 0l0 -11.40625l-4.109375 0l0 -1.859375l10.53125 0l0 1.859375zm5.86998 11.40625q-0.140625 -0.28125 -0.25 -0.921875q-1.046875 1.109375 -2.578125 1.109375q-1.484375 0 -2.4375 -0.84375q-0.9375 -0.859375 -0.9375 -2.109375q0 -1.578125 1.171875 -2.40625q1.171875 -0.84375 3.359375 -0.84375l1.359375 0l0 -0.65625q0 -0.765625 -0.4375 -1.21875q-0.421875 -0.46875 -1.296875 -0.46875q-0.765625 0 -1.25 0.390625q-0.46875 0.375 -0.46875 0.953125l-2.21875 0q0 -0.8125 0.53125 -1.515625q0.546875 -0.703125 1.46875 -1.09375q0.921875 -0.40625 2.0625 -0.40625q1.734375 0 2.75 0.875q1.03125 0.859375 1.0625 2.4375l0 4.4375q0 1.328125 0.375 2.125l0 0.15625l-2.265625 0zm-2.421875 -1.59375q0.65625 0 1.234375 -0.3125q0.578125 -0.328125 0.875 -0.859375l0 -1.859375l-1.203125 0q-1.234375 0 -1.859375 0.4375q-0.609375 0.421875 -0.609375 1.203125q0 0.640625 0.421875 1.015625q0.421875 0.375 1.140625 0.375zm15.280823 -3.234375q0 2.296875 -1.03125 3.65625q-1.015625 1.359375 -2.8125 1.359375q-1.734375 0 -2.6875 -1.25l-0.109375 1.0625l-2.015625 0l0 -14.0l2.21875 0l0 5.09375q0.953125 -1.125 2.578125 -1.125q1.796875 0 2.828125 1.34375q1.03125 1.328125 1.03125 3.734375l0 0.125zm-2.21875 -0.1875q0 -1.609375 -0.5625 -2.40625q-0.5625 -0.796875 -1.640625 -0.796875q-1.4375 0 -2.015625 1.25l0 4.0625q0.59375 1.28125 2.046875 1.28125q1.03125 0 1.59375 -0.765625q0.5625 -0.78125 0.578125 -2.34375l0 -0.28125zm6.425125 5.015625l-2.203125 0l0 -14.0l2.203125 0l0 14.0zm6.748642 0.1875q-2.09375 0 -3.40625 -1.328125q-1.3125 -1.328125 -1.3125 -3.53125l0 -0.28125q0 -1.46875 0.5625 -2.625q0.578125 -1.171875 1.609375 -1.8125q1.03125 -0.640625 2.296875 -0.640625q2.015625 0 3.109375 1.28125q1.09375 1.28125 1.09375 3.625l0 0.890625l-6.4375 0q0.109375 1.234375 0.8125 1.953125q0.71875 0.703125 1.8125 0.703125q1.515625 0 2.46875 -1.234375l1.203125 1.140625q-0.59375 0.875 -1.59375 1.375q-0.984375 0.484375 -2.21875 0.484375zm-0.265625 -8.453125q-0.90625 0 -1.46875 0.640625q-0.5625 0.640625 -0.703125 1.78125l4.203125 0l0 -0.171875q-0.0625 -1.109375 -0.59375 -1.671875q-0.515625 -0.578125 -1.4375 -0.578125zm8.714462 -3.984375l0 2.390625l1.734375 0l0 1.640625l-1.734375 0l0 5.5q0 0.5625 0.21875 0.8125q0.234375 0.25 0.796875 0.25q0.390625 0 0.78125 -0.078125l0 1.703125q-0.75 0.21875 -1.453125 0.21875q-2.5625 0 -2.5625 -2.8125l0 -5.59375l-1.609375 0l0 -1.640625l1.609375 0l0 -2.390625l2.21875 0z" fill-rule="nonzero"/><path fill="#ffe599" d="m84.32021 598.1098l0 0c0 -7.9484863 31.31186 -14.391968 69.937004 -14.391968c38.625137 0 69.93701 6.4434814 69.93701 14.391968l0 57.56781c0 7.9484253 -31.311874 14.391968 -69.93701 14.391968c-38.625145 0 -69.937004 -6.4435425 -69.937004 -14.391968z" fill-rule="evenodd"/><path fill="#000000" fill-opacity="0.0" d="m224.19423 598.1098l0 0c0 7.9484253 -31.311874 14.391968 -69.93701 14.391968c-38.625145 0 -69.937004 -6.4435425 -69.937004 -14.391968" fill-rule="evenodd"/><path fill="#000000" fill-opacity="0.0" d="m84.32021 598.1098l0 0c0 -7.9484863 31.31186 -14.391968 69.937004 -14.391968c38.625137 0 69.93701 6.4434814 69.93701 14.391968l0 57.56781c0 7.9484253 -31.311874 14.391968 -69.93701 14.391968c-38.625145 0 -69.937004 -6.4435425 -69.937004 -14.391968z" fill-rule="evenodd"/><path stroke="#ffffff" stroke-width="1.0" stroke-linejoin="round" stroke-linecap="butt" d="m224.19423 598.1098l0 0c0 7.9484253 -31.311874 14.391968 -69.93701 14.391968c-38.625145 0 -69.937004 -6.4435425 -69.937004 -14.391968" fill-rule="evenodd"/><path stroke="#ffffff" stroke-width="1.0" stroke-linejoin="round" stroke-linecap="butt" d="m84.32021 598.1098l0 0c0 -7.9484863 31.31186 -14.391968 69.937004 -14.391968c38.625137 0 69.93701 6.4434814 69.93701 14.391968l0 57.56781c0 7.9484253 -31.311874 14.391968 -69.93701 14.391968c-38.625145 0 -69.937004 -6.4435425 -69.937004 -14.391968z" fill-rule="evenodd"/><path fill="#000000" d="m128.77647 627.744l3.8125 10.171875l3.828125 -10.171875l2.96875 0l0 13.265625l-2.296875 0l0 -4.375l0.234375 -5.84375l-3.921875 10.21875l-1.640625 0l-3.90625 -10.21875l0.21875 5.84375l0 4.375l-2.296875 0l0 -13.265625l3.0 0zm16.567703 10.09375l2.015625 -6.6875l2.359375 0l-3.921875 11.359375q-0.90625 2.484375 -3.0625 2.484375q-0.484375 0 -1.0625 -0.171875l0 -1.703125l0.421875 0.015625q0.828125 0 1.25 -0.3125q0.421875 -0.296875 0.671875 -1.015625l0.328125 -0.84375l-3.46875 -9.8125l2.390625 0l2.078125 6.6875zm12.785294 -0.25q0 -0.875 -0.625 -1.34375q-0.609375 -0.46875 -2.21875 -0.953125q-1.59375 -0.484375 -2.546875 -1.078125q-1.8125 -1.140625 -1.8125 -2.96875q0 -1.609375 1.3125 -2.640625q1.3125 -1.046875 3.390625 -1.046875q1.390625 0 2.46875 0.515625q1.09375 0.515625 1.703125 1.453125q0.625 0.9375 0.625 2.09375l-2.296875 0q0 -1.046875 -0.65625 -1.625q-0.640625 -0.59375 -1.859375 -0.59375q-1.125 0 -1.75 0.484375q-0.625 0.484375 -0.625 1.34375q0 0.734375 0.671875 1.21875q0.671875 0.484375 2.21875 0.953125q1.546875 0.453125 2.484375 1.046875q0.9375 0.59375 1.375 1.359375q0.4375 0.75 0.4375 1.765625q0 1.65625 -1.265625 2.640625q-1.265625 0.984375 -3.453125 0.984375q-1.4375 0 -2.640625 -0.53125q-1.203125 -0.546875 -1.875 -1.484375q-0.671875 -0.9375 -0.671875 -2.1875l2.3125 0q0 1.140625 0.734375 1.765625q0.75 0.609375 2.140625 0.609375q1.203125 0 1.8125 -0.484375q0.609375 -0.484375 0.609375 -1.296875zm14.868713 -2.859375q0 1.875 -0.609375 3.265625q-0.59375 1.375 -1.65625 2.1875l2.265625 1.78125l-1.484375 1.34375l-2.828125 -2.234375q-0.5625 0.125 -1.1875 0.125q-1.609375 0 -2.875 -0.78125q-1.25 -0.796875 -1.9375 -2.25q-0.6875 -1.46875 -0.703125 -3.375l0 -0.734375q0 -1.953125 0.6875 -3.4375q0.6875 -1.484375 1.9375 -2.265625q1.25 -0.796875 2.875 -0.796875q1.625 0 2.875 0.78125q1.265625 0.78125 1.9375 2.25q0.6875 1.453125 0.703125 3.40625l0 0.734375zm-2.3125 -0.703125q0 -2.234375 -0.84375 -3.390625q-0.84375 -1.15625 -2.359375 -1.15625q-1.5 0 -2.34375 1.171875q-0.828125 1.171875 -0.859375 3.296875l0 0.78125q0 2.140625 0.84375 3.359375q0.84375 1.203125 2.375 1.203125q1.53125 0 2.359375 -1.15625q0.828125 -1.171875 0.828125 -3.40625l0 -0.703125zm6.958954 5.140625l6.015625 0l0 1.84375l-8.328125 0l0 -13.265625l2.3125 0l0 11.421875z" fill-rule="nonzero"/><path fill="#000000" fill-opacity="0.0" d="m154.25722 583.71783l0 -87.55905" fill-rule="evenodd"/><path stroke="#000000" stroke-width="1.0" stroke-linejoin="round" stroke-linecap="butt" d="m154.25722 577.71783l0 -75.55905" fill-rule="evenodd"/><path fill="#000000" stroke="#000000" stroke-width="1.0" stroke-linecap="butt" d="m152.60548 577.71783l1.6517334 4.538086l1.6517334 -4.538086z" fill-rule="evenodd"/><path fill="#000000" stroke="#000000" stroke-width="1.0" stroke-linecap="butt" d="m155.90895 502.15878l-1.6517334 -4.538086l-1.6517334 4.538086z" fill-rule="evenodd"/><path fill="#000000" fill-opacity="0.0" d="m102.22854 519.9094l77.70078 0l0 40.06299l-77.70078 0z" fill-rule="evenodd"/><path fill="#000000" d="m117.79104 539.38135q0 -0.796875 -0.5625 -1.25q-0.546875 -0.453125 -2.015625 -0.859375q-1.46875 -0.421875 -2.15625 -0.90625q-0.953125 -0.703125 -0.953125 -1.8125q0 -1.09375 0.890625 -1.765625q0.890625 -0.6875 2.28125 -0.6875q0.953125 0 1.6875 0.375q0.75 0.359375 1.15625 1.015625q0.421875 0.640625 0.421875 1.4375l-0.8125 0q0 -0.96875 -0.671875 -1.546875q-0.65625 -0.59375 -1.78125 -0.59375q-1.078125 0 -1.734375 0.484375q-0.640625 0.484375 -0.640625 1.265625q0 0.71875 0.578125 1.1875q0.59375 0.453125 1.859375 0.796875q1.28125 0.34375 1.9375 0.71875q0.65625 0.375 0.984375 0.90625q0.328125 0.515625 0.328125 1.21875q0 1.125 -0.890625 1.796875q-0.890625 0.671875 -2.359375 0.671875q-1.0 0 -1.84375 -0.34375q-0.828125 -0.359375 -1.265625 -1.0q-0.421875 -0.65625 -0.421875 -1.484375l0.796875 0q0 1.0 0.75 1.578125q0.75 0.578125 1.984375 0.578125q1.109375 0 1.78125 -0.484375q0.671875 -0.484375 0.671875 -1.296875zm5.065933 2.453125q-0.890625 0 -1.625 -0.4375q-0.71875 -0.4375 -1.125 -1.234375q-0.40625 -0.796875 -0.40625 -1.765625l0 -0.28125q0 -1.015625 0.390625 -1.828125q0.40625 -0.8125 1.109375 -1.28125q0.703125 -0.46875 1.515625 -0.46875q1.28125 0 2.03125 0.875q0.765625 0.875 0.765625 2.390625l0 0.4375l-5.03125 0l0 0.15625q0 1.1875 0.6875 1.984375q0.6875 0.796875 1.734375 0.796875q0.625 0 1.09375 -0.21875q0.484375 -0.234375 0.875 -0.734375l0.484375 0.375q-0.859375 1.234375 -2.5 1.234375zm-0.140625 -6.640625q-0.875 0 -1.484375 0.65625q-0.59375 0.640625 -0.71875 1.734375l4.21875 0l0 -0.09375q-0.03125 -1.015625 -0.578125 -1.65625q-0.546875 -0.640625 -1.4375 -0.640625zm7.5571976 0.140625q-0.25 -0.046875 -0.53125 -0.046875q-0.71875 0 -1.234375 0.40625q-0.5 0.40625 -0.7031174 1.1875l0 4.828125l-0.78125 0l0 -7.046875l0.765625 0l0.015625 1.125q0.6093674 -1.25 1.9843674 -1.25q0.3125 0 0.5 0.078125l-0.015625 0.71875zm3.53862 5.296875l2.140625 -5.96875l0.8125 0l-2.640625 7.046875l-0.625 0l-2.640625 -7.046875l0.796875 0l2.15625 5.96875zm6.8568726 1.203125q-0.890625 0 -1.625 -0.4375q-0.71875 -0.4375 -1.125 -1.234375q-0.40625 -0.796875 -0.40625 -1.765625l0 -0.28125q0 -1.015625 0.390625 -1.828125q0.40625 -0.8125 1.109375 -1.28125q0.703125 -0.46875 1.515625 -0.46875q1.28125 0 2.03125 0.875q0.765625 0.875 0.765625 2.390625l0 0.4375l-5.03125 0l0 0.15625q0 1.1875 0.6875 1.984375q0.6875 0.796875 1.734375 0.796875q0.625 0 1.09375 -0.21875q0.484375 -0.234375 0.875 -0.734375l0.484375 0.375q-0.859375 1.234375 -2.5 1.234375zm-0.140625 -6.640625q-0.875 0 -1.484375 0.65625q-0.59375 0.640625 -0.71875 1.734375l4.21875 0l0 -0.09375q-0.03125 -1.015625 -0.578125 -1.65625q-0.546875 -0.640625 -1.4375 -0.640625zm7.557205 0.140625q-0.25 -0.046875 -0.53125 -0.046875q-0.71875 0 -1.234375 0.40625q-0.5 0.40625 -0.703125 1.1875l0 4.828125l-0.78125 0l0 -7.046875l0.765625 0l0.015625 1.125q0.609375 -1.25 1.984375 -1.25q0.3125 0 0.5 0.078125l-0.015625 0.71875z" fill-rule="nonzero"/><path fill="#000000" fill-opacity="0.0" d="m388.58792 227.44489c0 -21.795273 0.48031616 -32.692917 0.9606323 -43.59056c0.48031616 -10.897629 0.9606323 -21.795273 0.9606323 -43.590546" fill-rule="evenodd"/><path stroke="#000000" stroke-width="1.0" stroke-linejoin="round" stroke-linecap="butt" d="m388.60223 221.4449l0.0072631836 -1.6837006c0.0140686035 -2.4051514 0.034698486 -4.6613007 0.06097412 -6.789749c0.05255127 -4.2568817 0.127594 -8.002945 0.21765137 -11.408463c0.18011475 -6.81102 0.4202881 -12.259842 0.6604309 -17.708664c0.24017334 -5.448807 0.48031616 -10.897629 0.6604309 -17.708649c0.09005737 -3.4055176 0.1651001 -7.151581 0.21765137 -11.408478c0.026275635 -2.1284332 0.046905518 -4.3845825 0.06097412 -6.789734l0.0072631836 -1.6837006" fill-rule="evenodd"/><path fill="#000000" stroke="#000000" stroke-width="1.0" stroke-linecap="butt" d="m386.9505 221.44096l1.6408997 4.5420227l1.6625671 -4.534149z" fill-rule="evenodd"/><path fill="#000000" stroke="#000000" stroke-width="1.0" stroke-linecap="butt" d="m392.1466 146.2677l-1.6408997 -4.5420227l-1.6625671 4.534149z" fill-rule="evenodd"/><path fill="#000000" fill-opacity="0.0" d="m154.25722 414.66272l189.82677 -105.07086" fill-rule="evenodd"/><path stroke="#000000" stroke-width="1.0" stroke-linejoin="round" stroke-linecap="butt" d="m159.50671 411.75708l179.32779 -99.25955" fill-rule="evenodd"/><path fill="#000000" stroke="#000000" stroke-width="1.0" stroke-linecap="butt" d="m158.70682 410.31195l-3.1705627 3.6428223l4.770355 -0.7525635z" fill-rule="evenodd"/><path fill="#000000" stroke="#000000" stroke-width="1.0" stroke-linecap="butt" d="m339.63437 313.94263l3.1705933 -3.6427917l-4.770355 0.75253296z" fill-rule="evenodd"/><path fill="#000000" fill-opacity="0.0" d="m582.0551 411.59448l-139.65353 -102.01575" fill-rule="evenodd"/><path stroke="#000000" stroke-width="1.0" stroke-linejoin="round" stroke-linecap="butt" d="m577.21014 408.05527l-129.9636 -94.93729" fill-rule="evenodd"/><path fill="#000000" stroke="#000000" stroke-width="1.0" stroke-linecap="butt" d="m576.23584 409.38904l4.638794 1.3431091l-2.6901855 -4.0106506z" fill-rule="evenodd"/><path fill="#000000" stroke="#000000" stroke-width="1.0" stroke-linecap="butt" d="m448.22086 311.78418l-4.638794 -1.3431091l2.6901855 4.0106506z" fill-rule="evenodd"/><path fill="#000000" fill-opacity="0.0" d="m505.7533 267.5866c23.220459 0 34.83069 0.01574707 46.440918 0.03149414c11.6102295 0.01574707 23.220459 0.03149414 46.44098 0.03149414" fill-rule="evenodd"/><path stroke="#000000" stroke-width="1.0" stroke-linejoin="round" stroke-linecap="butt" d="m511.7533 267.58765l9.419861 0.0016784668c4.5352173 0.0017089844 8.526245 0.004180908 12.154419 0.0071411133c7.2564087 0.0058898926 13.061523 0.013763428 18.866638 0.021636963c5.8051147 0.007873535 11.6102295 0.01574707 18.866638 0.02166748c3.6282349 0.002960205 7.6192017 0.0054016113 12.15448 0.0071411133l9.419861 0.0016479492" fill-rule="evenodd"/><path fill="#000000" stroke="#000000" stroke-width="1.0" stroke-linecap="butt" d="m511.75357 265.93594l-4.538391 1.65094l4.5378113 1.6525269z" fill-rule="evenodd"/><path fill="#000000" stroke="#000000" stroke-width="1.0" stroke-linecap="butt" d="m592.6349 269.3003l4.538391 -1.65094l-4.537842 -1.6525269z" fill-rule="evenodd"/><path fill="#000000" fill-opacity="0.0" d="m388.58792 414.66272l266.33072 -84.409424" fill-rule="evenodd"/><path stroke="#000000" stroke-width="1.0" stroke-linejoin="round" stroke-linecap="butt" stroke-dasharray="4.0,3.0" d="m394.30753 412.84998l254.89151 -80.783936" fill-rule="evenodd"/><path fill="#000000" stroke="#000000" stroke-width="1.0" stroke-linecap="butt" d="m393.8085 411.27545l-3.8269958 2.9455872l4.8250732 0.20349121z" fill-rule="evenodd"/><path fill="#000000" stroke="#000000" stroke-width="1.0" stroke-linecap="butt" d="m649.69806 333.64056l3.8269653 -2.9456177l-4.825012 -0.2034607z" fill-rule="evenodd"/><path fill="#000000" fill-opacity="0.0" d="m652.4895 410.38846l58.64569 -77.7323" fill-rule="evenodd"/><path stroke="#000000" stroke-width="1.0" stroke-linejoin="round" stroke-linecap="butt" stroke-dasharray="4.0,3.0" d="m656.10315 405.59872l55.032043 -72.942566" fill-rule="evenodd"/><path fill="#000000" stroke="#000000" stroke-width="1.0" stroke-linecap="butt" d="m654.7846 404.6039l-1.4146118 4.617523l4.051697 -2.6279297z" fill-rule="evenodd"/><path fill="#000000" fill-opacity="0.0" d="m23.139107 21.846457l221.73227 0l0 42.48819l-221.73227 0z" fill-rule="evenodd"/><path fill="#000000" d="m39.43598 51.777084l0.09375 0.359375l0.109375 -0.359375l5.375 -14.953125l1.578125 0l-6.359375 17.0625l-1.375 0l-6.359375 -17.0625l1.578125 0l5.359375 14.953125zm10.910156 2.109375l-1.40625 0l0 -12.6875l1.40625 0l0 12.6875zm-1.65625 -16.34375q0 -0.40625 0.25 -0.671875q0.265625 -0.28125 0.703125 -0.28125q0.453125 0 0.71875 0.28125q0.265625 0.265625 0.265625 0.671875q0 0.390625 -0.265625 0.671875q-0.265625 0.265625 -0.71875 0.265625q-0.4375 0 -0.703125 -0.265625q-0.25 -0.28125 -0.25 -0.671875zm7.6445312 0.421875l0 3.234375l2.625 0l0 1.15625l-2.625 0l0 8.453125q0 1.046875 0.375 1.5625q0.375 0.515625 1.265625 0.515625q0.359375 0 1.140625 -0.109375l0.0625 1.140625q-0.546875 0.203125 -1.5 0.203125q-1.4375 0 -2.09375 -0.828125q-0.65625 -0.84375 -0.65625 -2.484375l0 -8.453125l-2.34375 0l0 -1.15625l2.34375 0l0 -3.234375l1.40625 0zm10.4296875 16.15625q-1.609375 0 -2.921875 -0.796875q-1.296875 -0.796875 -2.03125 -2.21875q-0.71875 -1.421875 -0.71875 -3.203125l0 -0.5q0 -1.828125 0.703125 -3.28125q0.703125 -1.46875 1.96875 -2.3125q1.265625 -0.84375 2.75 -0.84375q2.3125 0 3.65625 1.578125q1.359375 1.578125 1.359375 4.3125l0 0.78125l-9.046875 0l0 0.265625q0 2.15625 1.234375 3.59375q1.234375 1.4375 3.109375 1.4375q1.125 0 1.984375 -0.40625q0.859375 -0.40625 1.5625 -1.3125l0.890625 0.671875q-1.546875 2.234375 -4.5 2.234375zm-0.25 -11.953125q-1.578125 0 -2.671875 1.15625q-1.078125 1.15625 -1.3125 3.125l7.609375 0l0 -0.15625q-0.0625 -1.828125 -1.046875 -2.96875q-0.984375 -1.15625 -2.578125 -1.15625zm15.3359375 8.5q0 -1.046875 -0.84375 -1.671875q-0.828125 -0.640625 -2.515625 -1.0q-1.6875 -0.359375 -2.625 -0.8125q-0.921875 -0.46875 -1.375 -1.140625q-0.453125 -0.671875 -0.453125 -1.609375q0 -1.5 1.25 -2.484375q1.25 -0.984375 3.21875 -0.984375q2.109375 0 3.390625 1.0625q1.296875 1.046875 1.296875 2.734375l-1.40625 0q0 -1.125 -0.9375 -1.859375q-0.9375 -0.734375 -2.34375 -0.734375q-1.390625 0 -2.234375 0.625q-0.828125 0.609375 -0.828125 1.59375q0 0.9375 0.6875 1.46875q0.703125 0.515625 2.546875 0.953125q1.84375 0.4375 2.765625 0.9375q0.921875 0.484375 1.359375 1.171875q0.453125 0.6875 0.453125 1.671875q0 1.609375 -1.296875 2.578125q-1.296875 0.953125 -3.375 0.953125q-2.21875 0 -3.59375 -1.0625q-1.375 -1.078125 -1.375 -2.71875l1.40625 0q0.078125 1.21875 1.03125 1.90625q0.953125 0.6875 2.53125 0.6875q1.46875 0 2.359375 -0.640625q0.90625 -0.640625 0.90625 -1.625zm12.152344 0q0 -1.046875 -0.84375 -1.671875q-0.828125 -0.640625 -2.515625 -1.0q-1.6875 -0.359375 -2.625 -0.8125q-0.921875 -0.46875 -1.375 -1.140625q-0.453125 -0.671875 -0.453125 -1.609375q0 -1.5 1.25 -2.484375q1.25 -0.984375 3.21875 -0.984375q2.109375 0 3.390625 1.0625q1.296875 1.046875 1.296875 2.734375l-1.40625 0q0 -1.125 -0.9375 -1.859375q-0.9375 -0.734375 -2.34375 -0.734375q-1.390625 0 -2.234375 0.625q-0.828125 0.609375 -0.828125 1.59375q0 0.9375 0.6875 1.46875q0.703125 0.515625 2.546875 0.953125q1.84375 0.4375 2.765625 0.9375q0.921875 0.484375 1.359375 1.171875q0.453125 0.6875 0.453125 1.671875q0 1.609375 -1.296875 2.578125q-1.296875 0.953125 -3.375 0.953125q-2.21875 0 -3.59375 -1.0625q-1.375 -1.078125 -1.375 -2.71875l1.40625 0q0.078125 1.21875 1.03125 1.90625q0.953125 0.6875 2.53125 0.6875q1.46875 0 2.359375 -0.640625q0.90625 -0.640625 0.90625 -1.625zm17.097656 -3.890625l-4.953125 0l0 7.109375l-1.453125 0l0 -17.0625l5.546875 0q2.71875 0 4.25 1.328125q1.546875 1.3125 1.546875 3.703125q0 1.640625 -0.96875 2.890625q-0.953125 1.25 -2.578125 1.734375l4.265625 7.25l0 0.15625l-1.53125 0l-4.125 -7.109375zm-4.953125 -1.21875l4.421875 0q1.8125 0 2.90625 -1.03125q1.109375 -1.03125 1.109375 -2.671875q0 -1.8125 -1.15625 -2.796875q-1.140625 -1.0 -3.21875 -1.0l-4.0625 0l0 7.5zm21.640625 6.71875q-1.265625 1.84375 -4.046875 1.84375q-2.015625 0 -3.078125 -1.171875q-1.046875 -1.1875 -1.078125 -3.5l0 -8.25l1.390625 0l0 8.078125q0 3.625 2.9375 3.625q3.046875 0 3.859375 -2.515625l0 -9.1875l1.4062576 0l0 12.6875l-1.3593826 0l-0.03125 -1.609375zm6.3711014 -11.078125l0.046875 2.171875q0.703125 -1.171875 1.765625 -1.78125q1.078125 -0.625 2.359375 -0.625q2.046875 0 3.03125 1.15625q1.0 1.140625 1.015625 3.4375l0 8.328125l-1.390625 0l0 -8.328125q-0.015625 -1.703125 -0.734375 -2.53125q-0.703125 -0.84375 -2.25 -0.84375q-1.3125 0 -2.3125 0.828125q-1.0 0.8125 -1.484375 2.1875l0 8.6875l-1.390625 0l0 -12.6875l1.34375 0zm14.027344 -3.234375l0 3.234375l2.625 0l0 1.15625l-2.625 0l0 8.453125q0 1.046875 0.375 1.5625q0.375 0.515625 1.265625 0.515625q0.359375 0 1.140625 -0.109375l0.0625 1.140625q-0.546875 0.203125 -1.5 0.203125q-1.4375 0 -2.09375 -0.828125q-0.65625 -0.84375 -0.65625 -2.484375l0 -8.453125l-2.34375 0l0 -1.15625l2.34375 0l0 -3.234375l1.40625 0zm7.1015625 15.921875l-1.40625 0l0 -12.6875l1.40625 0l0 12.6875zm-1.65625 -16.34375q0 -0.40625 0.25 -0.671875q0.265625 -0.28125 0.703125 -0.28125q0.453125 0 0.71875 0.28125q0.265625 0.265625 0.265625 0.671875q0 0.390625 -0.265625 0.671875q-0.265625 0.265625 -0.71875 0.265625q-0.4375 0 -0.703125 -0.265625q-0.25 -0.28125 -0.25 -0.671875zm6.7382812 3.65625l0.046875 2.0625q0.703125 -1.140625 1.75 -1.71875q1.0625 -0.578125 2.34375 -0.578125q3.0 0 3.8125 2.46875q0.6875 -1.1875 1.8125 -1.828125q1.140625 -0.640625 2.515625 -0.640625q4.078125 0 4.15625 4.453125l0 8.46875l-1.40625 0l0 -8.359375q-0.015625 -1.703125 -0.734375 -2.515625q-0.71875 -0.828125 -2.34375 -0.828125q-1.515625 0.03125 -2.5625 0.984375q-1.03125 0.953125 -1.15625 2.328125l0 8.390625l-1.40625 0l0 -8.46875q-0.015625 -1.625 -0.765625 -2.421875q-0.75 -0.8125 -2.328125 -0.8125q-1.328125 0 -2.28125 0.765625q-0.9375 0.75 -1.390625 2.234375l0 8.703125l-1.40625 0l0 -12.6875l1.34375 0zm24.894531 12.921875q-1.609375 0 -2.921875 -0.796875q-1.296875 -0.796875 -2.03125 -2.21875q-0.71875 -1.421875 -0.71875 -3.203125l0 -0.5q0 -1.828125 0.703125 -3.28125q0.703125 -1.46875 1.96875 -2.3125q1.265625 -0.84375 2.75 -0.84375q2.3125 0 3.65625 1.578125q1.359375 1.578125 1.359375 4.3125l0 0.78125l-9.046875 0l0 0.265625q0 2.15625 1.234375 3.59375q1.234375 1.4375 3.109375 1.4375q1.125 0 1.984375 -0.40625q0.859375 -0.40625 1.5625 -1.3125l0.890625 0.671875q-1.546875 2.234375 -4.5 2.234375zm-0.25 -11.953125q-1.578125 0 -2.671875 1.15625q-1.078125 1.15625 -1.3125 3.125l7.609375 0l0 -0.15625q-0.0625 -1.828125 -1.046875 -2.96875q-0.984375 -1.15625 -2.578125 -1.15625z" fill-rule="nonzero"/><path fill="#d9d9d9" d="m867.72705 22.148787l0 0c0 -6.7001677 5.4315186 -12.131726 12.131714 -12.131726l415.6106 0c3.2175293 0 6.3032227 1.2781601 8.578369 3.5533c2.2751465 2.2751398 3.5533447 5.3608913 3.5533447 8.578426l0 679.95703c0 6.7001343 -5.4316406 12.131714 -12.131714 12.131714l-415.6106 0c-6.7001953 0 -12.131714 -5.4315796 -12.131714 -12.131714z" fill-rule="evenodd"/><path fill="#000000" fill-opacity="0.0" d="m880.126 21.846457l221.7323 0l0 42.48819l-221.7323 0z" fill-rule="evenodd"/><path fill="#000000" d="m900.501 49.10521l-7.75 0l-1.765625 4.78125l-1.5 0l6.453125 -17.0625l1.375 0l6.453125 17.0625l-1.5 0l-1.765625 -4.78125zm-7.3125 -1.234375l6.84375 0l-3.421875 -9.296875l-3.421875 9.296875zm12.191406 -0.4375q0 -2.953125 1.3125 -4.703125q1.328125 -1.765625 3.59375 -1.765625q2.5625 0 3.90625 2.03125l0 -7.109375l1.390625 0l0 18.0l-1.3125 0l-0.046875 -1.6875q-1.359375 1.921875 -3.96875 1.921875q-2.1875 0 -3.53125 -1.765625q-1.34375 -1.765625 -1.34375 -4.765625l0 -0.15625zm1.421875 0.234375q0 2.4375 0.96875 3.84375q0.96875 1.390625 2.75 1.390625q2.578125 0 3.671875 -2.28125l0 -5.953125q-1.09375 -2.484375 -3.65625 -2.484375q-1.765625 0 -2.75 1.390625q-0.984375 1.390625 -0.984375 4.09375zm13.7578125 -6.46875l0.046875 2.0625q0.703125 -1.140625 1.75 -1.71875q1.0625 -0.578125 2.34375 -0.578125q3.0 0 3.8125 2.46875q0.6875 -1.1875 1.8125 -1.828125q1.140625 -0.640625 2.515625 -0.640625q4.078125 0 4.15625 4.453125l0 8.46875l-1.40625 0l0 -8.359375q-0.015625 -1.703125 -0.734375 -2.515625q-0.71875 -0.828125 -2.34375 -0.828125q-1.515625 0.03125 -2.5625 0.984375q-1.03125 0.953125 -1.15625 2.328125l0 8.390625l-1.40625 0l0 -8.46875q-0.015625 -1.625 -0.765625 -2.421875q-0.75 -0.8125 -2.328125 -0.8125q-1.328125 0 -2.28125 0.765625q-0.9375 0.75 -1.390625 2.234375l0 8.703125l-1.40625 0l0 -12.6875l1.34375 0zm21.566406 12.6875l-1.40625 0l0 -12.6875l1.40625 0l0 12.6875zm-1.65625 -16.34375q0 -0.40625 0.25 -0.671875q0.265625 -0.28125 0.703125 -0.28125q0.453125 0 0.71875 0.28125q0.265625 0.265625 0.265625 0.671875q0 0.390625 -0.265625 0.671875q-0.265625 0.265625 -0.71875 0.265625q-0.4375 0 -0.703125 -0.265625q-0.25 -0.28125 -0.25 -0.671875zm6.8007812 3.65625l0.046875 2.171875q0.703125 -1.171875 1.765625 -1.78125q1.078125 -0.625 2.359375 -0.625q2.046875 0 3.03125 1.15625q1.0 1.140625 1.015625 3.4375l0 8.328125l-1.390625 0l0 -8.328125q-0.015625 -1.703125 -0.734375 -2.53125q-0.703125 -0.84375 -2.25 -0.84375q-1.3125 0 -2.3125 0.828125q-1.0 0.8125 -1.484375 2.1875l0 8.6875l-1.390625 0l0 -12.6875l1.34375 0z" fill-rule="nonzero"/><path fill="#ffffff" d="m988.4042 108.67585l282.48816 0l0 187.84253l-282.48816 0z" fill-rule="evenodd"/><path stroke="#999999" stroke-width="1.0" stroke-linejoin="round" stroke-linecap="butt" stroke-dasharray="4.0,3.0" d="m988.4042 108.67585l282.48816 0l0 187.84253l-282.48816 0z" fill-rule="evenodd"/><path fill="#d9ead3" d="m1013.18634 183.85432l0 0c0 -22.169662 17.972107 -40.141724 40.141785 -40.141724l154.04724 0l0 0c10.64624 0 20.856445 4.2292023 28.3844 11.757233c7.528076 7.5280457 11.757324 17.73825 11.757324 28.384491l0 0l0 0c0 22.169678 -17.972046 40.14174 -40.141724 40.14174l-154.04724 0c-22.169678 0 -40.141785 -17.972061 -40.141785 -40.14174z" fill-rule="evenodd"/><path fill="#000000" d="m1116.8788 187.96182l2.09375 -7.046875l2.28125 0l-3.421875 9.859375l-1.921875 0l-3.4375 -9.859375l2.296875 0l2.109375 7.046875zm8.52478 -9.4375l0 2.390625l1.734375 0l0 1.640625l-1.734375 0l0 5.5q0 0.5625 0.21875 0.8125q0.234375 0.25 0.796875 0.25q0.390625 0 0.78125 -0.078125l0 1.703125q-0.75 0.21875 -1.453125 0.21875q-2.5625 0 -2.5625 -2.8125l0 -5.59375l-1.609375 0l0 -1.640625l1.609375 0l0 -2.390625l2.21875 0zm7.484741 10.671875q0.828125 0 1.375 -0.484375q0.546875 -0.484375 0.578125 -1.203125l2.09375 0q-0.046875 0.921875 -0.59375 1.71875q-0.53125 0.796875 -1.453125 1.265625q-0.90625 0.46875 -1.984375 0.46875q-2.0625 0 -3.28125 -1.34375q-1.203125 -1.34375 -1.203125 -3.703125l0 -0.21875q0 -2.25 1.203125 -3.59375q1.203125 -1.359375 3.28125 -1.359375q1.75 0 2.859375 1.03125q1.109375 1.015625 1.171875 2.671875l-2.09375 0q-0.03125 -0.84375 -0.578125 -1.390625q-0.546875 -0.546875 -1.375 -0.546875q-1.078125 0 -1.671875 0.78125q-0.578125 0.78125 -0.578125 2.359375l0 0.359375q0 1.609375 0.578125 2.40625q0.578125 0.78125 1.671875 0.78125zm8.484131 -10.671875l0 2.390625l1.734375 0l0 1.640625l-1.734375 0l0 5.5q0 0.5625 0.21875 0.8125q0.234375 0.25 0.796875 0.25q0.390625 0 0.78125 -0.078125l0 1.703125q-0.75 0.21875 -1.453125 0.21875q-2.5625 0 -2.5625 -2.8125l0 -5.59375l-1.609375 0l0 -1.640625l1.609375 0l0 -2.390625l2.21875 0zm5.7817383 12.25l-2.203125 0l0 -14.0l2.203125 0l0 14.0z" fill-rule="nonzero"/><path fill="#000000" fill-opacity="0.0" d="m988.73755 254.13518l173.38586 0l0 42.488174l-173.38586 0z" fill-rule="evenodd"/><path fill="#000000" d="m1008.80005 276.91455q-0.21875 2.09375 -1.5 3.21875q-1.265625 1.109375 -3.375 1.109375q-1.484375 0 -2.625 -0.734375q-1.125 -0.75 -1.75 -2.09375q-0.609375 -1.359375 -0.625 -3.09375l0 -1.71875q0 -1.78125 0.625 -3.140625q0.625 -1.359375 1.78125 -2.109375q1.15625 -0.75 2.671875 -0.75q2.140625 0 3.375 1.15625q1.234375 1.15625 1.421875 3.1875l-1.125 0q-0.421875 -3.375 -3.671875 -3.375q-1.796875 0 -2.875 1.34375q-1.0625 1.34375 -1.0625 3.71875l0 1.625q0 2.296875 1.03125 3.671875q1.046875 1.359375 2.828125 1.359375q1.75 0 2.640625 -0.84375q0.90625 -0.84375 1.109375 -2.53125l1.125 0zm1.8656006 -0.9375q0 -1.421875 0.546875 -2.546875q0.5625 -1.140625 1.5625 -1.765625q1.015625 -0.640625 2.28125 -0.640625q1.96875 0 3.1875 1.375q1.234375 1.375 1.234375 3.65625l0 0.234375q0 1.421875 -0.5625 2.5625q-0.546875 1.140625 -1.546875 1.765625q-1.0 0.625 -2.28125 0.625q-1.96875 0 -3.203125 -1.375q-1.21875 -1.390625 -1.21875 -3.671875l0 -0.21875zm1.09375 0.3125q0 1.765625 0.921875 2.90625q0.921875 1.125 2.40625 1.125q1.46875 0 2.375 -1.125q0.921875 -1.140625 0.921875 -3.0l0 -0.21875q0 -1.125 -0.421875 -2.0625q-0.40625 -0.9375 -1.171875 -1.453125q-0.75 -0.515625 -1.734375 -0.515625q-1.453125 0 -2.375 1.140625q-0.921875 1.140625 -0.921875 3.0l0 0.203125zm10.948608 -5.09375l0.046875 1.609375q0.546875 -0.890625 1.359375 -1.328125q0.828125 -0.453125 1.828125 -0.453125q2.328125 0 2.953125 1.90625q0.53125 -0.921875 1.40625 -1.40625q0.890625 -0.5 1.953125 -0.5q3.171875 0 3.234375 3.453125l0 6.578125l-1.09375 0l0 -6.5q0 -1.3125 -0.5625 -1.953125q-0.5625 -0.640625 -1.828125 -0.640625q-1.171875 0.015625 -1.984375 0.765625q-0.8125 0.734375 -0.90625 1.8125l0 6.515625l-1.09375 0l0 -6.578125q0 -1.265625 -0.59375 -1.890625q-0.578125 -0.625 -1.8125 -0.625q-1.015625 0 -1.765625 0.59375q-0.734375 0.578125 -1.09375 1.734375l0 6.765625l-1.09375 0l0 -9.859375l1.046875 0zm16.533691 0l0.046875 1.609375q0.546875 -0.890625 1.359375 -1.328125q0.828125 -0.453125 1.828125 -0.453125q2.328125 0 2.953125 1.90625q0.53125 -0.921875 1.40625 -1.40625q0.890625 -0.5 1.953125 -0.5q3.171875 0 3.234375 3.453125l0 6.578125l-1.09375 0l0 -6.5q0 -1.3125 -0.5625 -1.953125q-0.5625 -0.640625 -1.828125 -0.640625q-1.171875 0.015625 -1.984375 0.765625q-0.8125 0.734375 -0.90625 1.8125l0 6.515625l-1.09375 0l0 -6.578125q0 -1.265625 -0.59375 -1.890625q-0.578125 -0.625 -1.8125 -0.625q-1.015625 0 -1.765625 0.59375q-0.734375 0.578125 -1.09375 1.734375l0 6.765625l-1.09375 0l0 -9.859375l1.046875 0zm21.768188 9.859375q-0.15625 -0.46875 -0.203125 -1.375q-0.578125 0.75 -1.46875 1.15625q-0.890625 0.40625 -1.875 0.40625q-1.421875 0 -2.3125 -0.796875q-0.875 -0.796875 -0.875 -2.0q0 -1.4375 1.203125 -2.28125q1.203125 -0.84375 3.34375 -0.84375l1.96875 0l0 -1.109375q0 -1.0625 -0.65625 -1.671875q-0.640625 -0.609375 -1.890625 -0.609375q-1.140625 0 -1.890625 0.59375q-0.75 0.578125 -0.75 1.40625l-1.09375 -0.015625q0 -1.171875 1.09375 -2.03125q1.09375 -0.859375 2.6875 -0.859375q1.65625 0 2.609375 0.828125q0.953125 0.8125 0.984375 2.28125l0 4.671875q0 1.4375 0.296875 2.140625l0 0.109375l-1.171875 0zm-3.421875 -0.78125q1.09375 0 1.953125 -0.53125q0.859375 -0.53125 1.25 -1.40625l0 -2.171875l-1.953125 0q-1.625 0.015625 -2.546875 0.59375q-0.921875 0.578125 -0.921875 1.59375q0 0.828125 0.609375 1.375q0.625 0.546875 1.609375 0.546875zm8.227417 -9.078125l0.046875 1.6875q0.546875 -0.90625 1.375 -1.375q0.828125 -0.484375 1.84375 -0.484375q1.578125 0 2.34375 0.890625q0.78125 0.890625 0.796875 2.671875l0 6.46875l-1.09375 0l0 -6.484375q0 -1.3125 -0.5625 -1.953125q-0.546875 -0.65625 -1.75 -0.65625q-1.015625 0 -1.796875 0.640625q-0.78125 0.625 -1.15625 1.703125l0 6.75l-1.078125 0l0 -9.859375l1.03125 0zm8.779419 4.84375q0 -2.296875 1.015625 -3.65625q1.03125 -1.359375 2.796875 -1.359375q1.984375 0 3.03125 1.5625l0 -5.53125l1.09375 0l0 14.0l-1.03125 0l-0.03125 -1.3125q-1.046875 1.5 -3.09375 1.5q-1.703125 0 -2.75 -1.375q-1.03125 -1.375 -1.03125 -3.703125l0 -0.125zm1.109375 0.1875q0 1.890625 0.75 2.984375q0.75 1.078125 2.125 1.078125q2.015625 0 2.859375 -1.78125l0 -4.625q-0.84375 -1.921875 -2.84375 -1.921875q-1.375 0 -2.140625 1.078125q-0.75 1.078125 -0.75 3.1875zm15.450073 4.828125l-1.09375 0l0 -14.0l1.09375 0l0 14.0zm4.1812744 0l-1.09375 0l0 -9.859375l1.09375 0l0 9.859375zm-1.28125 -12.703125q0 -0.3125 0.203125 -0.53125q0.203125 -0.21875 0.546875 -0.21875q0.34375 0 0.546875 0.21875q0.203125 0.21875 0.203125 0.53125q0 0.3125 -0.203125 0.515625q-0.203125 0.203125 -0.546875 0.203125q-0.34375 0 -0.546875 -0.203125q-0.203125 -0.203125 -0.203125 -0.515625zm5.2750244 2.84375l0.046875 1.6875q0.546875 -0.90625 1.375 -1.375q0.828125 -0.484375 1.84375 -0.484375q1.578125 0 2.34375 0.890625q0.78125 0.890625 0.796875 2.671875l0 6.46875l-1.09375 0l0 -6.484375q0 -1.3125 -0.5625 -1.953125q-0.546875 -0.65625 -1.75 -0.65625q-1.015625 0 -1.796875 0.640625q-0.78125 0.625 -1.15625 1.703125l0 6.75l-1.078125 0l0 -9.859375l1.03125 0zm13.029419 10.046875q-1.25 0 -2.265625 -0.625q-1.015625 -0.625 -1.59375 -1.71875q-0.5625 -1.109375 -0.5625 -2.484375l0 -0.390625q0 -1.421875 0.546875 -2.5625q0.5625 -1.140625 1.546875 -1.78125q0.984375 -0.65625 2.125 -0.65625q1.796875 0 2.84375 1.21875q1.0625 1.21875 1.0625 3.34375l0 0.609375l-7.03125 0l0 0.21875q0 1.671875 0.953125 2.796875q0.96875 1.109375 2.421875 1.109375q0.875 0 1.546875 -0.3125q0.671875 -0.328125 1.21875 -1.03125l0.6875 0.515625q-1.203125 1.75 -3.5 1.75zm-0.203125 -9.296875q-1.21875 0 -2.0625 0.90625q-0.84375 0.890625 -1.03125 2.421875l5.921875 0l0 -0.125q-0.046875 -1.421875 -0.8125 -2.3125q-0.765625 -0.890625 -2.015625 -0.890625z" fill-rule="nonzero"/><path fill="#ffffff" d="m988.4042 360.55774l282.48816 0l0 187.84253l-282.48816 0z" fill-rule="evenodd"/><path stroke="#999999" stroke-width="1.0" stroke-linejoin="round" stroke-linecap="butt" stroke-dasharray="4.0,3.0" d="m988.4042 360.55774l282.48816 0l0 187.84253l-282.48816 0z" fill-rule="evenodd"/><path fill="#d9ead3" d="m1013.18634 435.7362l0 0c0 -22.169647 17.972107 -40.141724 40.141785 -40.141724l154.04724 0l0 0c10.64624 0 20.856445 4.2292175 28.3844 11.757233c7.528076 7.5280457 11.757324 17.73825 11.757324 28.384491l0 0l0 0c0 22.169678 -17.972046 40.141754 -40.141724 40.141754l-154.04724 0c-22.169678 0 -40.141785 -17.972076 -40.141785 -40.141754z" fill-rule="evenodd"/><path fill="#000000" d="m1111.6134 439.84372l2.09375 -7.046875l2.28125 0l-3.421875 9.859375l-1.921875 0l-3.4375 -9.859375l2.296875 0l2.109375 7.046875zm8.52478 -9.4375l0 2.390625l1.734375 0l0 1.640625l-1.734375 0l0 5.5q0 0.5625 0.21875 0.8125q0.234375 0.25 0.796875 0.25q0.390625 0 0.78125 -0.078125l0 1.703125q-0.75 0.21875 -1.453125 0.21875q-2.5625 0 -2.5625 -2.8125l0 -5.59375l-1.609375 0l0 -1.640625l1.609375 0l0 -2.390625l2.21875 0zm7.4848633 10.671875q0.828125 0 1.375 -0.484375q0.546875 -0.484375 0.578125 -1.203125l2.09375 0q-0.046875 0.921875 -0.59375 1.71875q-0.53125 0.796875 -1.453125 1.265625q-0.90625 0.46875 -1.984375 0.46875q-2.0625 0 -3.28125 -1.34375q-1.203125 -1.34375 -1.203125 -3.703125l0 -0.21875q0 -2.25 1.203125 -3.59375q1.203125 -1.359375 3.28125 -1.359375q1.75 0 2.859375 1.03125q1.109375 1.015625 1.171875 2.671875l-2.09375 0q-0.03125 -0.84375 -0.578125 -1.390625q-0.546875 -0.546875 -1.375 -0.546875q-1.078125 0 -1.671875 0.78125q-0.578125 0.78125 -0.578125 2.359375l0 0.359375q0 1.609375 0.578125 2.40625q0.578125 0.78125 1.671875 0.78125zm8.484131 -10.671875l0 2.390625l1.734375 0l0 1.640625l-1.734375 0l0 5.5q0 0.5625 0.21875 0.8125q0.234375 0.25 0.796875 0.25q0.390625 0 0.78125 -0.078125l0 1.703125q-0.75 0.21875 -1.453125 0.21875q-2.5625 0 -2.5625 -2.8125l0 -5.59375l-1.609375 0l0 -1.640625l1.609375 0l0 -2.390625l2.21875 0zm5.7817383 12.25l-2.203125 0l0 -14.0l2.203125 0l0 14.0zm1.9986572 -5.0q0 -2.28125 1.046875 -3.65625q1.0625 -1.375 2.84375 -1.375q1.5625 0 2.53125 1.078125l0 -5.046875l2.21875 0l0 14.0l-2.015625 0l-0.109375 -1.015625q-0.984375 1.203125 -2.640625 1.203125q-1.734375 0 -2.8125 -1.390625q-1.0625 -1.40625 -1.0625 -3.796875zm2.21875 0.1875q0 1.5 0.578125 2.34375q0.578125 0.84375 1.640625 0.84375q1.359375 0 1.984375 -1.203125l0 -4.21875q-0.609375 -1.171875 -1.96875 -1.171875q-1.078125 0 -1.65625 0.859375q-0.578125 0.84375 -0.578125 2.546875z" fill-rule="nonzero"/><path fill="#000000" fill-opacity="0.0" d="m988.73755 506.01706l173.38586 0l0 42.48819l-173.38586 0z" fill-rule="evenodd"/><path fill="#000000" d="m1008.98755 531.35895q-0.578125 0.828125 -1.828125 1.296875q-1.234375 0.46875 -2.78125 0.46875q-1.5625 0 -2.78125 -0.75q-1.203125 -0.75 -1.875 -2.109375q-0.65625 -1.375 -0.65625 -3.140625l0 -1.671875q0 -2.765625 1.390625 -4.359375q1.390625 -1.609375 3.734375 -1.609375q2.0625 0 3.296875 1.046875q1.25 1.046875 1.484375 2.875l-1.109375 0q-0.25 -1.453125 -1.203125 -2.203125q-0.9375 -0.75 -2.453125 -0.75q-1.859375 0 -2.953125 1.328125q-1.078125 1.3125 -1.078125 3.71875l0 1.5625q0 1.515625 0.515625 2.671875q0.515625 1.15625 1.46875 1.796875q0.96875 0.640625 2.21875 0.640625q1.453125 0 2.484375 -0.453125q0.671875 -0.296875 1.0 -0.703125l0 -3.421875l-3.5625 0l0 -0.953125l4.6875 0l0 4.71875zm12.315796 -11.6875l0 9.0625q-0.015625 1.328125 -0.59375 2.328125q-0.578125 0.984375 -1.640625 1.53125q-1.0625 0.53125 -2.4375 0.53125q-2.09375 0 -3.359375 -1.140625q-1.265625 -1.15625 -1.3125 -3.171875l0 -9.140625l1.125 0l0 8.96875q0 1.6875 0.953125 2.609375q0.953125 0.921875 2.59375 0.921875q1.640625 0 2.59375 -0.921875q0.953125 -0.9375 0.953125 -2.59375l0 -8.984375l1.125 0zm4.4957275 13.265625l-1.125 0l0 -13.265625l1.125 0l0 13.265625z" fill-rule="nonzero"/><path fill="#000000" fill-opacity="0.0" d="m1013.18634 183.85432l-94.77545 0l0 83.71654l-94.76782 0" fill-rule="evenodd"/><path stroke="#000000" stroke-width="1.0" stroke-linejoin="round" stroke-linecap="butt" d="m1013.18634 183.85432l-94.77539 0l0 83.71654l-88.76788 0" fill-rule="evenodd"/><path fill="#000000" stroke="#000000" stroke-width="1.0" stroke-linecap="butt" d="m829.64307 265.91913l-4.538147 1.6517334l4.538147 1.6517334z" fill-rule="evenodd"/><path fill="#000000" fill-opacity="0.0" d="m875.06036 204.4685l125.7323 0l0 42.48819l-125.7323 0z" fill-rule="evenodd"/><path fill="#d9d9d9" d="m884.06036 213.4685l66.56909 0l0 16.0l-66.56909 0l0 -16.0z" fill-rule="nonzero"/><path fill="#000000" fill-opacity="0.0" d="m884.06036 213.90355l66.56909 0l0 15.6188965l-66.56909 0l0 -15.6188965z" fill-rule="nonzero"/><path fill="#000000" d="m887.68536 225.73726q0.8125 0 1.359375 -0.453125q0.546875 -0.453125 0.59375 -1.1875l0.75 0q-0.03125 0.640625 -0.40625 1.171875q-0.375 0.53125 -0.984375 0.828125q-0.609375 0.296875 -1.3125 0.296875q-1.390625 0 -2.203125 -0.953125q-0.8125 -0.96875 -0.8125 -2.59375l0 -0.234375q0 -1.046875 0.359375 -1.84375q0.375 -0.796875 1.046875 -1.234375q0.6875 -0.4375 1.59375 -0.4375q1.15625 0 1.90625 0.6875q0.765625 0.6875 0.8125 1.8125l-0.75 0q-0.046875 -0.828125 -0.59375 -1.328125q-0.546875 -0.515625 -1.375 -0.515625q-1.046875 0 -1.640625 0.765625q-0.578125 0.765625 -0.578125 2.140625l0 0.21875q0 1.359375 0.578125 2.109375q0.59375 0.75 1.65625 0.75zm3.8189697 -3.09375q0 -1.015625 0.390625 -1.828125q0.40625 -0.8125 1.125 -1.265625q0.71875 -0.453125 1.625 -0.453125q1.40625 0 2.28125 0.984375q0.875 0.984375 0.875 2.609375l0 0.171875q0 1.015625 -0.40625 1.84375q-0.390625 0.8125 -1.109375 1.25q-0.703125 0.4375 -1.625 0.4375q-1.390625 0 -2.28125 -0.984375q-0.875 -0.984375 -0.875 -2.609375l0 -0.15625zm0.78125 0.21875q0 1.265625 0.65625 2.078125q0.65625 0.796875 1.71875 0.796875q1.0625 0 1.703125 -0.796875q0.65625 -0.8125 0.65625 -2.140625l0 -0.15625q0 -0.8125 -0.296875 -1.46875q-0.296875 -0.671875 -0.84375 -1.046875q-0.53125 -0.375 -1.234375 -0.375q-1.03125 0 -1.703125 0.828125q-0.65625 0.8125 -0.65625 2.140625l0 0.140625zm7.8239136 -3.640625l0.03125 1.15625q0.390625 -0.640625 0.96875 -0.953125q0.59375 -0.328125 1.3125 -0.328125q1.65625 0 2.109375 1.359375q0.375 -0.65625 1.0 -1.0q0.640625 -0.359375 1.40625 -0.359375q2.265625 0 2.3125 2.46875l0 4.703125l-0.78125 0l0 -4.640625q-0.015625 -0.9375 -0.421875 -1.390625q-0.390625 -0.46875 -1.296875 -0.46875q-0.84375 0.015625 -1.421875 0.546875q-0.578125 0.53125 -0.640625 1.296875l0 4.65625l-0.78125 0l0 -4.703125q0 -0.90625 -0.421875 -1.34375q-0.421875 -0.453125 -1.296875 -0.453125q-0.734375 0 -1.265625 0.421875q-0.515625 0.421875 -0.78125 1.25l0 4.828125l-0.78125 0l0 -7.046875l0.75 0zm11.811768 0l0.03125 1.15625q0.390625 -0.640625 0.96875 -0.953125q0.59375 -0.328125 1.3125 -0.328125q1.65625 0 2.109375 1.359375q0.375 -0.65625 1.0 -1.0q0.640625 -0.359375 1.40625 -0.359375q2.265625 0 2.3125 2.46875l0 4.703125l-0.78125 0l0 -4.640625q-0.015625 -0.9375 -0.421875 -1.390625q-0.390625 -0.46875 -1.296875 -0.46875q-0.84375 0.015625 -1.421875 0.546875q-0.578125 0.53125 -0.640625 1.296875l0 4.65625l-0.78125 0l0 -4.703125q0 -0.90625 -0.421875 -1.34375q-0.421875 -0.453125 -1.296875 -0.453125q-0.734375 0 -1.265625 0.421875q-0.515625 0.421875 -0.78125 1.25l0 4.828125l-0.78125 0l0 -7.046875l0.75 0zm15.546204 7.046875q-0.109375 -0.328125 -0.140625 -0.984375q-0.40625 0.53125 -1.046875 0.828125q-0.640625 0.28125 -1.34375 0.28125q-1.015625 0 -1.640625 -0.5625q-0.625 -0.5625 -0.625 -1.4375q0 -1.015625 0.84375 -1.609375q0.859375 -0.609375 2.390625 -0.609375l1.40625 0l0 -0.796875q0 -0.765625 -0.46875 -1.1875q-0.453125 -0.4375 -1.34375 -0.4375q-0.8125 0 -1.359375 0.421875q-0.53125 0.40625 -0.53125 1.0l-0.78125 -0.015625q0 -0.828125 0.78125 -1.4375q0.78125 -0.625 1.921875 -0.625q1.1875 0 1.859375 0.59375q0.6875 0.578125 0.703125 1.640625l0 3.328125q0 1.03125 0.21875 1.53125l0 0.078125l-0.84375 0zm-2.4375 -0.5625q0.78125 0 1.390625 -0.375q0.625 -0.375 0.890625 -1.015625l0 -1.546875l-1.390625 0q-1.15625 0.015625 -1.8125 0.4375q-0.65625 0.40625 -0.65625 1.125q0 0.59375 0.4375 0.984375q0.4375 0.390625 1.140625 0.390625zm5.873474 -6.484375l0.03125 1.203125q0.40625 -0.640625 0.984375 -0.984375q0.59375 -0.34375 1.3125 -0.34375q1.140625 0 1.6875 0.640625q0.546875 0.640625 0.5625 1.90625l0 4.625l-0.78125 0l0 -4.625q0 -0.953125 -0.40625 -1.40625q-0.390625 -0.46875 -1.25 -0.46875q-0.71875 0 -1.28125 0.453125q-0.546875 0.453125 -0.8125 1.21875l0 4.828125l-0.78125 0l0 -7.046875l0.734375 0zm6.274536 3.46875q0 -1.640625 0.734375 -2.609375q0.734375 -0.984375 1.984375 -0.984375q1.421875 0 2.171875 1.125l0 -3.953125l0.78125 0l0 10.0l-0.734375 0l-0.03125 -0.9375q-0.75 1.0625 -2.203125 1.0625q-1.21875 0 -1.96875 -0.96875q-0.734375 -0.984375 -0.734375 -2.65625l0 -0.078125zm0.78125 0.125q0 1.34375 0.546875 2.125q0.546875 0.78125 1.515625 0.78125q1.4375 0 2.046875 -1.265625l0 -3.3125q-0.609375 -1.375 -2.03125 -1.375q-0.984375 0 -1.53125 0.78125q-0.546875 0.765625 -0.546875 2.265625zm11.155945 1.65625q0 -0.578125 -0.46875 -0.921875q-0.46875 -0.359375 -1.40625 -0.546875q-0.9375 -0.203125 -1.453125 -0.453125q-0.515625 -0.265625 -0.765625 -0.625q-0.25 -0.375 -0.25 -0.90625q0 -0.828125 0.6875 -1.375q0.703125 -0.546875 1.796875 -0.546875q1.171875 0 1.875 0.59375q0.71875 0.578125 0.71875 1.515625l-0.78125 0q0 -0.625 -0.515625 -1.03125q-0.515625 -0.421875 -1.296875 -0.421875q-0.765625 0 -1.234375 0.34375q-0.46875 0.34375 -0.46875 0.890625q0 0.53125 0.390625 0.828125q0.390625 0.28125 1.40625 0.53125q1.03125 0.234375 1.53125 0.515625q0.515625 0.265625 0.765625 0.65625q0.25 0.375 0.25 0.921875q0 0.890625 -0.71875 1.421875q-0.71875 0.53125 -1.875 0.53125q-1.234375 0 -2.0 -0.59375q-0.765625 -0.59375 -0.765625 -1.5l0.78125 0q0.046875 0.6875 0.578125 1.0625q0.53125 0.375 1.40625 0.375q0.8125 0 1.3125 -0.359375q0.5 -0.359375 0.5 -0.90625z" fill-rule="nonzero"/><path fill="#000000" fill-opacity="0.0" d="m950.62946 213.90355l0 0l0 15.6188965l0 0l0 -15.6188965z" fill-rule="nonzero"/><path fill="#000000" fill-opacity="0.0" d="m1013.18634 435.7362l-94.77167 0l0 -131.77951l-94.77161 0" fill-rule="evenodd"/><path stroke="#000000" stroke-width="1.0" stroke-linejoin="round" stroke-linecap="butt" d="m1013.18634 435.7362l-94.77167 0l0 -131.77951l-88.77161 0" fill-rule="evenodd"/><path fill="#000000" stroke="#000000" stroke-width="1.0" stroke-linecap="butt" d="m829.64307 302.30496l-4.538147 1.6517334l4.538147 1.6517334z" fill-rule="evenodd"/><path fill="#ffffff" d="m289.97375 416.52625l0 0c0 -8.239746E-4 6.713867E-4 -0.0014953613 0.0014953613 -0.0014953613l181.22684 0.0014953613c4.272461E-4 0 7.9345703E-4 1.5258789E-4 0.0010681152 4.5776367E-4c3.0517578E-4 2.746582E-4 4.5776367E-4 6.4086914E-4 4.5776367E-4 0.0010681152l-0.0015258789 274.86462c0 8.544922E-4 -6.713867E-4 0.0015258789 -0.0014953613 0.0015258789l-181.22684 -0.0015258789l0 0c-8.239746E-4 0 -0.0015258789 -6.713867E-4 -0.0015258789 -0.0015258789z" fill-rule="evenodd"/><path stroke="#cccccc" stroke-width="1.0" stroke-linejoin="round" stroke-linecap="butt" stroke-dasharray="4.0,3.0" d="m289.97375 416.52625l0 0c0 -8.239746E-4 6.713867E-4 -0.0014953613 0.0014953613 -0.0014953613l181.22684 0.0014953613c4.272461E-4 0 7.9345703E-4 1.5258789E-4 0.0010681152 4.5776367E-4c3.0517578E-4 2.746582E-4 4.5776367E-4 6.4086914E-4 4.5776367E-4 0.0010681152l-0.0015258789 274.86462c0 8.544922E-4 -6.713867E-4 0.0015258789 -0.0014953613 0.0015258789l-181.22684 -0.0015258789l0 0c-8.239746E-4 0 -0.0015258789 -6.713867E-4 -0.0015258789 -0.0015258789z" fill-rule="evenodd"/><path fill="#cfe2f3" d="m310.6509 444.30075l0 0c0 -5.934662 4.810974 -10.745636 10.745636 -10.745636l118.38278 0c2.8499146 0 5.5830994 1.1321411 7.598297 3.1473083c2.0151978 2.0151978 3.1473083 4.748413 3.1473083 7.5983276l0 42.9812c0 5.9346313 -4.810974 10.745605 -10.745605 10.745605l-118.38278 0c-5.934662 0 -10.745636 -4.810974 -10.745636 -10.745605z" fill-rule="evenodd"/><path fill="#000000" d="m349.15024 469.8207l3.375 -10.375l2.53125 0l-4.765625 13.265625l-2.234375 0l-4.765625 -13.265625l2.53125 0l3.328125 10.375zm16.991974 -8.515625l-4.140625 0l0 11.40625l-2.28125 0l0 -11.40625l-4.109375 0l0 -1.859375l10.53125 0l0 1.859375zm11.468933 0l-4.140625 0l0 11.40625l-2.28125 0l0 -11.40625l-4.109375 0l0 -1.859375l10.53125 0l0 1.859375zm5.8699646 11.40625q-0.140625 -0.28125 -0.25 -0.921875q-1.046875 1.109375 -2.578125 1.109375q-1.484375 0 -2.4375 -0.84375q-0.9375 -0.859375 -0.9375 -2.109375q0 -1.578125 1.171875 -2.40625q1.171875 -0.84375 3.359375 -0.84375l1.359375 0l0 -0.65625q0 -0.765625 -0.4375 -1.21875q-0.421875 -0.46875 -1.296875 -0.46875q-0.765625 0 -1.25 0.390625q-0.46875 0.375 -0.46875 0.953125l-2.21875 0q0 -0.8125 0.53125 -1.515625q0.546875 -0.703125 1.46875 -1.09375q0.921875 -0.40625 2.0625 -0.40625q1.734375 0 2.75 0.875q1.03125 0.859375 1.0625 2.4375l0 4.4375q0 1.328125 0.375 2.125l0 0.15625l-2.265625 0zm-2.421875 -1.59375q0.65625 0 1.234375 -0.3125q0.578125 -0.328125 0.875 -0.859375l0 -1.859375l-1.203125 0q-1.234375 0 -1.859375 0.4375q-0.609375 0.421875 -0.609375 1.203125q0 0.640625 0.421875 1.015625q0.421875 0.375 1.140625 0.375zm15.280823 -3.234375q0 2.296875 -1.03125 3.65625q-1.015625 1.359375 -2.8125 1.359375q-1.734375 0 -2.6875 -1.25l-0.109375 1.0625l-2.015625 0l0 -14.0l2.21875 0l0 5.09375q0.953125 -1.125 2.578125 -1.125q1.796875 0 2.828125 1.34375q1.03125 1.328125 1.03125 3.734375l0 0.125zm-2.21875 -0.1875q0 -1.609375 -0.5625 -2.40625q-0.5625 -0.796875 -1.640625 -0.796875q-1.4375 0 -2.015625 1.25l0 4.0625q0.59375 1.28125 2.046875 1.28125q1.03125 0 1.59375 -0.765625q0.5625 -0.78125 0.578125 -2.34375l0 -0.28125zm6.4251404 5.015625l-2.203125 0l0 -14.0l2.203125 0l0 14.0zm6.7486267 0.1875q-2.09375 0 -3.40625 -1.328125q-1.3125 -1.328125 -1.3125 -3.53125l0 -0.28125q0 -1.46875 0.5625 -2.625q0.578125 -1.171875 1.609375 -1.8125q1.03125 -0.640625 2.296875 -0.640625q2.015625 0 3.109375 1.28125q1.09375 1.28125 1.09375 3.625l0 0.890625l-6.4375 0q0.109375 1.234375 0.8125 1.953125q0.71875 0.703125 1.8125 0.703125q1.515625 0 2.46875 -1.234375l1.203125 1.140625q-0.59375 0.875 -1.59375 1.375q-0.984375 0.484375 -2.21875 0.484375zm-0.265625 -8.453125q-0.90625 0 -1.46875 0.640625q-0.5625 0.640625 -0.703125 1.78125l4.203125 0l0 -0.171875q-0.0625 -1.109375 -0.59375 -1.671875q-0.515625 -0.578125 -1.4375 -0.578125zm8.714478 -3.984375l0 2.390625l1.734375 0l0 1.640625l-1.734375 0l0 5.5q0 0.5625 0.21875 0.8125q0.234375 0.25 0.796875 0.25q0.390625 0 0.78125 -0.078125l0 1.703125q-0.75 0.21875 -1.453125 0.21875q-2.5625 0 -2.5625 -2.8125l0 -5.59375l-1.609375 0l0 -1.640625l1.609375 0l0 -2.390625l2.21875 0z" fill-rule="nonzero"/><path fill="#ffe599" d="m310.6509 599.9733l0 0c0 -7.9484863 31.31186 -14.391968 69.93701 -14.391968c38.625153 0 69.93701 6.4434814 69.93701 14.391968l0 57.56781c0 7.9484253 -31.31186 14.391907 -69.93701 14.391907c-38.625153 0 -69.93701 -6.4434814 -69.93701 -14.391907z" fill-rule="evenodd"/><path fill="#000000" fill-opacity="0.0" d="m450.52493 599.9733l0 0c0 7.9484253 -31.31186 14.391968 -69.93701 14.391968c-38.625153 0 -69.93701 -6.4435425 -69.93701 -14.391968" fill-rule="evenodd"/><path fill="#000000" fill-opacity="0.0" d="m310.6509 599.9733l0 0c0 -7.9484863 31.31186 -14.391968 69.93701 -14.391968c38.625153 0 69.93701 6.4434814 69.93701 14.391968l0 57.56781c0 7.9484253 -31.31186 14.391907 -69.93701 14.391907c-38.625153 0 -69.93701 -6.4434814 -69.93701 -14.391907z" fill-rule="evenodd"/><path stroke="#ffffff" stroke-width="1.0" stroke-linejoin="round" stroke-linecap="butt" d="m450.52493 599.9733l0 0c0 7.9484253 -31.31186 14.391968 -69.93701 14.391968c-38.625153 0 -69.93701 -6.4435425 -69.93701 -14.391968" fill-rule="evenodd"/><path stroke="#ffffff" stroke-width="1.0" stroke-linejoin="round" stroke-linecap="butt" d="m310.6509 599.9733l0 0c0 -7.9484863 31.31186 -14.391968 69.93701 -14.391968c38.625153 0 69.93701 6.4434814 69.93701 14.391968l0 57.56781c0 7.9484253 -31.31186 14.391907 -69.93701 14.391907c-38.625153 0 -69.93701 -6.4434814 -69.93701 -14.391907z" fill-rule="evenodd"/><path fill="#000000" d="m355.10718 629.60754l3.8125 10.171875l3.828125 -10.171875l2.96875 0l0 13.265625l-2.296875 0l0 -4.375l0.234375 -5.84375l-3.921875 10.21875l-1.640625 0l-3.90625 -10.21875l0.21875 5.84375l0 4.375l-2.296875 0l0 -13.265625l3.0 0zm16.567719 10.09375l2.015625 -6.6875l2.359375 0l-3.921875 11.359375q-0.90625 2.484375 -3.0625 2.484375q-0.484375 0 -1.0625 -0.171875l0 -1.703125l0.421875 0.015625q0.828125 0 1.25 -0.3125q0.421875 -0.296875 0.671875 -1.015625l0.328125 -0.84375l-3.46875 -9.8125l2.390625 0l2.078125 6.6875zm12.785278 -0.25q0 -0.875 -0.625 -1.34375q-0.609375 -0.46875 -2.21875 -0.953125q-1.59375 -0.484375 -2.546875 -1.078125q-1.8125 -1.140625 -1.8125 -2.96875q0 -1.609375 1.3125 -2.640625q1.3125 -1.046875 3.390625 -1.046875q1.390625 0 2.46875 0.515625q1.09375 0.515625 1.703125 1.453125q0.625 0.9375 0.625 2.09375l-2.296875 0q0 -1.046875 -0.65625 -1.625q-0.640625 -0.59375 -1.859375 -0.59375q-1.125 0 -1.75 0.484375q-0.625 0.484375 -0.625 1.34375q0 0.734375 0.671875 1.21875q0.671875 0.484375 2.21875 0.953125q1.546875 0.453125 2.484375 1.046875q0.9375 0.59375 1.375 1.359375q0.4375 0.75 0.4375 1.765625q0 1.65625 -1.265625 2.640625q-1.265625 0.984375 -3.453125 0.984375q-1.4375 0 -2.640625 -0.53125q-1.203125 -0.546875 -1.875 -1.484375q-0.671875 -0.9375 -0.671875 -2.1875l2.3125 0q0 1.140625 0.734375 1.765625q0.75 0.609375 2.140625 0.609375q1.203125 0 1.8125 -0.484375q0.609375 -0.484375 0.609375 -1.296875zm14.868713 -2.859375q0 1.875 -0.609375 3.265625q-0.59375 1.375 -1.65625 2.1875l2.265625 1.78125l-1.484375 1.34375l-2.828125 -2.234375q-0.5625 0.125 -1.1875 0.125q-1.609375 0 -2.875 -0.78125q-1.25 -0.796875 -1.9375 -2.25q-0.6875 -1.46875 -0.703125 -3.375l0 -0.734375q0 -1.953125 0.6875 -3.4375q0.6875 -1.484375 1.9375 -2.265625q1.25 -0.796875 2.875 -0.796875q1.625 0 2.875 0.78125q1.265625 0.78125 1.9375 2.25q0.6875 1.453125 0.703125 3.40625l0 0.734375zm-2.3125 -0.703125q0 -2.234375 -0.84375 -3.390625q-0.84375 -1.15625 -2.359375 -1.15625q-1.5 0 -2.34375 1.171875q-0.828125 1.171875 -0.859375 3.296875l0 0.78125q0 2.140625 0.84375 3.359375q0.84375 1.203125 2.375 1.203125q1.53125 0 2.359375 -1.15625q0.828125 -1.171875 0.828125 -3.40625l0 -0.703125zm6.958954 5.140625l6.015625 0l0 1.84375l-8.328125 0l0 -13.265625l2.3125 0l0 11.421875z" fill-rule="nonzero"/><path fill="#000000" fill-opacity="0.0" d="m380.58792 585.58136l0 -87.55905" fill-rule="evenodd"/><path stroke="#000000" stroke-width="1.0" stroke-linejoin="round" stroke-linecap="butt" d="m380.58792 579.58136l0 -75.55905" fill-rule="evenodd"/><path fill="#000000" stroke="#000000" stroke-width="1.0" stroke-linecap="butt" d="m378.9362 579.58136l1.6517334 4.538086l1.6517334 -4.538086z" fill-rule="evenodd"/><path fill="#000000" stroke="#000000" stroke-width="1.0" stroke-linecap="butt" d="m382.23965 504.0223l-1.6517334 -4.538086l-1.6517334 4.538086z" fill-rule="evenodd"/><path fill="#000000" fill-opacity="0.0" d="m328.55923 521.77295l77.700806 0l0 40.06299l-77.700806 0z" fill-rule="evenodd"/><path fill="#000000" d="m344.12173 541.2448q0 -0.796875 -0.5625 -1.25q-0.546875 -0.453125 -2.015625 -0.859375q-1.46875 -0.421875 -2.15625 -0.90625q-0.953125 -0.703125 -0.953125 -1.8125q0 -1.09375 0.890625 -1.765625q0.890625 -0.6875 2.28125 -0.6875q0.953125 0 1.6875 0.375q0.75 0.359375 1.15625 1.015625q0.421875 0.640625 0.421875 1.4375l-0.8125 0q0 -0.96875 -0.671875 -1.546875q-0.65625 -0.59375 -1.78125 -0.59375q-1.078125 0 -1.734375 0.484375q-0.640625 0.484375 -0.640625 1.265625q0 0.71875 0.578125 1.1875q0.59375 0.453125 1.859375 0.796875q1.28125 0.34375 1.9375 0.71875q0.65625 0.375 0.984375 0.90625q0.328125 0.515625 0.328125 1.21875q0 1.125 -0.890625 1.796875q-0.890625 0.671875 -2.359375 0.671875q-1.0 0 -1.84375 -0.34375q-0.828125 -0.359375 -1.265625 -1.0q-0.421875 -0.65625 -0.421875 -1.484375l0.796875 0q0 1.0 0.75 1.578125q0.75 0.578125 1.984375 0.578125q1.109375 0 1.78125 -0.484375q0.671875 -0.484375 0.671875 -1.296875zm5.0659485 2.453125q-0.890625 0 -1.625 -0.4375q-0.71875 -0.4375 -1.125 -1.234375q-0.40625 -0.796875 -0.40625 -1.765625l0 -0.28125q0 -1.015625 0.390625 -1.828125q0.40625 -0.8125 1.109375 -1.28125q0.703125 -0.46875 1.515625 -0.46875q1.28125 0 2.03125 0.875q0.765625 0.875 0.765625 2.390625l0 0.4375l-5.03125 0l0 0.15625q0 1.1875 0.6875 1.984375q0.6875 0.796875 1.734375 0.796875q0.625 0 1.09375 -0.21875q0.484375 -0.234375 0.875 -0.734375l0.484375 0.375q-0.859375 1.234375 -2.5 1.234375zm-0.140625 -6.640625q-0.875 0 -1.484375 0.65625q-0.59375 0.640625 -0.71875 1.734375l4.21875 0l0 -0.09375q-0.03125 -1.015625 -0.578125 -1.65625q-0.546875 -0.640625 -1.4375 -0.640625zm7.55719 0.140625q-0.25 -0.046875 -0.53125 -0.046875q-0.71875 0 -1.234375 0.40625q-0.5 0.40625 -0.703125 1.1875l0 4.828125l-0.78125 0l0 -7.046875l0.765625 0l0.015625 1.125q0.609375 -1.25 1.984375 -1.25q0.3125 0 0.5 0.078125l-0.015625 0.71875zm3.5386353 5.296875l2.140625 -5.96875l0.8125 0l-2.640625 7.046875l-0.625 0l-2.640625 -7.046875l0.796875 0l2.15625 5.96875zm6.8568726 1.203125q-0.890625 0 -1.625 -0.4375q-0.71875 -0.4375 -1.125 -1.234375q-0.40625 -0.796875 -0.40625 -1.765625l0 -0.28125q0 -1.015625 0.390625 -1.828125q0.40625 -0.8125 1.109375 -1.28125q0.703125 -0.46875 1.515625 -0.46875q1.28125 0 2.03125 0.875q0.765625 0.875 0.765625 2.390625l0 0.4375l-5.03125 0l0 0.15625q0 1.1875 0.6875 1.984375q0.6875 0.796875 1.734375 0.796875q0.625 0 1.09375 -0.21875q0.484375 -0.234375 0.875 -0.734375l0.484375 0.375q-0.859375 1.234375 -2.5 1.234375zm-0.140625 -6.640625q-0.875 0 -1.484375 0.65625q-0.59375 0.640625 -0.71875 1.734375l4.21875 0l0 -0.09375q-0.03125 -1.015625 -0.578125 -1.65625q-0.546875 -0.640625 -1.4375 -0.640625zm7.55719 0.140625q-0.25 -0.046875 -0.53125 -0.046875q-0.71875 0 -1.234375 0.40625q-0.5 0.40625 -0.703125 1.1875l0 4.828125l-0.78125 0l0 -7.046875l0.765625 0l0.015625 1.125q0.609375 -1.25 1.984375 -1.25q0.3125 0 0.5 0.078125l-0.015625 0.71875z" fill-rule="nonzero"/><path fill="#ffffff" d="m516.30444 416.52625l0 0c0 -8.239746E-4 6.713867E-4 -0.0014953613 0.0015258789 -0.0014953613l181.22687 0.0014953613c3.6621094E-4 0 7.324219E-4 1.5258789E-4 0.0010375977 4.5776367E-4c3.0517578E-4 2.746582E-4 4.272461E-4 6.4086914E-4 4.272461E-4 0.0010681152l-0.0014648438 274.86462c0 8.544922E-4 -7.324219E-4 0.0015258789 -0.0015258789 0.0015258789l-181.22687 -0.0015258789l0 0c-7.9345703E-4 0 -0.0014648438 -6.713867E-4 -0.0014648438 -0.0015258789z" fill-rule="evenodd"/><path stroke="#cccccc" stroke-width="1.0" stroke-linejoin="round" stroke-linecap="butt" stroke-dasharray="4.0,3.0" d="m516.30444 416.52625l0 0c0 -8.239746E-4 6.713867E-4 -0.0014953613 0.0015258789 -0.0014953613l181.22687 0.0014953613c3.6621094E-4 0 7.324219E-4 1.5258789E-4 0.0010375977 4.5776367E-4c3.0517578E-4 2.746582E-4 4.272461E-4 6.4086914E-4 4.272461E-4 0.0010681152l-0.0014648438 274.86462c0 8.544922E-4 -7.324219E-4 0.0015258789 -0.0015258789 0.0015258789l-181.22687 -0.0015258789l0 0c-7.9345703E-4 0 -0.0014648438 -6.713867E-4 -0.0014648438 -0.0015258789z" fill-rule="evenodd"/><path fill="#cfe2f3" d="m536.9816 444.30075l0 0c0 -5.934662 4.810974 -10.745636 10.745605 -10.745636l118.38281 0c2.8499146 0 5.583069 1.1321411 7.5982666 3.1473083c2.0151978 2.0151978 3.1473389 4.748413 3.1473389 7.5983276l0 42.9812c0 5.9346313 -4.810974 10.745605 -10.745605 10.745605l-118.38281 0c-5.9346313 0 -10.745605 -4.810974 -10.745605 -10.745605z" fill-rule="evenodd"/><path fill="#000000" d="m575.48096 469.8207l3.375 -10.375l2.53125 0l-4.765625 13.265625l-2.234375 0l-4.765625 -13.265625l2.53125 0l3.328125 10.375zm16.991943 -8.515625l-4.140625 0l0 11.40625l-2.28125 0l0 -11.40625l-4.109375 0l0 -1.859375l10.53125 0l0 1.859375zm11.468933 0l-4.140625 0l0 11.40625l-2.28125 0l0 -11.40625l-4.109375 0l0 -1.859375l10.53125 0l0 1.859375zm5.869995 11.40625q-0.140625 -0.28125 -0.25 -0.921875q-1.046875 1.109375 -2.578125 1.109375q-1.484375 0 -2.4375 -0.84375q-0.9375 -0.859375 -0.9375 -2.109375q0 -1.578125 1.171875 -2.40625q1.171875 -0.84375 3.359375 -0.84375l1.359375 0l0 -0.65625q0 -0.765625 -0.4375 -1.21875q-0.421875 -0.46875 -1.296875 -0.46875q-0.765625 0 -1.25 0.390625q-0.46875 0.375 -0.46875 0.953125l-2.21875 0q0 -0.8125 0.53125 -1.515625q0.546875 -0.703125 1.46875 -1.09375q0.921875 -0.40625 2.0625 -0.40625q1.734375 0 2.75 0.875q1.03125 0.859375 1.0625 2.4375l0 4.4375q0 1.328125 0.375 2.125l0 0.15625l-2.265625 0zm-2.421875 -1.59375q0.65625 0 1.234375 -0.3125q0.578125 -0.328125 0.875 -0.859375l0 -1.859375l-1.203125 0q-1.234375 0 -1.859375 0.4375q-0.609375 0.421875 -0.609375 1.203125q0 0.640625 0.421875 1.015625q0.421875 0.375 1.140625 0.375zm15.280823 -3.234375q0 2.296875 -1.03125 3.65625q-1.015625 1.359375 -2.8125 1.359375q-1.734375 0 -2.6875 -1.25l-0.109375 1.0625l-2.015625 0l0 -14.0l2.21875 0l0 5.09375q0.953125 -1.125 2.578125 -1.125q1.796875 0 2.828125 1.34375q1.03125 1.328125 1.03125 3.734375l0 0.125zm-2.21875 -0.1875q0 -1.609375 -0.5625 -2.40625q-0.5625 -0.796875 -1.640625 -0.796875q-1.4375 0 -2.015625 1.25l0 4.0625q0.59375 1.28125 2.046875 1.28125q1.03125 0 1.59375 -0.765625q0.5625 -0.78125 0.578125 -2.34375l0 -0.28125zm6.42511 5.015625l-2.203125 0l0 -14.0l2.203125 0l0 14.0zm6.748657 0.1875q-2.09375 0 -3.40625 -1.328125q-1.3125 -1.328125 -1.3125 -3.53125l0 -0.28125q0 -1.46875 0.5625 -2.625q0.578125 -1.171875 1.609375 -1.8125q1.03125 -0.640625 2.296875 -0.640625q2.015625 0 3.109375 1.28125q1.09375 1.28125 1.09375 3.625l0 0.890625l-6.4375 0q0.109375 1.234375 0.8125 1.953125q0.71875 0.703125 1.8125 0.703125q1.515625 0 2.46875 -1.234375l1.203125 1.140625q-0.59375 0.875 -1.59375 1.375q-0.984375 0.484375 -2.21875 0.484375zm-0.265625 -8.453125q-0.90625 0 -1.46875 0.640625q-0.5625 0.640625 -0.703125 1.78125l4.203125 0l0 -0.171875q-0.0625 -1.109375 -0.59375 -1.671875q-0.515625 -0.578125 -1.4375 -0.578125zm8.714478 -3.984375l0 2.390625l1.734375 0l0 1.640625l-1.734375 0l0 5.5q0 0.5625 0.21875 0.8125q0.234375 0.25 0.796875 0.25q0.390625 0 0.78125 -0.078125l0 1.703125q-0.75 0.21875 -1.453125 0.21875q-2.5625 0 -2.5625 -2.8125l0 -5.59375l-1.609375 0l0 -1.640625l1.609375 0l0 -2.390625l2.21875 0z" fill-rule="nonzero"/><path fill="#ffe599" d="m536.9816 599.9733l0 0c0 -7.9484863 31.31189 -14.391968 69.93701 -14.391968c38.625122 0 69.93701 6.4434814 69.93701 14.391968l0 57.56781c0 7.9484253 -31.31189 14.391907 -69.93701 14.391907c-38.625122 0 -69.93701 -6.4434814 -69.93701 -14.391907z" fill-rule="evenodd"/><path fill="#000000" fill-opacity="0.0" d="m676.85565 599.9733l0 0c0 7.9484253 -31.31189 14.391968 -69.93701 14.391968c-38.625122 0 -69.93701 -6.4435425 -69.93701 -14.391968" fill-rule="evenodd"/><path fill="#000000" fill-opacity="0.0" d="m536.9816 599.9733l0 0c0 -7.9484863 31.31189 -14.391968 69.93701 -14.391968c38.625122 0 69.93701 6.4434814 69.93701 14.391968l0 57.56781c0 7.9484253 -31.31189 14.391907 -69.93701 14.391907c-38.625122 0 -69.93701 -6.4434814 -69.93701 -14.391907z" fill-rule="evenodd"/><path stroke="#ffffff" stroke-width="1.0" stroke-linejoin="round" stroke-linecap="butt" d="m676.85565 599.9733l0 0c0 7.9484253 -31.31189 14.391968 -69.93701 14.391968c-38.625122 0 -69.93701 -6.4435425 -69.93701 -14.391968" fill-rule="evenodd"/><path stroke="#ffffff" stroke-width="1.0" stroke-linejoin="round" stroke-linecap="butt" d="m536.9816 599.9733l0 0c0 -7.9484863 31.31189 -14.391968 69.93701 -14.391968c38.625122 0 69.93701 6.4434814 69.93701 14.391968l0 57.56781c0 7.9484253 -31.31189 14.391907 -69.93701 14.391907c-38.625122 0 -69.93701 -6.4434814 -69.93701 -14.391907z" fill-rule="evenodd"/><path fill="#000000" d="m581.43787 629.60754l3.8125 10.171875l3.828125 -10.171875l2.96875 0l0 13.265625l-2.296875 0l0 -4.375l0.234375 -5.84375l-3.921875 10.21875l-1.640625 0l-3.90625 -10.21875l0.21875 5.84375l0 4.375l-2.296875 0l0 -13.265625l3.0 0zm16.567749 10.09375l2.015625 -6.6875l2.359375 0l-3.921875 11.359375q-0.90625 2.484375 -3.0625 2.484375q-0.484375 0 -1.0625 -0.171875l0 -1.703125l0.421875 0.015625q0.828125 0 1.25 -0.3125q0.421875 -0.296875 0.671875 -1.015625l0.328125 -0.84375l-3.46875 -9.8125l2.390625 0l2.078125 6.6875zm12.785278 -0.25q0 -0.875 -0.625 -1.34375q-0.609375 -0.46875 -2.21875 -0.953125q-1.59375 -0.484375 -2.546875 -1.078125q-1.8125 -1.140625 -1.8125 -2.96875q0 -1.609375 1.3125 -2.640625q1.3125 -1.046875 3.390625 -1.046875q1.390625 0 2.46875 0.515625q1.09375 0.515625 1.703125 1.453125q0.625 0.9375 0.625 2.09375l-2.296875 0q0 -1.046875 -0.65625 -1.625q-0.640625 -0.59375 -1.859375 -0.59375q-1.125 0 -1.75 0.484375q-0.625 0.484375 -0.625 1.34375q0 0.734375 0.671875 1.21875q0.671875 0.484375 2.21875 0.953125q1.546875 0.453125 2.484375 1.046875q0.9375 0.59375 1.375 1.359375q0.4375 0.75 0.4375 1.765625q0 1.65625 -1.265625 2.640625q-1.265625 0.984375 -3.453125 0.984375q-1.4375 0 -2.640625 -0.53125q-1.203125 -0.546875 -1.875 -1.484375q-0.671875 -0.9375 -0.671875 -2.1875l2.3125 0q0 1.140625 0.734375 1.765625q0.75 0.609375 2.140625 0.609375q1.203125 0 1.8125 -0.484375q0.609375 -0.484375 0.609375 -1.296875zm14.868713 -2.859375q0 1.875 -0.609375 3.265625q-0.59375 1.375 -1.65625 2.1875l2.265625 1.78125l-1.484375 1.34375l-2.828125 -2.234375q-0.5625 0.125 -1.1875 0.125q-1.609375 0 -2.875 -0.78125q-1.25 -0.796875 -1.9375 -2.25q-0.6875 -1.46875 -0.703125 -3.375l0 -0.734375q0 -1.953125 0.6875 -3.4375q0.6875 -1.484375 1.9375 -2.265625q1.25 -0.796875 2.875 -0.796875q1.625 0 2.875 0.78125q1.265625 0.78125 1.9375 2.25q0.6875 1.453125 0.703125 3.40625l0 0.734375zm-2.3125 -0.703125q0 -2.234375 -0.84375 -3.390625q-0.84375 -1.15625 -2.359375 -1.15625q-1.5 0 -2.34375 1.171875q-0.828125 1.171875 -0.859375 3.296875l0 0.78125q0 2.140625 0.84375 3.359375q0.84375 1.203125 2.375 1.203125q1.53125 0 2.359375 -1.15625q0.828125 -1.171875 0.828125 -3.40625l0 -0.703125zm6.9589233 5.140625l6.015625 0l0 1.84375l-8.328125 0l0 -13.265625l2.3125 0l0 11.421875z" fill-rule="nonzero"/><path fill="#000000" fill-opacity="0.0" d="m606.91864 585.58136l0 -87.55905" fill-rule="evenodd"/><path stroke="#000000" stroke-width="1.0" stroke-linejoin="round" stroke-linecap="butt" d="m606.91864 579.58136l0 -75.55905" fill-rule="evenodd"/><path fill="#000000" stroke="#000000" stroke-width="1.0" stroke-linecap="butt" d="m605.2669 579.58136l1.6517334 4.538086l1.6517334 -4.538086z" fill-rule="evenodd"/><path fill="#000000" stroke="#000000" stroke-width="1.0" stroke-linecap="butt" d="m608.5704 504.0223l-1.6517334 -4.538086l-1.6517334 4.538086z" fill-rule="evenodd"/><path fill="#000000" fill-opacity="0.0" d="m554.88995 521.77295l77.700806 0l0 40.06299l-77.700806 0z" fill-rule="evenodd"/><path fill="#000000" d="m570.45245 541.2448q0 -0.796875 -0.5625 -1.25q-0.546875 -0.453125 -2.015625 -0.859375q-1.46875 -0.421875 -2.15625 -0.90625q-0.953125 -0.703125 -0.953125 -1.8125q0 -1.09375 0.890625 -1.765625q0.890625 -0.6875 2.28125 -0.6875q0.953125 0 1.6875 0.375q0.75 0.359375 1.15625 1.015625q0.421875 0.640625 0.421875 1.4375l-0.8125 0q0 -0.96875 -0.671875 -1.546875q-0.65625 -0.59375 -1.78125 -0.59375q-1.078125 0 -1.734375 0.484375q-0.640625 0.484375 -0.640625 1.265625q0 0.71875 0.578125 1.1875q0.59375 0.453125 1.859375 0.796875q1.28125 0.34375 1.9375 0.71875q0.65625 0.375 0.984375 0.90625q0.328125 0.515625 0.328125 1.21875q0 1.125 -0.890625 1.796875q-0.890625 0.671875 -2.359375 0.671875q-1.0 0 -1.84375 -0.34375q-0.828125 -0.359375 -1.265625 -1.0q-0.421875 -0.65625 -0.421875 -1.484375l0.796875 0q0 1.0 0.75 1.578125q0.75 0.578125 1.984375 0.578125q1.109375 0 1.78125 -0.484375q0.671875 -0.484375 0.671875 -1.296875zm5.065918 2.453125q-0.890625 0 -1.625 -0.4375q-0.71875 -0.4375 -1.125 -1.234375q-0.40625 -0.796875 -0.40625 -1.765625l0 -0.28125q0 -1.015625 0.390625 -1.828125q0.40625 -0.8125 1.109375 -1.28125q0.703125 -0.46875 1.515625 -0.46875q1.28125 0 2.03125 0.875q0.765625 0.875 0.765625 2.390625l0 0.4375l-5.03125 0l0 0.15625q0 1.1875 0.6875 1.984375q0.6875 0.796875 1.734375 0.796875q0.625 0 1.09375 -0.21875q0.484375 -0.234375 0.875 -0.734375l0.484375 0.375q-0.859375 1.234375 -2.5 1.234375zm-0.140625 -6.640625q-0.875 0 -1.484375 0.65625q-0.59375 0.640625 -0.71875 1.734375l4.21875 0l0 -0.09375q-0.03125 -1.015625 -0.578125 -1.65625q-0.546875 -0.640625 -1.4375 -0.640625zm7.557251 0.140625q-0.25 -0.046875 -0.53125 -0.046875q-0.71875 0 -1.234375 0.40625q-0.5 0.40625 -0.703125 1.1875l0 4.828125l-0.78125 0l0 -7.046875l0.765625 0l0.015625 1.125q0.609375 -1.25 1.984375 -1.25q0.3125 0 0.5 0.078125l-0.015625 0.71875zm3.5385742 5.296875l2.140625 -5.96875l0.8125 0l-2.640625 7.046875l-0.625 0l-2.640625 -7.046875l0.796875 0l2.15625 5.96875zm6.8568726 1.203125q-0.890625 0 -1.625 -0.4375q-0.71875 -0.4375 -1.125 -1.234375q-0.40625 -0.796875 -0.40625 -1.765625l0 -0.28125q0 -1.015625 0.390625 -1.828125q0.40625 -0.8125 1.109375 -1.28125q0.703125 -0.46875 1.515625 -0.46875q1.28125 0 2.03125 0.875q0.765625 0.875 0.765625 2.390625l0 0.4375l-5.03125 0l0 0.15625q0 1.1875 0.6875 1.984375q0.6875 0.796875 1.734375 0.796875q0.625 0 1.09375 -0.21875q0.484375 -0.234375 0.875 -0.734375l0.484375 0.375q-0.859375 1.234375 -2.5 1.234375zm-0.140625 -6.640625q-0.875 0 -1.484375 0.65625q-0.59375 0.640625 -0.71875 1.734375l4.21875 0l0 -0.09375q-0.03125 -1.015625 -0.578125 -1.65625q-0.546875 -0.640625 -1.4375 -0.640625zm7.557251 0.140625q-0.25 -0.046875 -0.53125 -0.046875q-0.71875 0 -1.234375 0.40625q-0.5 0.40625 -0.703125 1.1875l0 4.828125l-0.78125 0l0 -7.046875l0.765625 0l0.015625 1.125q0.609375 -1.25 1.984375 -1.25q0.3125 0 0.5 0.078125l-0.015625 0.71875z" fill-rule="nonzero"/></g></svg>