<svg version="1.1" viewBox="0.0 0.0 777.1627296587926 602.0262467191601" fill="none" stroke="none" stroke-linecap="square" stroke-miterlimit="10" xmlns:xlink="http://www.w3.org/1999/xlink" xmlns="http://www.w3.org/2000/svg"><clipPath id="p.0"><path d="m0 0l777.1627 0l0 602.02625l-777.1627 0l0 -602.02625z" clip-rule="nonzero"/></clipPath><g clip-path="url(#p.0)"><path fill="#000000" fill-opacity="0.0" d="m0 0l777.1627 0l0 602.02625l-777.1627 0z" fill-rule="evenodd"/><path fill="#d9ead3" d="m20.674541 88.97662l0 0c0 -6.71743 5.445547 -12.1629715 12.1629715 -12.1629715l100.9339 0c3.22583 0 6.319519 1.2814484 8.600525 3.5624466c2.2809906 2.2809982 3.5624542 5.3747025 3.5624542 8.600525l0 48.650436c0 6.7174225 -5.4455566 12.162964 -12.162979 12.162964l-100.9339 0c-6.7174244 0 -12.1629715 -5.4455414 -12.1629715 -12.162964z" fill-rule="evenodd"/><path fill="#000000" d="m69.89409 116.94058l2.046875 -9.984375l2.28125 0l-3.0625 13.265625l-2.203125 0l-2.515625 -9.6875l-2.5781288 9.6875l-2.21875 0l-3.0625 -13.265625l2.28125 0l2.0625 9.96875l2.5312538 -9.96875l1.9375 0l2.5 9.984375zm10.770782 -4.546875q-0.4375 -0.078125 -0.90625 -0.078125q-1.515625 0 -2.046875 1.171875l0 6.734375l-2.21875 0l0 -9.859375l2.125 0l0.046875 1.109375q0.796875 -1.28125 2.21875 -1.28125q0.484375 0 0.78125 0.125l0 2.078125zm3.746338 7.828125l-2.203125 0l0 -9.859375l2.203125 0l0 9.859375zm-2.34375 -12.421875q0 -0.5 0.3125 -0.828125q0.328125 -0.34375 0.921875 -0.34375q0.609375 0 0.9375 0.34375q0.328125 0.328125 0.328125 0.828125q0 0.5 -0.328125 0.84375q-0.328125 0.328125 -0.9375 0.328125q-0.59375 0 -0.921875 -0.328125q-0.3125 -0.34375 -0.3125 -0.84375zm7.529892 0.171875l0 2.390625l1.734375 0l0 1.640625l-1.734375 0l0 5.5q0 0.5625 0.21875 0.8125q0.234375 0.25 0.796875 0.25q0.390625 0 0.78125 -0.078125l0 1.703125q-0.75 0.21875 -1.453125 0.21875q-2.5625 0 -2.5625 -2.8125l0 -5.59375l-1.609375 0l0 -1.640625l1.609375 0l0 -2.390625l2.21875 0zm7.7660675 12.4375q-2.09375 0 -3.40625 -1.328125q-1.3125 -1.328125 -1.3125 -3.53125l0 -0.28125q0 -1.46875 0.5625 -2.625q0.578125 -1.171875 1.609375 -1.8125q1.03125 -0.640625 2.296875 -0.640625q2.015625 0 3.109375 1.28125q1.09375 1.28125 1.09375 3.625l0 0.890625l-6.4375 0q0.109375 1.234375 0.8125 1.953125q0.71875 0.703125 1.8125 0.703125q1.515625 0 2.46875 -1.234375l1.203125 1.140625q-0.59375 0.875 -1.59375 1.375q-0.984375 0.484375 -2.21875 0.484375zm-0.265625 -8.453125q-0.90625 0 -1.46875 0.640625q-0.5625 0.640625 -0.703125 1.78125l4.203125 0l0 -0.171875q-0.0625 -1.109375 -0.59375 -1.671875q-0.515625 -0.578125 -1.4375 -0.578125zm11.105087 0.4375q-0.4375 -0.078125 -0.90625 -0.078125q-1.515625 0 -2.046875 1.171875l0 6.734375l-2.21875 0l0 -9.859375l2.125 0l0.046875 1.109375q0.796875 -1.28125 2.21875 -1.28125q0.484375 0 0.78125 0.125l0 2.078125z" fill-rule="nonzero"/><path fill="#d9ead3" d="m632.6247 88.97662l0 0c0 -6.71743 5.4454956 -12.1629715 12.162964 -12.1629715l100.9339 0c3.22583 0 6.319519 1.2814484 8.600525 3.5624466c2.2810059 2.2809982 3.562439 5.3747025 3.562439 8.600525l0 48.650436c0 6.7174225 -5.4455566 12.162964 -12.162964 12.162964l-100.9339 0c-6.7174683 0 -12.162964 -5.4455414 -12.162964 -12.162964z" fill-rule="evenodd"/><path fill="#000000" d="m658.5759 116.79996q0 -0.875 -0.625 -1.34375q-0.609375 -0.46875 -2.21875 -0.953125q-1.59375 -0.484375 -2.546875 -1.078125q-1.8125 -1.140625 -1.8125 -2.96875q0 -1.609375 1.3125 -2.640625q1.3125 -1.046875 3.390625 -1.046875q1.390625 0 2.46875 0.515625q1.09375 0.515625 1.703125 1.453125q0.625 0.9375 0.625 2.09375l-2.296875 0q0 -1.046875 -0.65625 -1.625q-0.640625 -0.59375 -1.859375 -0.59375q-1.125 0 -1.75 0.484375q-0.625 0.484375 -0.625 1.34375q0 0.734375 0.671875 1.21875q0.671875 0.484375 2.21875 0.953125q1.546875 0.453125 2.484375 1.046875q0.9375 0.59375 1.375 1.359375q0.4375 0.75 0.4375 1.765625q0 1.65625 -1.265625 2.640625q-1.265625 0.984375 -3.453125 0.984375q-1.4375 0 -2.640625 -0.53125q-1.203125 -0.546875 -1.875 -1.484375q-0.671875 -0.9375 -0.671875 -2.1875l2.3125 0q0 1.140625 0.734375 1.765625q0.75 0.609375 2.140625 0.609375q1.203125 0 1.8125 -0.484375q0.609375 -0.484375 0.609375 -1.296875zm10.087463 2.453125q-0.984375 1.15625 -2.765625 1.15625q-1.609375 0 -2.4375 -0.9375q-0.828125 -0.9375 -0.828125 -2.71875l0 -6.390625l2.21875 0l0 6.359375q0 1.875 1.5625 1.875q1.609375 0 2.171875 -1.15625l0 -7.078125l2.21875 0l0 9.859375l-2.09375 0l-0.046875 -0.96875zm13.038452 -3.859375q0 2.296875 -1.03125 3.65625q-1.015625 1.359375 -2.8125 1.359375q-1.734375 0 -2.6875 -1.25l-0.109375 1.0625l-2.015625 0l0 -14.0l2.21875 0l0 5.09375q0.953125 -1.125 2.578125 -1.125q1.796875 0 2.828125 1.34375q1.03125 1.328125 1.03125 3.734375l0 0.125zm-2.21875 -0.1875q0 -1.609375 -0.5625 -2.40625q-0.5625 -0.796875 -1.640625 -0.796875q-1.4375 0 -2.015625 1.25l0 4.0625q0.59375 1.28125 2.046875 1.28125q1.03125 0 1.59375 -0.765625q0.5625 -0.78125 0.578125 -2.34375l0 -0.28125zm9.597046 2.34375q0 -0.59375 -0.484375 -0.90625q-0.484375 -0.3125 -1.625 -0.546875q-1.125 -0.234375 -1.875 -0.609375q-1.65625 -0.796875 -1.65625 -2.3125q0 -1.28125 1.0625 -2.125q1.078125 -0.859375 2.734375 -0.859375q1.78125 0 2.859375 0.875q1.09375 0.859375 1.09375 2.265625l-2.21875 0q0 -0.640625 -0.46875 -1.0625q-0.46875 -0.421875 -1.265625 -0.421875q-0.71875 0 -1.1875 0.34375q-0.453125 0.328125 -0.453125 0.890625q0 0.515625 0.421875 0.796875q0.4375 0.28125 1.734375 0.5625q1.296875 0.28125 2.03125 0.6875q0.75 0.390625 1.109375 0.953125q0.375 0.546875 0.375 1.34375q0 1.328125 -1.109375 2.15625q-1.109375 0.828125 -2.890625 0.828125q-1.203125 0 -2.15625 -0.4375q-0.953125 -0.4375 -1.484375 -1.203125q-0.515625 -0.765625 -0.515625 -1.65625l2.140625 0q0.046875 0.78125 0.59375 1.21875q0.546875 0.421875 1.453125 0.421875q0.875 0 1.328125 -0.328125q0.453125 -0.34375 0.453125 -0.875zm8.159973 1.09375q0.828125 0 1.375 -0.484375q0.546875 -0.484375 0.578125 -1.203125l2.09375 0q-0.046875 0.921875 -0.59375 1.71875q-0.53125 0.796875 -1.453125 1.265625q-0.90625 0.46875 -1.984375 0.46875q-2.0625 0 -3.28125 -1.34375q-1.203125 -1.34375 -1.203125 -3.703125l0 -0.21875q0 -2.25 1.203125 -3.59375q1.203125 -1.359375 3.28125 -1.359375q1.75 0 2.859375 1.03125q1.109375 1.015625 1.171875 2.671875l-2.09375 0q-0.03125 -0.84375 -0.578125 -1.390625q-0.546875 -0.546875 -1.375 -0.546875q-1.078125 0 -1.671875 0.78125q-0.578125 0.78125 -0.578125 2.359375l0 0.359375q0 1.609375 0.578125 2.40625q0.578125 0.78125 1.671875 0.78125zm10.874756 -6.25q-0.4375 -0.078125 -0.90625 -0.078125q-1.515625 0 -2.046875 1.171875l0 6.734375l-2.21875 0l0 -9.859375l2.125 0l0.046875 1.109375q0.796875 -1.28125 2.21875 -1.28125q0.484375 0 0.78125 0.125l0 2.078125zm3.746338 7.828125l-2.203125 0l0 -9.859375l2.203125 0l0 9.859375zm-2.34375 -12.421875q0 -0.5 0.3125 -0.828125q0.328125 -0.34375 0.921875 -0.34375q0.609375 0 0.9375 0.34375q0.328125 0.328125 0.328125 0.828125q0 0.5 -0.328125 0.84375q-0.328125 0.328125 -0.9375 0.328125q-0.59375 0 -0.921875 -0.328125q-0.3125 -0.34375 -0.3125 -0.84375zm13.404907 7.59375q0 2.296875 -1.03125 3.65625q-1.015625 1.359375 -2.8125 1.359375q-1.734375 0 -2.6875 -1.25l-0.109375 1.0625l-2.015625 0l0 -14.0l2.21875 0l0 5.09375q0.953125 -1.125 2.578125 -1.125q1.796875 0 2.828125 1.34375q1.03125 1.328125 1.03125 3.734375l0 0.125zm-2.21875 -0.1875q0 -1.609375 -0.5625 -2.40625q-0.5625 -0.796875 -1.640625 -0.796875q-1.4375 0 -2.015625 1.25l0 4.0625q0.59375 1.28125 2.046875 1.28125q1.03125 0 1.59375 -0.765625q0.5625 -0.78125 0.578125 -2.34375l0 -0.28125zm8.409485 5.203125q-2.09375 0 -3.40625 -1.328125q-1.3125 -1.328125 -1.3125 -3.53125l0 -0.28125q0 -1.46875 0.5625 -2.625q0.578125 -1.171875 1.609375 -1.8125q1.03125 -0.640625 2.296875 -0.640625q2.015625 0 3.109375 1.28125q1.09375 1.28125 1.09375 3.625l0 0.890625l-6.4375 0q0.109375 1.234375 0.8125 1.953125q0.71875 0.703125 1.8125 0.703125q1.515625 0 2.46875 -1.234375l1.203125 1.140625q-0.59375 0.875 -1.59375 1.375q-0.984375 0.484375 -2.21875 0.484375zm-0.265625 -8.453125q-0.90625 0 -1.46875 0.640625q-0.5625 0.640625 -0.703125 1.78125l4.203125 0l0 -0.171875q-0.0625 -1.109375 -0.59375 -1.671875q-0.515625 -0.578125 -1.4375 -0.578125zm11.105103 0.4375q-0.4375 -0.078125 -0.90625 -0.078125q-1.515625 0 -2.046875 1.171875l0 6.734375l-2.21875 0l0 -9.859375l2.125 0l0.046875 1.109375q0.796875 -1.28125 2.21875 -1.28125q0.484375 0 0.78125 0.125l0 2.078125z" fill-rule="nonzero"/><path fill="#d9d9d9" d="m238.71129 31.378643l0 0c0 -6.582861 5.3364563 -11.919325 11.919327 -11.919325l286.0196 0c3.1611938 0 6.192932 1.2557812 8.428284 3.4910889c2.2352905 2.2353077 3.4910889 5.2670345 3.4910889 8.428236l0 122.933c0 6.582855 -5.336487 11.919327 -11.919373 11.919327l-286.0196 0c-6.5828705 0 -11.919327 -5.3364716 -11.919327 -11.919327z" fill-rule="evenodd"/><path fill="#000000" d="m368.92764 43.12452l0.078125 0.28125l0.078125 -0.28125l4.171875 -11.625002l1.234375 0l-4.9375 13.265627l-1.078125 0l-4.9375 -13.265627l1.21875 0l4.171875 11.625002zm16.50528 -10.671875l-4.546875 0l0 12.3125l-1.109375 0l0 -12.3125l-4.546875 0l0 -0.9531269l10.203125 0l0 0.9531269zm11.463837 10.734375q-0.578125 0.828125 -1.828125 1.296875q-1.234375 0.46875 -2.78125 0.46875q-1.5625 0 -2.78125 -0.75q-1.203125 -0.75 -1.875 -2.109375q-0.65625 -1.375 -0.65625 -3.140625l0 -1.671875q0 -2.765625 1.390625 -4.359375q1.390625 -1.6093769 3.734375 -1.6093769q2.0625 0 3.296875 1.0468769q1.25 1.046875 1.484375 2.875l-1.109375 0q-0.25 -1.453125 -1.203125 -2.203125q-0.9375 -0.75 -2.453125 -0.75q-1.859375 0 -2.953125 1.328125q-1.078125 1.3125 -1.078125 3.71875l0 1.5625q0 1.515625 0.515625 2.671875q0.515625 1.15625 1.46875 1.796875q0.96875 0.640625 2.21875 0.640625q1.453125 0 2.484375 -0.453125q0.671875 -0.296875 1.0 -0.703125l0 -3.421875l-3.5625 0l0 -0.953125l4.6875 0l0 4.71875zm9.143921 1.578125q-0.15625 -0.46875 -0.203125 -1.375q-0.578125 0.75 -1.46875 1.15625q-0.890625 0.40625 -1.875 0.40625q-1.421875 0 -2.3125 -0.796875q-0.875 -0.796875 -0.875 -2.0q0 -1.4375 1.203125 -2.28125q1.203125 -0.84375 3.34375 -0.84375l1.96875 0l0 -1.109375q0 -1.0625 -0.65625 -1.671875q-0.640625 -0.609375 -1.890625 -0.609375q-1.140625 0 -1.890625 0.59375q-0.75 0.578125 -0.75 1.40625l-1.09375 -0.015625q0 -1.171875 1.09375 -2.03125q1.09375 -0.859375 2.6875 -0.859375q1.65625 0 2.609375 0.828125q0.953125 0.8125 0.984375 2.28125l0 4.671875q0 1.4375 0.296875 2.140625l0 0.109375l-1.171875 0zm-3.421875 -0.78125q1.09375 0 1.953125 -0.53125q0.859375 -0.53125 1.25 -1.40625l0 -2.171875l-1.953125 0q-1.625 0.015625 -2.546875 0.59375q-0.921875 0.578125 -0.921875 1.59375q0 0.828125 0.609375 1.375q0.625 0.546875 1.609375 0.546875zm8.883759 -11.59375l0 2.515625l2.046875 0l0 0.890625l-2.046875 0l0 6.578125q0 0.8125 0.296875 1.21875q0.296875 0.390625 1.0 0.390625q0.265625 0 0.875 -0.078125l0.046875 0.890625q-0.421875 0.15625 -1.171875 0.15625q-1.109375 0 -1.625 -0.65625q-0.515625 -0.65625 -0.515625 -1.921875l0 -6.578125l-1.8125 0l0 -0.890625l1.8125 0l0 -2.515625l1.09375 0zm8.119049 12.5625q-1.25 0 -2.265625 -0.625q-1.015625 -0.625 -1.59375 -1.71875q-0.5625 -1.109375 -0.5625 -2.484375l0 -0.390625q0 -1.421875 0.546875 -2.5625q0.5625 -1.140625 1.546875 -1.78125q0.984375 -0.65625 2.125 -0.65625q1.796875 0 2.84375 1.21875q1.0625 1.21875 1.0625 3.34375l0 0.609375l-7.03125 0l0 0.21875q0 1.671875 0.953125 2.796875q0.96875 1.109375 2.421875 1.109375q0.875 0 1.546875 -0.3125q0.671875 -0.328125 1.21875 -1.03125l0.6875 0.515625q-1.203125 1.75 -3.5 1.75zm-0.203125 -9.296875q-1.21875 0 -2.0625 0.90625q-0.84375 0.890625 -1.03125 2.421875l5.921875 0l0 -0.125q-0.046875 -1.421875 -0.8125 -2.3125q-0.765625 -0.890625 -2.015625 -0.890625z" fill-rule="nonzero"/><path fill="#999999" d="m260.37534 88.97662l0 0c0 -6.71743 5.445526 -12.1629715 12.162964 -12.1629715l100.9339 0c3.22583 0 6.319519 1.2814484 8.600525 3.5624466c2.2810059 2.2809982 3.562439 5.3747025 3.562439 8.600525l0 48.650436c0 6.7174225 -5.445526 12.162964 -12.162964 12.162964l-100.9339 0c-6.7174377 0 -12.162964 -5.4455414 -12.162964 -12.162964z" fill-rule="evenodd"/><path fill="#000000" d="m300.41675 120.40933q-2.09375 0 -3.40625 -1.328125q-1.3125 -1.328125 -1.3125 -3.53125l0 -0.28125q0 -1.46875 0.5625 -2.625q0.578125 -1.171875 1.609375 -1.8125q1.03125 -0.640625 2.296875 -0.640625q2.015625 0 3.109375 1.28125q1.09375 1.28125 1.09375 3.625l0 0.890625l-6.4375 0q0.109375 1.234375 0.8125 1.953125q0.71875 0.703125 1.8125 0.703125q1.515625 0 2.46875 -1.234375l1.203125 1.140625q-0.59375 0.875 -1.59375 1.375q-0.984375 0.484375 -2.21875 0.484375zm-0.265625 -8.453125q-0.90625 0 -1.46875 0.640625q-0.5625 0.640625 -0.703125 1.78125l4.203125 0l0 -0.171875q-0.0625 -1.109375 -0.59375 -1.671875q-0.515625 -0.578125 -1.4375 -0.578125zm7.9957275 -1.59375l0.0625 1.140625q1.09375 -1.3125 2.875 -1.3125q3.078125 0 3.125 3.515625l0 6.515625l-2.203125 0l0 -6.390625q0 -0.9375 -0.40625 -1.375q-0.40625 -0.453125 -1.328125 -0.453125q-1.34375 0 -2.0 1.203125l0 7.015625l-2.203125 0l0 -9.859375l2.078125 0zm7.938202 4.859375q0 -2.296875 1.078125 -3.65625q1.078125 -1.375 2.859375 -1.375q1.6875 0 2.65625 1.171875l0.09375 -1.0l2.0 0l0 9.5625q0 1.9375 -1.21875 3.046875q-1.203125 1.125 -3.25 1.125q-1.078125 0 -2.109375 -0.453125q-1.03125 -0.4375 -1.578125 -1.171875l1.046875 -1.328125q1.03125 1.203125 2.515625 1.203125q1.109375 0 1.734375 -0.59375q0.640625 -0.59375 0.640625 -1.75l0 -0.671875q-0.953125 1.078125 -2.546875 1.078125q-1.734375 0 -2.828125 -1.375q-1.09375 -1.375 -1.09375 -3.8125zm2.203125 0.1875q0 1.484375 0.59375 2.34375q0.609375 0.84375 1.6875 0.84375q1.34375 0 1.984375 -1.140625l0 -4.34375q-0.625 -1.109375 -1.96875 -1.109375q-1.09375 0 -1.703125 0.859375q-0.59375 0.859375 -0.59375 2.546875zm11.107361 4.8125l-2.2030945 0l0 -9.859375l2.2030945 0l0 9.859375zm-2.3437195 -12.421875q0 -0.5 0.3125 -0.828125q0.328125 -0.34375 0.9218445 -0.34375q0.609375 0 0.9375 0.34375q0.328125 0.328125 0.328125 0.828125q0 0.5 -0.328125 0.84375q-0.328125 0.328125 -0.9375 0.328125q-0.5937195 0 -0.9218445 -0.328125q-0.3125 -0.34375 -0.3125 -0.84375zm6.8111267 2.5625l0.0625 1.140625q1.09375 -1.3125 2.875 -1.3125q3.078125 0 3.125 3.515625l0 6.515625l-2.203125 0l0 -6.390625q0 -0.9375 -0.40625 -1.375q-0.40625 -0.453125 -1.328125 -0.453125q-1.34375 0 -2.0 1.203125l0 7.015625l-2.203125 0l0 -9.859375l2.078125 0zm12.656952 10.046875q-2.09375 0 -3.40625 -1.328125q-1.3125 -1.328125 -1.3125 -3.53125l0 -0.28125q0 -1.46875 0.5625 -2.625q0.578125 -1.171875 1.609375 -1.8125q1.03125 -0.640625 2.296875 -0.640625q2.015625 0 3.109375 1.28125q1.09375 1.28125 1.09375 3.625l0 0.890625l-6.4375 0q0.109375 1.234375 0.8125 1.953125q0.71875 0.703125 1.8125 0.703125q1.515625 0 2.46875 -1.234375l1.203125 1.140625q-0.59375 0.875 -1.59375 1.375q-0.984375 0.484375 -2.21875 0.484375zm-0.265625 -8.453125q-0.90625 0 -1.46875 0.640625q-0.5625 0.640625 -0.703125 1.78125l4.203125 0l0 -0.171875q-0.0625 -1.109375 -0.59375 -1.671875q-0.515625 -0.578125 -1.4375 -0.578125z" fill-rule="nonzero"/><path fill="#999999" d="m401.64566 88.97662l0 0c0 -6.71743 5.4455566 -12.1629715 12.162994 -12.1629715l100.9339 0c3.22583 0 6.319519 1.2814484 8.600525 3.5624466c2.2810059 2.2809982 3.562439 5.3747025 3.562439 8.600525l0 48.650436c0 6.7174225 -5.4455566 12.162964 -12.162964 12.162964l-100.9339 0c-6.7174377 0 -12.162994 -5.4455414 -12.162994 -12.162964z" fill-rule="evenodd"/><path fill="#000000" d="m434.163 117.33121l3.375 -10.375l2.53125 0l-4.765625 13.265625l-2.234375 0l-4.765625 -13.265625l2.53125 0l3.328125 10.375zm14.335724 -0.53125q0 -0.875 -0.625 -1.34375q-0.609375 -0.46875 -2.21875 -0.953125q-1.59375 -0.484375 -2.546875 -1.078125q-1.8125 -1.140625 -1.8125 -2.96875q0 -1.609375 1.3125 -2.640625q1.3125 -1.046875 3.390625 -1.046875q1.390625 0 2.46875 0.515625q1.09375 0.515625 1.703125 1.453125q0.625 0.9375 0.625 2.09375l-2.296875 0q0 -1.046875 -0.65625 -1.625q-0.640625 -0.59375 -1.859375 -0.59375q-1.125 0 -1.75 0.484375q-0.625 0.484375 -0.625 1.34375q0 0.734375 0.671875 1.21875q0.671875 0.484375 2.21875 0.953125q1.546875 0.453125 2.484375 1.046875q0.9375 0.59375 1.375 1.359375q0.4375 0.75 0.4375 1.765625q0 1.65625 -1.265625 2.640625q-1.265625 0.984375 -3.453125 0.984375q-1.4375 0 -2.640625 -0.53125q-1.203125 -0.546875 -1.875 -1.484375q-0.671875 -0.9375 -0.671875 -2.1875l2.3125 0q0 1.140625 0.734375 1.765625q0.75 0.609375 2.140625 0.609375q1.203125 0 1.8125 -0.484375q0.609375 -0.484375 0.609375 -1.296875zm6.8843384 -8.828125l0 2.390625l1.734375 0l0 1.640625l-1.734375 0l0 5.5q0 0.5625 0.21875 0.8125q0.234375 0.25 0.796875 0.25q0.390625 0 0.78125 -0.078125l0 1.703125q-0.75 0.21875 -1.453125 0.21875q-2.5625 0 -2.5625 -2.8125l0 -5.59375l-1.609375 0l0 -1.640625l1.609375 0l0 -2.390625l2.21875 0zm8.594177 4.421875q-0.4375 -0.078125 -0.90625 -0.078125q-1.515625 0 -2.046875 1.171875l0 6.734375l-2.21875 0l0 -9.859375l2.125 0l0.046875 1.109375q0.796875 -1.28125 2.21875 -1.28125q0.484375 0 0.78125 0.125l0 2.078125zm5.5575256 8.015625q-2.0937195 0 -3.4062195 -1.328125q-1.3125 -1.328125 -1.3125 -3.53125l0 -0.28125q0 -1.46875 0.5625 -2.625q0.578125 -1.171875 1.609375 -1.8125q1.03125 -0.640625 2.2968445 -0.640625q2.015625 0 3.109375 1.28125q1.09375 1.28125 1.09375 3.625l0 0.890625l-6.4374695 0q0.109375 1.234375 0.8125 1.953125q0.71875 0.703125 1.8124695 0.703125q1.515625 0 2.46875 -1.234375l1.203125 1.140625q-0.59375 0.875 -1.59375 1.375q-0.984375 0.484375 -2.21875 0.484375zm-0.265625 -8.453125q-0.9062195 0 -1.4687195 0.640625q-0.5625 0.640625 -0.703125 1.78125l4.2030945 0l0 -0.171875q-0.0625 -1.109375 -0.59375 -1.671875q-0.515625 -0.578125 -1.4375 -0.578125zm11.823853 8.265625q-0.140625 -0.28125 -0.25 -0.921875q-1.046875 1.109375 -2.578125 1.109375q-1.484375 0 -2.4375 -0.84375q-0.9375 -0.859375 -0.9375 -2.109375q0 -1.578125 1.171875 -2.40625q1.171875 -0.84375 3.359375 -0.84375l1.359375 0l0 -0.65625q0 -0.765625 -0.4375 -1.21875q-0.421875 -0.46875 -1.296875 -0.46875q-0.765625 0 -1.25 0.390625q-0.46875 0.375 -0.46875 0.953125l-2.21875 0q0 -0.8125 0.53125 -1.515625q0.546875 -0.703125 1.46875 -1.09375q0.921875 -0.40625 2.0625 -0.40625q1.734375 0 2.75 0.875q1.03125 0.859375 1.0625 2.4375l0 4.4375q0 1.328125 0.375 2.125l0 0.15625l-2.265625 0zm-2.421875 -1.59375q0.65625 0 1.234375 -0.3125q0.578125 -0.328125 0.875 -0.859375l0 -1.859375l-1.203125 0q-1.234375 0 -1.859375 0.4375q-0.609375 0.421875 -0.609375 1.203125q0 0.640625 0.421875 1.015625q0.421875 0.375 1.140625 0.375zm8.718323 -8.265625l0.0625 1.03125q1.03125 -1.203125 2.84375 -1.203125q1.96875 0 2.703125 1.5q1.078125 -1.5 3.015625 -1.5q1.640625 0 2.4375 0.90625q0.796875 0.890625 0.8125 2.640625l0 6.484375l-2.21875 0l0 -6.40625q0 -0.9375 -0.40625 -1.375q-0.40625 -0.4375 -1.359375 -0.4375q-0.75 0 -1.234375 0.40625q-0.46875 0.390625 -0.671875 1.046875l0.015625 6.765625l-2.21875 0l0 -6.484375q-0.046875 -1.734375 -1.765625 -1.734375q-1.328125 0 -1.890625 1.078125l0 7.140625l-2.21875 0l0 -9.859375l2.09375 0z" fill-rule="nonzero"/><path fill="#d9d9d9" d="m75.61942 240.34715l0 0c0 -6.5828705 5.336464 -11.919327 11.919327 -11.919327l286.0196 0c3.1612244 0 6.192932 1.2557831 8.428253 3.4910889c2.2352905 2.2353058 3.4910889 5.267029 3.4910889 8.428238l0 122.933c0 6.582855 -5.3364563 11.919312 -11.919342 11.919312l-286.0196 0c-6.582863 0 -11.919327 -5.3364563 -11.919327 -11.919312z" fill-rule="evenodd"/><path fill="#000000" d="m199.69615 252.09302l0.078125 0.28125l0.078125 -0.28125l4.171875 -11.625l1.234375 0l-4.9375 13.265625l-1.078125 0l-4.9375 -13.265625l1.21875 0l4.171875 11.625zm16.505295 -10.671875l-4.546875 0l0 12.3125l-1.109375 0l0 -12.3125l-4.546875 0l0 -0.953125l10.203125 0l0 0.953125zm11.286743 0l-4.546875 0l0 12.3125l-1.109375 0l0 -12.3125l-4.546875 0l0 -0.953125l10.203125 0l0 0.953125zm7.079712 12.3125q-0.15625 -0.46875 -0.203125 -1.375q-0.578125 0.75 -1.46875 1.15625q-0.890625 0.40625 -1.875 0.40625q-1.421875 0 -2.3125 -0.796875q-0.875 -0.796875 -0.875 -2.0q0 -1.4375 1.203125 -2.28125q1.203125 -0.84375 3.34375 -0.84375l1.96875 0l0 -1.109375q0 -1.0625 -0.65625 -1.671875q-0.640625 -0.609375 -1.890625 -0.609375q-1.140625 0 -1.890625 0.59375q-0.75 0.578125 -0.75 1.40625l-1.09375 -0.015625q0 -1.171875 1.09375 -2.03125q1.09375 -0.859375 2.6875 -0.859375q1.65625 0 2.609375 0.828125q0.953125 0.8125 0.984375 2.28125l0 4.671875q0 1.4375 0.296875 2.140625l0 0.109375l-1.171875 0zm-3.421875 -0.78125q1.09375 0 1.953125 -0.53125q0.859375 -0.53125 1.25 -1.40625l0 -2.171875l-1.953125 0q-1.625 0.015625 -2.546875 0.59375q-0.921875 0.578125 -0.921875 1.59375q0 0.828125 0.609375 1.375q0.625 0.546875 1.609375 0.546875zm15.133743 -4.046875q0 2.3125 -1.03125 3.671875q-1.015625 1.34375 -2.734375 1.34375q-2.0625 0 -3.109375 -1.53125l-0.046875 1.34375l-1.03125 0l0 -14.0l1.09375 0l0 5.578125q1.03125 -1.609375 3.078125 -1.609375q1.75 0 2.765625 1.328125q1.015625 1.328125 1.015625 3.71875l0 0.15625zm-1.09375 -0.1875q0 -1.953125 -0.765625 -3.015625q-0.75 -1.0625 -2.125 -1.0625q-1.046875 0 -1.78125 0.515625q-0.71875 0.515625 -1.09375 1.515625l0 4.4375q0.8125 1.859375 2.890625 1.859375q1.34375 0 2.109375 -1.0625q0.765625 -1.0625 0.765625 -3.1875zm4.714279 5.015625l-1.09375 0l0 -14.0l1.09375 0l0 14.0zm6.7750244 0.1875q-1.2500153 0 -2.2656403 -0.625q-1.015625 -0.625 -1.59375 -1.71875q-0.5625 -1.109375 -0.5625 -2.484375l0 -0.390625q0 -1.421875 0.546875 -2.5625q0.5625 -1.140625 1.546875 -1.78125q0.984375 -0.65625 2.1250153 -0.65625q1.796875 0 2.84375 1.21875q1.0625 1.21875 1.0625 3.34375l0 0.609375l-7.0312653 0l0 0.21875q0 1.671875 0.953125 2.796875q0.96875 1.109375 2.4218903 1.109375q0.875 0 1.546875 -0.3125q0.671875 -0.328125 1.21875 -1.03125l0.6875 0.515625q-1.203125 1.75 -3.5 1.75zm-0.203125 -9.296875q-1.2187653 0 -2.0625153 0.90625q-0.84375 0.890625 -1.03125 2.421875l5.9218903 0l0 -0.125q-0.046875 -1.421875 -0.8125 -2.3125q-0.765625 -0.890625 -2.015625 -0.890625zm7.715973 -3.265625l0 2.515625l2.046875 0l0 0.890625l-2.046875 0l0 6.578125q0 0.8125 0.296875 1.21875q0.296875 0.390625 1.0 0.390625q0.265625 0 0.875 -0.078125l0.046875 0.890625q-0.421875 0.15625 -1.171875 0.15625q-1.109375 0 -1.625 -0.65625q-0.515625 -0.65625 -0.515625 -1.921875l0 -6.578125l-1.8125 0l0 -0.890625l1.8125 0l0 -2.515625l1.09375 0z" fill-rule="nonzero"/><path fill="#999999" d="m97.28346 296.14853l0 0c0 -6.717407 5.445549 -12.162964 12.1629715 -12.162964l100.93391 0c3.2258148 0 6.319519 1.2814636 8.60051 3.562439c2.2810059 2.2810059 3.5624542 5.3747253 3.5624542 8.600525l0 48.65045c0 6.717407 -5.4455414 12.162964 -12.162964 12.162964l-100.93391 0c-6.7174225 0 -12.1629715 -5.4455566 -12.1629715 -12.162964z" fill-rule="evenodd"/><path fill="#000000" d="m111.22216 322.3781q0 -2.3125 1.046875 -3.65625q1.0625 -1.359375 2.875 -1.359375q1.640625 0 2.609375 1.15625l0.125 -0.984375l1.96875 0l0 13.65625l-2.21875 0l0 -4.640625q-0.953125 1.03125 -2.5 1.03125q-1.78125 0 -2.84375 -1.375q-1.0625 -1.390625 -1.0625 -3.828125zm2.21875 0.203125q0 1.5 0.59375 2.375q0.59375 0.859375 1.65625 0.859375q1.3125 0 1.9375 -1.125l0 -4.484375q-0.625 -1.078125 -1.921875 -1.078125q-1.0625 0 -1.671875 0.859375q-0.59375 0.84375 -0.59375 2.59375zm14.766228 3.84375q-0.9843826 1.15625 -2.7656326 1.15625q-1.609375 0 -2.4375 -0.9375q-0.828125 -0.9375 -0.828125 -2.71875l0 -6.390625l2.21875 0l0 6.359375q0 1.875 1.5625 1.875q1.609375 0 2.1718826 -1.15625l0 -7.078125l2.21875 0l0 9.859375l-2.09375 0l-0.046875 -0.96875zm8.725983 1.15625q-2.09375 0 -3.40625 -1.328125q-1.3125 -1.328125 -1.3125 -3.53125l0 -0.28125q0 -1.46875 0.5625 -2.625q0.578125 -1.171875 1.609375 -1.8125q1.03125 -0.640625 2.296875 -0.640625q2.015625 0 3.109375 1.28125q1.09375 1.28125 1.09375 3.625l0 0.890625l-6.4375 0q0.109375 1.234375 0.8125 1.953125q0.71875 0.703125 1.8125 0.703125q1.515625 0 2.46875 -1.234375l1.203125 1.140625q-0.59375 0.875 -1.59375 1.375q-0.984375 0.484375 -2.21875 0.484375zm-0.265625 -8.453125q-0.90625 0 -1.46875 0.640625q-0.5625 0.640625 -0.703125 1.78125l4.203125 0l0 -0.171875q-0.0625 -1.109375 -0.59375 -1.671875q-0.515625 -0.578125 -1.4375 -0.578125zm11.105087 0.4375q-0.4375 -0.078125 -0.90625 -0.078125q-1.515625 0 -2.046875 1.171875l0 6.734375l-2.21875 0l0 -9.859375l2.125 0l0.046875 1.109375q0.796875 -1.28125 2.21875 -1.28125q0.484375 0 0.78125 0.125l0 2.078125zm5.0041504 4.65625l2.015625 -6.6875l2.359375 0l-3.921875 11.359375q-0.90625 2.484375 -3.0625 2.484375q-0.484375 0 -1.0625 -0.171875l0 -1.703125l0.421875 0.015625q0.828125 0 1.25 -0.3125q0.421875 -0.296875 0.671875 -1.015625l0.328125 -0.84375l-3.46875 -9.8125l2.390625 0l2.078125 6.6875zm11.160294 0.5q0 -0.59375 -0.484375 -0.90625q-0.484375 -0.3125 -1.625 -0.546875q-1.125 -0.234375 -1.875 -0.609375q-1.65625 -0.796875 -1.65625 -2.3125q0 -1.28125 1.0625 -2.125q1.078125 -0.859375 2.734375 -0.859375q1.78125 0 2.8593597 0.875q1.09375 0.859375 1.09375 2.265625l-2.2187347 0q0 -0.640625 -0.46875 -1.0625q-0.46875 -0.421875 -1.265625 -0.421875q-0.71875 0 -1.1875 0.34375q-0.453125 0.328125 -0.453125 0.890625q0 0.515625 0.421875 0.796875q0.4375 0.28125 1.734375 0.5625q1.296875 0.28125 2.03125 0.6875q0.74998474 0.390625 1.1093597 0.953125q0.375 0.546875 0.375 1.34375q0 1.328125 -1.109375 2.15625q-1.1093597 0.828125 -2.8906097 0.828125q-1.203125 0 -2.15625 -0.4375q-0.953125 -0.4375 -1.484375 -1.203125q-0.515625 -0.765625 -0.515625 -1.65625l2.140625 0q0.046875 0.78125 0.59375 1.21875q0.546875 0.421875 1.453125 0.421875q0.875 0 1.328125 -0.328125q0.453125 -0.34375 0.453125 -0.875zm8.441223 2.859375q-2.09375 0 -3.40625 -1.328125q-1.3125 -1.328125 -1.3125 -3.53125l0 -0.28125q0 -1.46875 0.5625 -2.625q0.578125 -1.171875 1.609375 -1.8125q1.03125 -0.640625 2.296875 -0.640625q2.015625 0 3.109375 1.28125q1.09375 1.28125 1.09375 3.625l0 0.890625l-6.4375 0q0.109375 1.234375 0.8125 1.953125q0.71875 0.703125 1.8125 0.703125q1.515625 0 2.46875 -1.234375l1.203125 1.140625q-0.59375 0.875 -1.59375 1.375q-0.984375 0.484375 -2.21875 0.484375zm-0.265625 -8.453125q-0.90625 0 -1.46875 0.640625q-0.5625 0.640625 -0.703125 1.78125l4.203125 0l0 -0.171875q-0.0625 -1.109375 -0.59375 -1.671875q-0.515625 -0.578125 -1.4375 -0.578125zm11.105087 0.4375q-0.4375 -0.078125 -0.90625 -0.078125q-1.515625 0 -2.046875 1.171875l0 6.734375l-2.21875 0l0 -9.859375l2.125 0l0.046875 1.109375q0.796875 -1.28125 2.21875 -1.28125q0.484375 0 0.78125 0.125l0 2.078125zm5.0354004 5.015625l2.09375 -7.046875l2.28125 0l-3.421875 9.859375l-1.921875 0l-3.4375 -9.859375l2.296875 0l2.109375 7.046875zm9.968811 3.0q-2.09375 0 -3.40625 -1.328125q-1.3125 -1.328125 -1.3125 -3.53125l0 -0.28125q0 -1.46875 0.5625 -2.625q0.578125 -1.171875 1.609375 -1.8125q1.03125 -0.640625 2.296875 -0.640625q2.015625 0 3.109375 1.28125q1.09375 1.28125 1.09375 3.625l0 0.890625l-6.4375 0q0.109375 1.234375 0.8125 1.953125q0.71875 0.703125 1.8125 0.703125q1.515625 0 2.46875 -1.234375l1.203125 1.140625q-0.59375 0.875 -1.59375 1.375q-0.984375 0.484375 -2.21875 0.484375zm-0.265625 -8.453125q-0.90625 0 -1.46875 0.640625q-0.5625 0.640625 -0.703125 1.78125l4.203125 0l0 -0.171875q-0.0625 -1.109375 -0.59375 -1.671875q-0.515625 -0.578125 -1.4375 -0.578125zm11.105087 0.4375q-0.4375 -0.078125 -0.90625 -0.078125q-1.515625 0 -2.046875 1.171875l0 6.734375l-2.21875 0l0 -9.859375l2.125 0l0.046875 1.109375q0.796875 -1.28125 2.21875 -1.28125q0.484375 0 0.78125 0.125l0 2.078125z" fill-rule="nonzero"/><path fill="#999999" d="m238.5538 296.14853l0 0c0 -6.717407 5.4455566 -12.162964 12.162979 -12.162964l100.93388 0c3.22583 0 6.319519 1.2814636 8.600525 3.562439c2.2810059 2.2810059 3.5624695 5.3747253 3.5624695 8.600525l0 48.65045c0 6.717407 -5.4455566 12.162964 -12.162994 12.162964l-100.93388 0c-6.7174225 0 -12.162979 -5.4455566 -12.162979 -12.162964z" fill-rule="evenodd"/><path fill="#000000" d="m262.78604 324.5031l3.375 -10.375l2.53125 0l-4.765625 13.265625l-2.234375 0l-4.765625 -13.265625l2.53125 0l3.328125 10.375zm14.335724 -0.53125q0 -0.875 -0.625 -1.34375q-0.609375 -0.46875 -2.21875 -0.953125q-1.59375 -0.484375 -2.546875 -1.078125q-1.8125 -1.140625 -1.8125 -2.96875q0 -1.609375 1.3125 -2.640625q1.3125 -1.046875 3.390625 -1.046875q1.390625 0 2.46875 0.515625q1.09375 0.515625 1.703125 1.453125q0.625 0.9375 0.625 2.09375l-2.296875 0q0 -1.046875 -0.65625 -1.625q-0.640625 -0.59375 -1.859375 -0.59375q-1.125 0 -1.75 0.484375q-0.625 0.484375 -0.625 1.34375q0 0.734375 0.671875 1.21875q0.671875 0.484375 2.21875 0.953125q1.546875 0.453125 2.484375 1.046875q0.9375 0.59375 1.375 1.359375q0.4375 0.75 0.4375 1.765625q0 1.65625 -1.265625 2.640625q-1.265625 0.984375 -3.453125 0.984375q-1.4375 0 -2.640625 -0.53125q-1.203125 -0.546875 -1.875 -1.484375q-0.671875 -0.9375 -0.671875 -2.1875l2.3125 0q0 1.140625 0.734375 1.765625q0.75 0.609375 2.140625 0.609375q1.203125 0 1.8125 -0.484375q0.609375 -0.484375 0.609375 -1.296875zm6.8843384 -8.828125l0 2.390625l1.734375 0l0 1.640625l-1.734375 0l0 5.5q0 0.5625 0.21875 0.8125q0.234375 0.25 0.796875 0.25q0.390625 0 0.78125 -0.078125l0 1.703125q-0.75 0.21875 -1.453125 0.21875q-2.5625 0 -2.5625 -2.8125l0 -5.59375l-1.609375 0l0 -1.640625l1.609375 0l0 -2.390625l2.21875 0zm8.594177 4.421875q-0.4375 -0.078125 -0.90625 -0.078125q-1.515625 0 -2.046875 1.171875l0 6.734375l-2.21875 0l0 -9.859375l2.125 0l0.046875 1.109375q0.796875 -1.28125 2.21875 -1.28125q0.484375 0 0.78125 0.125l0 2.078125zm5.557556 8.015625q-2.09375 0 -3.40625 -1.328125q-1.3125 -1.328125 -1.3125 -3.53125l0 -0.28125q0 -1.46875 0.5625 -2.625q0.578125 -1.171875 1.609375 -1.8125q1.03125 -0.640625 2.296875 -0.640625q2.015625 0 3.109375 1.28125q1.09375 1.28125 1.09375 3.625l0 0.890625l-6.4375 0q0.109375 1.234375 0.8125 1.953125q0.71875 0.703125 1.8125 0.703125q1.515625 0 2.46875 -1.234375l1.203125 1.140625q-0.59375 0.875 -1.59375 1.375q-0.984375 0.484375 -2.21875 0.484375zm-0.265625 -8.453125q-0.90625 0 -1.46875 0.640625q-0.5625 0.640625 -0.703125 1.78125l4.203125 0l0 -0.171875q-0.0625 -1.109375 -0.59375 -1.671875q-0.515625 -0.578125 -1.4375 -0.578125zm11.823822 8.265625q-0.140625 -0.28125 -0.25 -0.921875q-1.046875 1.109375 -2.578125 1.109375q-1.484375 0 -2.4375 -0.84375q-0.9375 -0.859375 -0.9375 -2.109375q0 -1.578125 1.171875 -2.40625q1.171875 -0.84375 3.359375 -0.84375l1.359375 0l0 -0.65625q0 -0.765625 -0.4375 -1.21875q-0.421875 -0.46875 -1.296875 -0.46875q-0.765625 0 -1.25 0.390625q-0.46875 0.375 -0.46875 0.953125l-2.21875 0q0 -0.8125 0.53125 -1.515625q0.546875 -0.703125 1.46875 -1.09375q0.921875 -0.40625 2.0625 -0.40625q1.734375 0 2.75 0.875q1.03125 0.859375 1.0625 2.4375l0 4.4375q0 1.328125 0.375 2.125l0 0.15625l-2.265625 0zm-2.421875 -1.59375q0.65625 0 1.234375 -0.3125q0.578125 -0.328125 0.875 -0.859375l0 -1.859375l-1.203125 0q-1.234375 0 -1.859375 0.4375q-0.609375 0.421875 -0.609375 1.203125q0 0.640625 0.421875 1.015625q0.421875 0.375 1.140625 0.375zm8.718323 -8.265625l0.0625 1.03125q1.03125 -1.203125 2.84375 -1.203125q1.96875 0 2.703125 1.5q1.078125 -1.5 3.015625 -1.5q1.640625 0 2.4375 0.90625q0.796875 0.890625 0.8125 2.640625l0 6.484375l-2.21875 0l0 -6.40625q0 -0.9375 -0.40625 -1.375q-0.40625 -0.4375 -1.359375 -0.4375q-0.75 0 -1.234375 0.40625q-0.46875 0.390625 -0.671875 1.046875l0.015625 6.765625l-2.21875 0l0 -6.484375q-0.046875 -1.734375 -1.765625 -1.734375q-1.328125 0 -1.890625 1.078125l0 7.140625l-2.21875 0l0 -9.859375l2.09375 0zm18.483124 10.046875q-2.09375 0 -3.40625 -1.328125q-1.3125 -1.328125 -1.3125 -3.53125l0 -0.28125q0 -1.46875 0.5625 -2.625q0.578125 -1.171875 1.609375 -1.8125q1.03125 -0.640625 2.296875 -0.640625q2.015625 0 3.109375 1.28125q1.09375 1.28125 1.09375 3.625l0 0.890625l-6.4375 0q0.109375 1.234375 0.8125 1.953125q0.71875 0.703125 1.8125 0.703125q1.515625 0 2.46875 -1.234375l1.203125 1.140625q-0.59375 0.875 -1.59375 1.375q-0.984375 0.484375 -2.21875 0.484375zm-0.265625 -8.453125q-0.90625 0 -1.46875 0.640625q-0.5625 0.640625 -0.703125 1.78125l4.203125 0l0 -0.171875q-0.0625 -1.109375 -0.59375 -1.671875q-0.515625 -0.578125 -1.4375 -0.578125zm11.105103 0.4375q-0.4375 -0.078125 -0.90625 -0.078125q-1.515625 0 -2.046875 1.171875l0 6.734375l-2.21875 0l0 -9.859375l2.125 0l0.046875 1.109375q0.796875 -1.28125 2.21875 -1.28125q0.484375 0 0.78125 0.125l0 2.078125z" fill-rule="nonzero"/><path fill="#d9d9d9" d="m474.52756 296.14853l0 0c0 -6.717407 5.4455566 -12.162964 12.162964 -12.162964l100.93393 0c3.225769 0 6.319519 1.2814636 8.600525 3.562439c2.2809448 2.2810059 3.562439 5.3747253 3.562439 8.600525l0 48.65045c0 6.717407 -5.4455566 12.162964 -12.162964 12.162964l-100.93393 0c-6.717407 0 -12.162964 -5.4455566 -12.162964 -12.162964z" fill-rule="evenodd"/><path fill="#000000" d="m505.7198 324.5031l3.375 -10.375l2.53125 0l-4.765625 13.265625l-2.234375 0l-4.765625 -13.265625l2.53125 0l3.328125 10.375zm16.991943 -8.515625l-4.140625 0l0 11.40625l-2.28125 0l0 -11.40625l-4.109375 0l0 -1.859375l10.53125 0l0 1.859375zm11.468933 0l-4.140625 0l0 11.40625l-2.28125 0l0 -11.40625l-4.109375 0l0 -1.859375l10.53125 0l0 1.859375zm5.869995 11.40625q-0.140625 -0.28125 -0.25 -0.921875q-1.046875 1.109375 -2.578125 1.109375q-1.484375 0 -2.4375 -0.84375q-0.9375 -0.859375 -0.9375 -2.109375q0 -1.578125 1.171875 -2.40625q1.171875 -0.84375 3.359375 -0.84375l1.359375 0l0 -0.65625q0 -0.765625 -0.4375 -1.21875q-0.421875 -0.46875 -1.296875 -0.46875q-0.765625 0 -1.25 0.390625q-0.46875 0.375 -0.46875 0.953125l-2.21875 0q0 -0.8125 0.53125 -1.515625q0.546875 -0.703125 1.46875 -1.09375q0.921875 -0.40625 2.0625 -0.40625q1.734375 0 2.75 0.875q1.03125 0.859375 1.0625 2.4375l0 4.4375q0 1.328125 0.375 2.125l0 0.15625l-2.265625 0zm-2.421875 -1.59375q0.65625 0 1.234375 -0.3125q0.578125 -0.328125 0.875 -0.859375l0 -1.859375l-1.203125 0q-1.234375 0 -1.859375 0.4375q-0.609375 0.421875 -0.609375 1.203125q0 0.640625 0.421875 1.015625q0.421875 0.375 1.140625 0.375zm15.280823 -3.234375q0 2.296875 -1.03125 3.65625q-1.015625 1.359375 -2.8125 1.359375q-1.734375 0 -2.6875 -1.25l-0.109375 1.0625l-2.015625 0l0 -14.0l2.21875 0l0 5.09375q0.953125 -1.125 2.578125 -1.125q1.796875 0 2.828125 1.34375q1.03125 1.328125 1.03125 3.734375l0 0.125zm-2.21875 -0.1875q0 -1.609375 -0.5625 -2.40625q-0.5625 -0.796875 -1.640625 -0.796875q-1.4375 0 -2.015625 1.25l0 4.0625q0.59375 1.28125 2.046875 1.28125q1.03125 0 1.59375 -0.765625q0.5625 -0.78125 0.578125 -2.34375l0 -0.28125zm6.42511 5.015625l-2.203125 0l0 -14.0l2.203125 0l0 14.0zm6.748657 0.1875q-2.09375 0 -3.40625 -1.328125q-1.3125 -1.328125 -1.3125 -3.53125l0 -0.28125q0 -1.46875 0.5625 -2.625q0.578125 -1.171875 1.609375 -1.8125q1.03125 -0.640625 2.296875 -0.640625q2.015625 0 3.109375 1.28125q1.09375 1.28125 1.09375 3.625l0 0.890625l-6.4375 0q0.109375 1.234375 0.8125 1.953125q0.71875 0.703125 1.8125 0.703125q1.515625 0 2.46875 -1.234375l1.203125 1.140625q-0.59375 0.875 -1.59375 1.375q-0.984375 0.484375 -2.21875 0.484375zm-0.265625 -8.453125q-0.90625 0 -1.46875 0.640625q-0.5625 0.640625 -0.703125 1.78125l4.203125 0l0 -0.171875q-0.0625 -1.109375 -0.59375 -1.671875q-0.515625 -0.578125 -1.4375 -0.578125zm8.714478 -3.984375l0 2.390625l1.734375 0l0 1.640625l-1.734375 0l0 5.5q0 0.5625 0.21875 0.8125q0.234375 0.25 0.796875 0.25q0.390625 0 0.78125 -0.078125l0 1.703125q-0.75 0.21875 -1.453125 0.21875q-2.5625 0 -2.5625 -2.8125l0 -5.59375l-1.609375 0l0 -1.640625l1.609375 0l0 -2.390625l2.21875 0z" fill-rule="nonzero"/><path fill="#fff2cc" d="m97.44095 471.50394l0 0c0 -10.074493 59.66481 -18.241455 133.26509 -18.241455c73.600266 0 133.26509 8.166962 133.26509 18.241455l0 72.96585c0 10.074524 -59.664825 18.241516 -133.26509 18.241516c-73.60028 0 -133.26509 -8.166992 -133.26509 -18.241516z" fill-rule="evenodd"/><path fill="#000000" fill-opacity="0.0" d="m363.97113 471.50394l0 0c0 10.074493 -59.664825 18.241455 -133.26509 18.241455c-73.60028 0 -133.26509 -8.166962 -133.26509 -18.241455" fill-rule="evenodd"/><path fill="#000000" fill-opacity="0.0" d="m97.44095 471.50394l0 0c0 -10.074493 59.66481 -18.241455 133.26509 -18.241455c73.600266 0 133.26509 8.166962 133.26509 18.241455l0 72.96585c0 10.074524 -59.664825 18.241516 -133.26509 18.241516c-73.60028 0 -133.26509 -8.166992 -133.26509 -18.241516z" fill-rule="evenodd"/><path stroke="#f1c232" stroke-width="1.0" stroke-linejoin="round" stroke-linecap="butt" d="m363.97113 471.50394l0 0c0 10.074493 -59.664825 18.241455 -133.26509 18.241455c-73.60028 0 -133.26509 -8.166962 -133.26509 -18.241455" fill-rule="evenodd"/><path stroke="#f1c232" stroke-width="1.0" stroke-linejoin="round" stroke-linecap="butt" d="m97.44095 471.50394l0 0c0 -10.074493 59.66481 -18.241455 133.26509 -18.241455c73.600266 0 133.26509 8.166962 133.26509 18.241455l0 72.96585c0 10.074524 -59.664825 18.241516 -133.26509 18.241516c-73.60028 0 -133.26509 -8.166992 -133.26509 -18.241516z" fill-rule="evenodd"/><path fill="#000000" d="m222.46367 519.2776l-4.78125 0l0 -1.78125l4.78125 0l0 1.78125zm10.043457 -5.015625q0 0.96875 -0.5 1.734375q-0.5 0.765625 -1.359375 1.203125q1.03125 0.484375 1.59375 1.328125q0.5625 0.828125 0.5625 1.890625q0 1.734375 -1.1875 2.765625q-1.1875 1.03125 -3.15625 1.03125q-1.96875 0 -3.15625 -1.03125q-1.1875 -1.03125 -1.1875 -2.765625q0 -1.078125 0.5625 -1.921875q0.5625 -0.84375 1.578125 -1.296875q-0.859375 -0.4375 -1.359375 -1.203125q-0.484375 -0.765625 -0.484375 -1.734375q0 -1.6875 1.09375 -2.6874695q1.09375 -1.0 2.953125 -1.0q1.859375 0 2.953125 1.0q1.09375 0.9999695 1.09375 2.6874695zm-1.921875 6.046875q0 -0.984375 -0.59375 -1.59375q-0.578125 -0.609375 -1.546875 -0.609375q-0.96875 0 -1.546875 0.609375q-0.578125 0.59375 -0.578125 1.59375q0 0.96875 0.5625 1.5625q0.578125 0.578125 1.578125 0.578125q1.0 0 1.5625 -0.5625q0.5625 -0.578125 0.5625 -1.578125zm-0.28125 -5.96875q0 -0.859375 -0.5 -1.421875q-0.5 -0.5625 -1.34375 -0.5625q-0.84375 0 -1.34375 0.53125q-0.484375 0.53125 -0.484375 1.453125q0 0.921875 0.484375 1.453125q0.5 0.53125 1.34375 0.53125q0.859375 0 1.34375 -0.53125q0.5 -0.53125 0.5 -1.453125zm13.103455 4.109375q0 2.859375 -1.078125 4.3125q-1.0625 1.453125 -3.25 1.453125q-2.15625 0 -3.25 -1.421875q-1.078125 -1.421875 -1.109375 -4.1875l0 -2.296875q0 -2.859375 1.0625 -4.296875q1.078125 -1.4374695 3.28125 -1.4374695q2.171875 0 3.234375 1.40625q1.078125 1.3905945 1.109375 4.1718445l0 2.296875zm-2.21875 -2.484375q0 -1.859375 -0.515625 -2.734375q-0.5 -0.875 -1.609375 -0.875q-1.09375 0 -1.609375 0.828125q-0.5 0.828125 -0.53125 2.578125l0 3.0q0 1.859375 0.515625 2.78125q0.53125 0.90625 1.640625 0.90625q1.0625 0 1.5625 -0.84375q0.515625 -0.84375 0.546875 -2.640625l0 -3.0z" fill-rule="nonzero"/><path fill="#cfe2f3" d="m480.2756 491.1601l125.25729 0l0 66.96478c-62.628662 0 -62.628662 25.51477 -125.25729 11.017761z" fill-rule="evenodd"/><path fill="#000000" d="m526.8829 526.7344q0 2.296875 -1.03125 3.65625q-1.015625 1.359375 -2.8125 1.359375q-1.734375 0 -2.6875 -1.25l-0.109375 1.0625l-2.015625 0l0 -14.0l2.21875 0l0 5.09375q0.953125 -1.125 2.578125 -1.125q1.796875 0 2.828125 1.34375q1.03125 1.328125 1.03125 3.734375l0 0.125zm-2.21875 -0.1875q0 -1.609375 -0.5625 -2.40625q-0.5625 -0.796875 -1.640625 -0.796875q-1.4375 0 -2.015625 1.25l0 4.0625q0.59375 1.28125 2.046875 1.28125q1.03125 0 1.59375 -0.765625q0.5625 -0.78125 0.578125 -2.34375l0 -0.28125zm6.42511 5.015625l-2.203125 0l0 -9.859375l2.203125 0l0 9.859375zm-2.34375 -12.421875q0 -0.5 0.3125 -0.828125q0.328125 -0.34375 0.921875 -0.34375q0.609375 0 0.9375 0.34375q0.328125 0.328125 0.328125 0.828125q0 0.5 -0.328125 0.84375q-0.328125 0.328125 -0.9375 0.328125q-0.59375 0 -0.921875 -0.328125q-0.3125 -0.34375 -0.3125 -0.84375zm6.811157 2.5625l0.0625 1.140625q1.09375 -1.3125 2.875 -1.3125q3.078125 0 3.125 3.515625l0 6.515625l-2.203125 0l0 -6.390625q0 -0.9375 -0.40625 -1.375q-0.40625 -0.453125 -1.328125 -0.453125q-1.34375 0 -2.0 1.203125l0 7.015625l-2.203125 0l0 -9.859375l2.078125 0zm10.672546 9.859375l-2.203125 0l0 -14.0l2.203125 0l0 14.0zm1.9986572 -5.015625q0 -1.453125 0.578125 -2.609375q0.578125 -1.171875 1.609375 -1.78125q1.03125 -0.625 2.390625 -0.625q1.984375 0 3.234375 1.28125q1.25 1.28125 1.34375 3.40625l0.015625 0.515625q0 1.453125 -0.5625 2.609375q-0.5625 1.140625 -1.609375 1.78125q-1.046875 0.625 -2.40625 0.625q-2.09375 0 -3.34375 -1.390625q-1.25 -1.390625 -1.25 -3.703125l0 -0.109375zm2.21875 0.1875q0 1.515625 0.625 2.390625q0.625 0.859375 1.75 0.859375q1.125 0 1.734375 -0.875q0.625 -0.875 0.625 -2.5625q0 -1.5 -0.640625 -2.375q-0.640625 -0.875 -1.734375 -0.875q-1.09375 0 -1.734375 0.859375q-0.625 0.859375 -0.625 2.578125zm8.434204 -0.171875q0 -2.296875 1.078125 -3.65625q1.078125 -1.375 2.859375 -1.375q1.6875 0 2.65625 1.171875l0.09375 -1.0l2.0 0l0 9.5625q0 1.9375 -1.21875 3.046875q-1.203125 1.125 -3.25 1.125q-1.078125 0 -2.109375 -0.453125q-1.03125 -0.4375 -1.578125 -1.171875l1.046875 -1.328125q1.03125 1.203125 2.515625 1.203125q1.109375 0 1.734375 -0.59375q0.640625 -0.59375 0.640625 -1.75l0 -0.671875q-0.953125 1.078125 -2.546875 1.078125q-1.734375 0 -2.828125 -1.375q-1.09375 -1.375 -1.09375 -3.8125zm2.203125 0.1875q0 1.484375 0.59375 2.34375q0.609375 0.84375 1.6875 0.84375q1.34375 0 1.984375 -1.140625l0 -4.34375q-0.625 -1.109375 -1.96875 -1.109375q-1.09375 0 -1.703125 0.859375q-0.59375 0.859375 -0.59375 2.546875z" fill-rule="nonzero"/><path fill="#000000" fill-opacity="0.0" d="m145.93439 113.301834l114.456696 0" fill-rule="evenodd"/><path stroke="#000000" stroke-width="1.0" stroke-linejoin="round" stroke-linecap="butt" d="m145.93439 113.301834l108.456696 0" fill-rule="evenodd"/><path fill="#000000" stroke="#000000" stroke-width="1.0" stroke-linecap="butt" d="m254.39108 114.95357l4.538086 -1.6517334l-4.538086 -1.6517258z" fill-rule="evenodd"/><path fill="#000000" fill-opacity="0.0" d="m151.49869 98.10499l87.2126 0l0 23.181099l-87.2126 0z" fill-rule="evenodd"/><path fill="#ffffff" d="m166.00496 107.10499l58.200043 0l0 16.0l-58.200043 0l0 -16.0z" fill-rule="nonzero"/><path fill="#000000" fill-opacity="0.0" d="m166.00496 107.54002l2.9871216 0l0 15.6188965l-2.9871216 0l0 -15.6188965z" fill-rule="nonzero"/><path fill="#000000" d="m167.89558 119.90498l-0.78125 0l0 -7.046875l0.78125 0l0 7.046875zm-0.921875 -9.078125q0 -0.21875 0.140625 -0.375q0.140625 -0.15625 0.390625 -0.15625q0.25 0 0.390625 0.15625q0.15625 0.15625 0.15625 0.375q0 0.21875 -0.15625 0.375q-0.140625 0.140625 -0.390625 0.140625q-0.25 0 -0.390625 -0.140625q-0.140625 -0.15625 -0.140625 -0.375z" fill-rule="nonzero"/><path fill="#010000" fill-opacity="0.0" d="m168.99208 107.54002l55.21292 0l0 15.6188965l-55.21292 0l0 -15.6188965z" fill-rule="nonzero"/><path fill="#000000" d="m170.74208 112.85811l0.03125 1.203125q0.40625 -0.640625 0.984375 -0.984375q0.59375 -0.34375 1.3125 -0.34375q1.140625 0 1.6875 0.640625q0.546875 0.640625 0.5625 1.90625l0 4.625l-0.78125 0l0 -4.625q0 -0.953125 -0.40625 -1.40625q-0.390625 -0.46875 -1.25 -0.46875q-0.71875 0 -1.28125 0.453125q-0.546875 0.453125 -0.8125 1.21875l0 4.828125l-0.78125 0l0 -7.046875l0.734375 0zm10.80574 5.25q0 -0.578125 -0.46875 -0.921875q-0.46875 -0.359375 -1.40625 -0.546875q-0.9375 -0.203125 -1.453125 -0.453125q-0.515625 -0.265625 -0.765625 -0.625q-0.25 -0.375 -0.25 -0.90625q0 -0.828125 0.6875 -1.375q0.703125 -0.546875 1.796875 -0.546875q1.171875 0 1.875 0.59375q0.71875 0.578125 0.71875 1.515625l-0.78125 0q0 -0.625 -0.515625 -1.03125q-0.515625 -0.421875 -1.296875 -0.421875q-0.765625 0 -1.234375 0.34375q-0.46875 0.34375 -0.46875 0.890625q0 0.53125 0.390625 0.828125q0.390625 0.28125 1.40625 0.53125q1.03125 0.234375 1.53125 0.515625q0.515625 0.265625 0.765625 0.65625q0.25 0.375 0.25 0.921875q0 0.890625 -0.71875 1.421875q-0.71875 0.53125 -1.875 0.53125q-1.234375 0 -2.0 -0.59375q-0.765625 -0.59375 -0.765625 -1.5l0.78125 0q0.046875 0.6875 0.578125 1.0625q0.53125 0.375 1.40625 0.375q0.8125 0 1.3125 -0.359375q0.5 -0.359375 0.5 -0.90625zm5.2486725 1.921875q-0.890625 0 -1.625 -0.4375q-0.71875 -0.4375 -1.125 -1.234375q-0.40625 -0.796875 -0.40625 -1.765625l0 -0.28125q0 -1.015625 0.390625 -1.828125q0.40625 -0.8125 1.109375 -1.28125q0.703125 -0.46875 1.515625 -0.46875q1.28125 0 2.03125 0.875q0.765625 0.875 0.765625 2.390625l0 0.4375l-5.03125 0l0 0.15625q0 1.1875 0.6875 1.984375q0.6875 0.796875 1.734375 0.796875q0.625 0 1.09375 -0.21875q0.484375 -0.234375 0.875 -0.734375l0.484375 0.375q-0.859375 1.234375 -2.5 1.234375zm-0.140625 -6.640625q-0.875 0 -1.484375 0.65625q-0.59375 0.640625 -0.71875 1.734375l4.21875 0l0 -0.09375q-0.03125 -1.015625 -0.578125 -1.65625q-0.546875 -0.640625 -1.4375 -0.640625zm7.557205 0.140625q-0.25 -0.046875 -0.53125 -0.046875q-0.71875 0 -1.234375 0.40625q-0.5 0.40625 -0.703125 1.1875l0 4.828125l-0.78125 0l0 -7.046875l0.765625 0l0.015625 1.125q0.609375 -1.25 1.984375 -1.25q0.3125 0 0.5 0.078125l-0.015625 0.71875zm2.7625732 -2.46875l0 1.796875l1.46875 0l0 0.640625l-1.46875 0l0 4.6875q0 0.59375 0.21875 0.890625q0.21875 0.28125 0.703125 0.28125q0.203125 0 0.640625 -0.078125l0.03125 0.640625q-0.3125 0.109375 -0.84375 0.109375q-0.796875 0 -1.171875 -0.453125q-0.359375 -0.46875 -0.359375 -1.375l0 -4.703125l-1.28125 0l0 -0.640625l1.28125 0l0 -1.796875l0.78125 0zm7.194977 8.84375l-0.78125 0l0 -7.046875l0.78125 0l0 7.046875zm-0.921875 -9.078125q0 -0.21875 0.140625 -0.375q0.140625 -0.15625 0.390625 -0.15625q0.25 0 0.390625 0.15625q0.15625 0.15625 0.15625 0.375q0 0.21875 -0.15625 0.375q-0.140625 0.140625 -0.390625 0.140625q-0.25 0 -0.390625 -0.140625q-0.140625 -0.15625 -0.140625 -0.375zm3.7683716 2.03125l0.03125 1.203125q0.40625 -0.640625 0.984375 -0.984375q0.59375 -0.34375 1.3125 -0.34375q1.140625 0 1.6875 0.640625q0.546875 0.640625 0.5625 1.90625l0 4.625l-0.78125 0l0 -4.625q0 -0.953125 -0.40625 -1.40625q-0.390625 -0.46875 -1.25 -0.46875q-0.71875 0 -1.28125 0.453125q-0.546875 0.453125 -0.8125 1.21875l0 4.828125l-0.78125 0l0 -7.046875l0.734375 0zm7.7901154 -1.796875l0 1.796875l1.46875 0l0 0.640625l-1.46875 0l0 4.6875q0 0.59375 0.21875 0.890625q0.21875 0.28125 0.703125 0.28125q0.203125 0 0.640625 -0.078125l0.03125 0.640625q-0.3125 0.109375 -0.84375 0.109375q-0.796875 0 -1.171875 -0.453125q-0.359375 -0.46875 -0.359375 -1.375l0 -4.703125l-1.28125 0l0 -0.640625l1.28125 0l0 -1.796875l0.78125 0zm2.5113525 5.21875q0 -1.015625 0.390625 -1.828125q0.40625 -0.8125 1.125 -1.265625q0.71875 -0.453125 1.625 -0.453125q1.40625 0 2.28125 0.984375q0.875 0.984375 0.875 2.609375l0 0.171875q0 1.015625 -0.40625 1.84375q-0.390625 0.8125 -1.109375 1.25q-0.703125 0.4375 -1.625 0.4375q-1.390625 0 -2.28125 -0.984375q-0.875 -0.984375 -0.875 -2.609375l0 -0.15625zm0.78125 0.21875q0 1.265625 0.65625 2.078125q0.65625 0.796875 1.71875 0.796875q1.0625 0 1.703125 -0.796875q0.65625 -0.8125 0.65625 -2.140625l0 -0.15625q0 -0.8125 -0.296875 -1.46875q-0.296875 -0.671875 -0.84375 -1.046875q-0.53125 -0.375 -1.234375 -0.375q-1.03125 0 -1.703125 0.828125q-0.65625 0.8125 -0.65625 2.140625l0 0.140625z" fill-rule="nonzero"/><path fill="#010000" fill-opacity="0.0" d="m224.205 107.54002l0 0l0 15.6188965l0 0l0 -15.6188965z" fill-rule="nonzero"/><path fill="#000000" fill-opacity="0.0" d="m632.6247 98.10499l-105.7323 0" fill-rule="evenodd"/><path stroke="#000000" stroke-width="1.0" stroke-linejoin="round" stroke-linecap="butt" d="m632.6247 98.10499l-99.7323 0" fill-rule="evenodd"/><path fill="#000000" stroke="#000000" stroke-width="1.0" stroke-linecap="butt" d="m532.8924 96.453255l-4.538086 1.6517334l4.538086 1.6517334z" fill-rule="evenodd"/><path fill="#000000" fill-opacity="0.0" d="m536.1588 74.908134l87.212585 0l0 30.3937l-87.212585 0z" fill-rule="evenodd"/><path fill="#ffffff" d="m554.469 83.908134l50.592224 0l0 16.0l-50.592224 0l0 -16.0z" fill-rule="nonzero"/><path fill="#000000" fill-opacity="0.0" d="m554.469 84.34318l50.592224 0l0 15.6188965l-50.592224 0l0 -15.6188965z" fill-rule="nonzero"/><path fill="#000000" d="m558.51587 95.53626l0.0625 0.203125l0.0625 -0.203125l2.96875 -8.296875l0.890625 0l-3.53125 9.46875l-0.765625 0l-3.53125 -9.46875l0.875 0l2.96875 8.296875zm10.735107 -1.15625q0 -0.796875 -0.5625 -1.25q-0.546875 -0.453125 -2.015625 -0.859375q-1.46875 -0.421875 -2.15625 -0.90625q-0.953125 -0.703125 -0.953125 -1.8125q0 -1.09375 0.890625 -1.765625q0.890625 -0.6875 2.28125 -0.6875q0.953125 0 1.6875 0.375q0.75 0.359375 1.15625 1.015625q0.421875 0.640625 0.421875 1.4375l-0.8125 0q0 -0.96875 -0.671875 -1.546875q-0.65625 -0.59375 -1.78125 -0.59375q-1.078125 0 -1.734375 0.484375q-0.640625 0.484375 -0.640625 1.265625q0 0.71875 0.578125 1.1875q0.59375 0.453125 1.859375 0.796875q1.28125 0.34375 1.9375 0.71875q0.65625 0.375 0.984375 0.90625q0.328125 0.515625 0.328125 1.21875q0 1.125 -0.890625 1.796875q-0.890625 0.671875 -2.359375 0.671875q-1.0 0 -1.84375 -0.34375q-0.828125 -0.359375 -1.265625 -1.0q-0.421875 -0.65625 -0.421875 -1.484375l0.796875 0q0 1.0 0.75 1.578125q0.75 0.578125 1.984375 0.578125q1.109375 0 1.78125 -0.484375q0.671875 -0.484375 0.671875 -1.296875zm3.550293 -6.515625l0 1.796875l1.46875 0l0 0.640625l-1.46875 0l0 4.6875q0 0.59375 0.21875 0.890625q0.21875 0.28125 0.703125 0.28125q0.203125 0 0.640625 -0.078125l0.03125 0.640625q-0.3125 0.109375 -0.84375 0.109375q-0.796875 0 -1.171875 -0.453125q-0.359375 -0.46875 -0.359375 -1.375l0 -4.703125l-1.28125 0l0 -0.640625l1.28125 0l0 -1.796875l0.78125 0zm6.3290405 2.46875q-0.25 -0.046875 -0.53125 -0.046875q-0.71875 0 -1.234375 0.40625q-0.5 0.40625 -0.703125 1.1875l0 4.828125l-0.78125 0l0 -7.046875l0.765625 0l0.015625 1.125q0.609375 -1.25 1.984375 -1.25q0.3125 0 0.5 0.078125l-0.015625 0.71875zm3.8289795 6.5q-0.890625 0 -1.625 -0.4375q-0.71875 -0.4375 -1.125 -1.234375q-0.40625 -0.796875 -0.40625 -1.765625l0 -0.28125q0 -1.015625 0.390625 -1.828125q0.40625 -0.8125 1.109375 -1.28125q0.703125 -0.46875 1.515625 -0.46875q1.28125 0 2.03125 0.875q0.765625 0.875 0.765625 2.390625l0 0.4375l-5.03125 0l0 0.15625q0 1.1875 0.6875 1.984375q0.6875 0.796875 1.734375 0.796875q0.625 0 1.09375 -0.21875q0.484375 -0.234375 0.875 -0.734375l0.484375 0.375q-0.859375 1.234375 -2.5 1.234375zm-0.140625 -6.640625q-0.875 0 -1.484375 0.65625q-0.59375 0.640625 -0.71875 1.734375l4.21875 0l0 -0.09375q-0.03125 -1.015625 -0.578125 -1.65625q-0.546875 -0.640625 -1.4375 -0.640625zm8.74469 6.515625q-0.109375 -0.328125 -0.140625 -0.984375q-0.40625 0.53125 -1.046875 0.828125q-0.640625 0.28125 -1.34375 0.28125q-1.015625 0 -1.640625 -0.5625q-0.625 -0.5625 -0.625 -1.4375q0 -1.015625 0.84375 -1.609375q0.859375 -0.609375 2.390625 -0.609375l1.40625 0l0 -0.796875q0 -0.765625 -0.46875 -1.1875q-0.453125 -0.4375 -1.34375 -0.4375q-0.8125 0 -1.359375 0.421875q-0.53125 0.40625 -0.53125 1.0l-0.78125 -0.015625q0 -0.828125 0.78125 -1.4375q0.78125 -0.625 1.921875 -0.625q1.1875 0 1.859375 0.59375q0.6875 0.578125 0.703125 1.640625l0 3.328125q0 1.03125 0.21875 1.53125l0 0.078125l-0.84375 0zm-2.4375 -0.5625q0.78125 0 1.390625 -0.375q0.625 -0.375 0.890625 -1.015625l0 -1.546875l-1.390625 0q-1.15625 0.015625 -1.8125 0.4375q-0.65625 0.40625 -0.65625 1.125q0 0.59375 0.4375 0.984375q0.4375 0.390625 1.140625 0.390625zm5.842285 -6.484375l0.03125 1.15625q0.390625 -0.640625 0.96875 -0.953125q0.59375 -0.328125 1.3125 -0.328125q1.65625 0 2.109375 1.359375q0.375 -0.65625 1.0 -1.0q0.640625 -0.359375 1.40625 -0.359375q2.265625 0 2.3125 2.46875l0 4.703125l-0.78125 0l0 -4.640625q-0.015625 -0.9375 -0.421875 -1.390625q-0.390625 -0.46875 -1.296875 -0.46875q-0.84375 0.015625 -1.421875 0.546875q-0.578125 0.53125 -0.640625 1.296875l0 4.65625l-0.78125 0l0 -4.703125q0 -0.90625 -0.421875 -1.34375q-0.421875 -0.453125 -1.296875 -0.453125q-0.734375 0 -1.265625 0.421875q-0.515625 0.421875 -0.78125 1.25l0 4.828125l-0.78125 0l0 -7.046875l0.75 0z" fill-rule="nonzero"/><path fill="#010000" fill-opacity="0.0" d="m605.0612 84.34318l0 0l0 15.6188965l0 0l0 -15.6188965z" fill-rule="nonzero"/><path fill="#000000" fill-opacity="0.0" d="m524.7034 128.49869l110.11023 0" fill-rule="evenodd"/><path stroke="#cc0000" stroke-width="1.0" stroke-linejoin="round" stroke-linecap="butt" d="m524.7034 128.49869l104.11023 0" fill-rule="evenodd"/><path fill="#cc0000" stroke="#cc0000" stroke-width="1.0" stroke-linecap="butt" d="m628.81366 130.15042l4.538086 -1.6517334l-4.538086 -1.6517334z" fill-rule="evenodd"/><path fill="#000000" fill-opacity="0.0" d="m536.1588 111.39501l87.212585 0l0 30.3937l-87.212585 0z" fill-rule="evenodd"/><path fill="#ffffff" d="m556.1676 120.39501l47.195007 0l0 16.000008l-47.195007 0l0 -16.000008z" fill-rule="nonzero"/><path fill="#000000" fill-opacity="0.0" d="m556.1676 120.830055l47.195007 0l0 15.618889l-47.195007 0l0 -15.618889z" fill-rule="nonzero"/><path fill="#cc0000" d="m560.2145 132.02313l0.0625 0.203125l0.0625 -0.203125l2.96875 -8.296867l0.890625 0l-3.53125 9.468742l-0.765625 0l-3.53125 -9.468742l0.875 0l2.96875 8.296867zm10.610046 -3.375l-4.4375 0l0 3.875l5.09375 0l0 0.671875l-5.890625 0l0 -9.468742l5.859375 0l0 0.671875l-5.0625 0l0 3.578125l4.4375 0l0 0.6718674zm4.1780396 3.46875l2.140625 -5.9687424l0.8125 0l-2.640625 7.0468674l-0.625 0l-2.640625 -7.0468674l0.796875 0l2.15625 5.9687424zm6.8568726 1.203125q-0.890625 0 -1.625 -0.4375q-0.71875 -0.4375 -1.125 -1.234375q-0.40625 -0.796875 -0.40625 -1.765625l0 -0.28125q0 -1.015625 0.390625 -1.8281174q0.40625 -0.8125 1.109375 -1.28125q0.703125 -0.46875 1.515625 -0.46875q1.28125 0 2.03125 0.875q0.765625 0.875 0.765625 2.3906174l0 0.4375l-5.03125 0l0 0.15625q0 1.1875 0.6875 1.984375q0.6875 0.796875 1.734375 0.796875q0.625 0 1.09375 -0.21875q0.484375 -0.234375 0.875 -0.734375l0.484375 0.375q-0.859375 1.234375 -2.5 1.234375zm-0.140625 -6.6406174q-0.875 0 -1.484375 0.65625q-0.59375 0.640625 -0.71875 1.7343674l4.21875 0l0 -0.09375q-0.03125 -1.0156174 -0.578125 -1.6562424q-0.546875 -0.640625 -1.4375 -0.640625zm5.041565 -0.53125l0.03125 1.203125q0.40625 -0.640625 0.984375 -0.984375q0.59375 -0.34375 1.3125 -0.34375q1.140625 0 1.6875 0.640625q0.546875 0.640625 0.5625 1.9062424l0 4.625l-0.78125 0l0 -4.625q0 -0.9531174 -0.40625 -1.4062424q-0.390625 -0.46875 -1.25 -0.46875q-0.71875 0 -1.28125 0.453125q-0.546875 0.453125 -0.8125 1.2187424l0 4.828125l-0.78125 0l0 -7.0468674l0.734375 0zm7.790161 -1.796875l0 1.796875l1.46875 0l0 0.640625l-1.46875 0l0 4.6874924q0 0.59375 0.21875 0.890625q0.21875 0.28125 0.703125 0.28125q0.203125 0 0.640625 -0.078125l0.03125 0.640625q-0.3125 0.109375 -0.84375 0.109375q-0.796875 0 -1.171875 -0.453125q-0.359375 -0.46875 -0.359375 -1.375l0 -4.7031174l-1.28125 0l0 -0.640625l1.28125 0l0 -1.796875l0.78125 0zm7.2977905 7.0468674q0 -0.578125 -0.46875 -0.921875q-0.46875 -0.359375 -1.40625 -0.546875q-0.9375 -0.203125 -1.453125 -0.453125q-0.515625 -0.265625 -0.765625 -0.625q-0.25 -0.375 -0.25 -0.9062424q0 -0.828125 0.6875 -1.375q0.703125 -0.546875 1.796875 -0.546875q1.171875 0 1.875 0.59375q0.71875 0.578125 0.71875 1.5156174l-0.78125 0q0 -0.6249924 -0.515625 -1.0312424q-0.515625 -0.421875 -1.296875 -0.421875q-0.765625 0 -1.234375 0.34375q-0.46875 0.34375 -0.46875 0.890625q0 0.5312424 0.390625 0.8281174q0.390625 0.28125 1.40625 0.53125q1.03125 0.234375 1.53125 0.515625q0.515625 0.265625 0.765625 0.65625q0.25 0.375 0.25 0.921875q0 0.890625 -0.71875 1.421875q-0.71875 0.53125 -1.875 0.53125q-1.234375 0 -2.0 -0.59375q-0.765625 -0.59375 -0.765625 -1.5l0.78125 0q0.046875 0.6875 0.578125 1.0625q0.53125 0.375 1.40625 0.375q0.8125 0 1.3125 -0.359375q0.5 -0.359375 0.5 -0.90625z" fill-rule="nonzero"/><path fill="#010000" fill-opacity="0.0" d="m603.3626 120.830055l0 0l0 15.618889l0 0l0 -15.618889z" fill-rule="nonzero"/><path fill="#000000" fill-opacity="0.0" d="m499.7349 149.78084c0 33.551178 18.22049 50.326767 36.44095 67.10237c18.220459 16.775589 36.44098 33.551178 36.44098 67.102356" fill-rule="evenodd"/><path stroke="#000000" stroke-width="1.0" stroke-linejoin="round" stroke-linecap="butt" d="m499.7349 149.78084c0 33.551178 18.22049 50.326767 36.44095 67.10237c9.1102295 8.387787 18.220459 16.775589 25.053162 27.26033c3.4163208 5.2423706 6.2633057 11.008972 8.256165 17.561935c0.9963989 3.2764893 1.7793579 6.749542 2.3131714 10.451996c0.2668457 1.8511963 0.47149658 3.759735 0.609375 5.7297363l0.006713867 0.10177612" fill-rule="evenodd"/><path fill="#000000" stroke="#000000" stroke-width="1.0" stroke-linecap="butt" d="m570.7636 278.0447l1.803894 4.4797974l1.4976807 -4.5912476z" fill-rule="evenodd"/><path fill="#000000" fill-opacity="0.0" d="m553.1575 283.99475c0 -33.551178 -18.220459 -50.326767 -36.440918 -67.102356c-18.22049 -16.775604 -36.44095 -33.551193 -36.44095 -67.10237" fill-rule="evenodd"/><path stroke="#cc0000" stroke-width="1.0" stroke-linejoin="round" stroke-linecap="butt" d="m553.1575 283.99475c0 -33.551178 -18.220459 -50.326767 -36.440918 -67.102356c-9.11026 -8.387802 -18.22049 -16.775604 -25.053162 -27.260345c-3.4163513 -5.2423706 -6.2633057 -11.008972 -8.256165 -17.561935c-0.99642944 -3.2764893 -1.7793579 -6.7495575 -2.3131409 -10.451981c-0.26690674 -1.8512115 -0.47149658 -3.759781 -0.60943604 -5.7297516l-0.0066833496 -0.10177612" fill-rule="evenodd"/><path fill="#cc0000" stroke="#cc0000" stroke-width="1.0" stroke-linecap="butt" d="m482.12878 155.7309l-1.8038635 -4.4797974l-1.4977112 4.5912323z" fill-rule="evenodd"/><path fill="#000000" fill-opacity="0.0" d="m464.2756 149.79002c0 33.549164 -40.771667 50.322754 -81.543335 67.09834c-40.771637 16.775589 -81.543304 33.553192 -81.543304 67.106384" fill-rule="evenodd"/><path stroke="#000000" stroke-width="1.0" stroke-linejoin="round" stroke-linecap="butt" d="m464.2756 149.79002c0 33.54918 -40.771667 50.322754 -81.543335 67.09834c-20.385803 8.387802 -40.771637 16.776093 -56.061005 27.261581c-7.644684 5.2427673 -14.015259 11.009811 -18.47467 17.563248c-2.2296753 3.276703 -3.981598 6.7500305 -5.1760864 10.452698c-0.597229 1.8513489 -1.0551147 3.7600098 -1.363678 5.730133l-0.016967773 0.11569214" fill-rule="evenodd"/><path fill="#000000" stroke="#000000" stroke-width="1.0" stroke-linecap="butt" d="m299.9928 277.8876l1.3060303 4.6493835l1.9880981 -4.4011536z" fill-rule="evenodd"/><path fill="#000000" fill-opacity="0.0" d="m436.27298 149.78215c0 33.549164 -40.771667 50.322754 -81.543335 67.09834c-40.771637 16.775589 -81.543304 33.553192 -81.543304 67.106384" fill-rule="evenodd"/><path stroke="#cc0000" stroke-width="1.0" stroke-linejoin="round" stroke-linecap="butt" d="m435.82196 155.76517l-0.016845703 0.11495972c-0.30856323 1.9698639 -0.766449 3.878296 -1.363678 5.7293854c-1.194458 3.7021637 -2.9464111 7.175003 -5.1760864 10.451248c-4.4594116 6.55249 -10.829987 12.318665 -18.47467 17.560654c-15.289368 10.483978 -35.6752 18.871292 -56.061035 27.259079c-40.771637 16.775589 -81.543304 33.553192 -81.543304 67.106384" fill-rule="evenodd"/><path fill="#cc0000" stroke="#cc0000" stroke-width="1.0" stroke-linecap="butt" d="m437.46902 155.88933l-1.3059387 -4.649414l-1.9881592 4.401108z" fill-rule="evenodd"/><path fill="#000000" fill-opacity="0.0" d="m323.00525 149.79002c0 33.549164 -40.771667 50.322754 -81.543304 67.09834c-40.771652 16.775589 -81.543304 33.553192 -81.543304 67.106384" fill-rule="evenodd"/><path stroke="#000000" stroke-width="1.0" stroke-linejoin="round" stroke-linecap="butt" d="m323.00525 149.79002c0 33.54918 -40.771667 50.322754 -81.543304 67.09834c-20.385834 8.387802 -40.771652 16.776093 -56.06102 27.261581c-7.644684 5.2427673 -14.015259 11.009811 -18.474655 17.563248c-2.2297058 3.276703 -3.9816132 6.7500305 -5.1761017 10.452698c-0.59724426 1.8513489 -1.0551147 3.7600098 -1.3636932 5.730133l-0.016952515 0.11569214" fill-rule="evenodd"/><path fill="#000000" stroke="#000000" stroke-width="1.0" stroke-linecap="butt" d="m158.72246 277.8876l1.3060303 4.6493835l1.9880981 -4.4011536z" fill-rule="evenodd"/><path fill="#000000" fill-opacity="0.0" d="m143.9029 356.9475c0 24.078735 17.700775 36.118103 35.401566 48.15747c17.70079 12.039368 35.40158 24.078735 35.40158 48.1575" fill-rule="evenodd"/><path stroke="#000000" stroke-width="1.0" stroke-linejoin="round" stroke-linecap="butt" d="m143.9029 356.9475c0 24.078735 17.700775 36.118103 35.401566 48.15747c8.850403 6.019684 17.70079 12.039368 24.338593 19.563995c3.3188934 3.7622986 6.0846405 7.900818 8.02066 12.603699c0.9680176 2.35141 1.7285919 4.8439636 2.2471771 7.5010986c0.12962341 0.6642456 0.24415588 1.3388367 0.34300232 2.0240784l0.065841675 0.4770813" fill-rule="evenodd"/><path fill="#000000" stroke="#000000" stroke-width="1.0" stroke-linecap="butt" d="m212.67143 447.38126l1.9404755 4.422333l1.3561401 -4.63501z" fill-rule="evenodd"/><path fill="#000000" fill-opacity="0.0" d="m317.1942 356.9475c0 24.078735 -17.62204 36.118103 -35.24408 48.15747c-17.62204 12.039368 -35.244095 24.078735 -35.244095 48.1575" fill-rule="evenodd"/><path stroke="#000000" stroke-width="1.0" stroke-linejoin="round" stroke-linecap="butt" d="m317.1942 356.9475c0 24.078735 -17.62204 36.118103 -35.24408 48.15747c-8.811035 6.019684 -17.62204 12.039368 -24.230316 19.563995c-3.3041382 3.7622986 -6.0575867 7.900818 -7.9849854 12.603699c-0.9637146 2.35141 -1.7209167 4.8439636 -2.2371674 7.5010986c-0.12908936 0.6642456 -0.24308777 1.3388367 -0.3414917 2.0240784l-0.0655365 0.47695923" fill-rule="evenodd"/><path fill="#000000" stroke="#000000" stroke-width="1.0" stroke-linecap="butt" d="m245.4423 447.16895l1.3574371 4.634613l1.9392242 -4.422882z" fill-rule="evenodd"/><path fill="#000000" fill-opacity="0.0" d="m135.69817 389.91602l87.2126 0l0 30.393707l-87.2126 0z" fill-rule="evenodd"/><path fill="#ffffff" d="m150.20444 398.91602l58.200043 0l0 16.0l-58.200043 0l0 -16.0z" fill-rule="nonzero"/><path fill="#000000" fill-opacity="0.0" d="m150.20444 399.35104l58.200043 0l0 15.6188965l-58.200043 0l0 -15.6188965z" fill-rule="nonzero"/><path fill="#000000" d="m152.09506 411.716l-0.78125 0l0 -7.046875l0.78125 0l0 7.046875zm-0.921875 -9.078125q0 -0.21875 0.140625 -0.375q0.140625 -0.15625 0.390625 -0.15625q0.25 0 0.390625 0.15625q0.15625 0.15625 0.15625 0.375q0 0.21875 -0.15625 0.375q-0.140625 0.140625 -0.390625 0.140625q-0.25 0 -0.390625 -0.140625q-0.140625 -0.15625 -0.140625 -0.375zm3.7683716 2.03125l0.03125 1.203125q0.40625 -0.640625 0.984375 -0.984375q0.59375 -0.34375 1.3125 -0.34375q1.140625 0 1.6875 0.640625q0.546875 0.640625 0.5625 1.90625l0 4.625l-0.78125 0l0 -4.625q0 -0.953125 -0.40625 -1.40625q-0.390625 -0.46875 -1.25 -0.46875q-0.71875 0 -1.28125 0.453125q-0.546875 0.453125 -0.8125 1.21875l0 4.828125l-0.78125 0l0 -7.046875l0.734375 0zm10.80574 5.25q0 -0.578125 -0.46875 -0.921875q-0.46875 -0.359375 -1.40625 -0.546875q-0.9375 -0.203125 -1.453125 -0.453125q-0.515625 -0.265625 -0.765625 -0.625q-0.25 -0.375 -0.25 -0.90625q0 -0.828125 0.6875 -1.375q0.703125 -0.546875 1.796875 -0.546875q1.171875 0 1.875 0.59375q0.71875 0.578125 0.71875 1.515625l-0.78125 0q0 -0.625 -0.515625 -1.03125q-0.515625 -0.421875 -1.296875 -0.421875q-0.765625 0 -1.234375 0.34375q-0.46875 0.34375 -0.46875 0.890625q0 0.53125 0.390625 0.828125q0.390625 0.28125 1.40625 0.53125q1.03125 0.234375 1.53125 0.515625q0.515625 0.265625 0.765625 0.65625q0.25 0.375 0.25 0.921875q0 0.890625 -0.71875 1.421875q-0.71875 0.53125 -1.875 0.53125q-1.234375 0 -2.0 -0.59375q-0.765625 -0.59375 -0.765625 -1.5l0.78125 0q0.046875 0.6875 0.578125 1.0625q0.53125 0.375 1.40625 0.375q0.8125 0 1.3125 -0.359375q0.5 -0.359375 0.5 -0.90625zm5.2486725 1.921875q-0.890625 0 -1.625 -0.4375q-0.71875 -0.4375 -1.125 -1.234375q-0.40625 -0.796875 -0.40625 -1.765625l0 -0.28125q0 -1.015625 0.390625 -1.828125q0.40625 -0.8125 1.109375 -1.28125q0.703125 -0.46875 1.515625 -0.46875q1.28125 0 2.03125 0.875q0.765625 0.875 0.765625 2.390625l0 0.4375l-5.03125 0l0 0.15625q0 1.1875 0.6875 1.984375q0.6875 0.796875 1.734375 0.796875q0.625 0 1.09375 -0.21875q0.484375 -0.234375 0.875 -0.734375l0.484375 0.375q-0.859375 1.234375 -2.5 1.234375zm-0.140625 -6.640625q-0.875 0 -1.484375 0.65625q-0.59375 0.640625 -0.71875 1.734375l4.21875 0l0 -0.09375q-0.03125 -1.015625 -0.578125 -1.65625q-0.546875 -0.640625 -1.4375 -0.640625zm7.557205 0.140625q-0.25 -0.046875 -0.53125 -0.046875q-0.71875 0 -1.234375 0.40625q-0.5 0.40625 -0.703125 1.1875l0 4.828125l-0.78125 0l0 -7.046875l0.765625 0l0.015625 1.125q0.609375 -1.25 1.984375 -1.25q0.3125 0 0.5 0.078125l-0.015625 0.71875zm2.7625732 -2.46875l0 1.796875l1.46875 0l0 0.640625l-1.46875 0l0 4.6875q0 0.59375 0.21875 0.890625q0.21875 0.28125 0.703125 0.28125q0.203125 0 0.640625 -0.078125l0.03125 0.640625q-0.3125 0.109375 -0.84375 0.109375q-0.796875 0 -1.171875 -0.453125q-0.359375 -0.46875 -0.359375 -1.375l0 -4.703125l-1.28125 0l0 -0.640625l1.28125 0l0 -1.796875l0.78125 0zm7.194977 8.84375l-0.78125 0l0 -7.046875l0.78125 0l0 7.046875zm-0.921875 -9.078125q0 -0.21875 0.140625 -0.375q0.140625 -0.15625 0.390625 -0.15625q0.25 0 0.390625 0.15625q0.15625 0.15625 0.15625 0.375q0 0.21875 -0.15625 0.375q-0.140625 0.140625 -0.390625 0.140625q-0.25 0 -0.390625 -0.140625q-0.140625 -0.15625 -0.140625 -0.375zm3.7683716 2.03125l0.03125 1.203125q0.40625 -0.640625 0.984375 -0.984375q0.59375 -0.34375 1.3125 -0.34375q1.140625 0 1.6875 0.640625q0.546875 0.640625 0.5625 1.90625l0 4.625l-0.78125 0l0 -4.625q0 -0.953125 -0.40625 -1.40625q-0.390625 -0.46875 -1.25 -0.46875q-0.71875 0 -1.28125 0.453125q-0.546875 0.453125 -0.8125 1.21875l0 4.828125l-0.78125 0l0 -7.046875l0.734375 0zm7.7901154 -1.796875l0 1.796875l1.46875 0l0 0.640625l-1.46875 0l0 4.6875q0 0.59375 0.21875 0.890625q0.21875 0.28125 0.703125 0.28125q0.203125 0 0.640625 -0.078125l0.03125 0.640625q-0.3125 0.109375 -0.84375 0.109375q-0.796875 0 -1.171875 -0.453125q-0.359375 -0.46875 -0.359375 -1.375l0 -4.703125l-1.28125 0l0 -0.640625l1.28125 0l0 -1.796875l0.78125 0zm2.5113525 5.21875q0 -1.015625 0.390625 -1.828125q0.40625 -0.8125 1.125 -1.265625q0.71875 -0.453125 1.625 -0.453125q1.40625 0 2.28125 0.984375q0.875 0.984375 0.875 2.609375l0 0.171875q0 1.015625 -0.40625 1.84375q-0.390625 0.8125 -1.109375 1.25q-0.703125 0.4375 -1.625 0.4375q-1.390625 0 -2.28125 -0.984375q-0.875 -0.984375 -0.875 -2.609375l0 -0.15625zm0.78125 0.21875q0 1.265625 0.65625 2.078125q0.65625 0.796875 1.71875 0.796875q1.0625 0 1.703125 -0.796875q0.65625 -0.8125 0.65625 -2.140625l0 -0.15625q0 -0.8125 -0.296875 -1.46875q-0.296875 -0.671875 -0.84375 -1.046875q-0.53125 -0.375 -1.234375 -0.375q-1.03125 0 -1.703125 0.828125q-0.65625 0.8125 -0.65625 2.140625l0 0.140625z" fill-rule="nonzero"/><path fill="#000000" fill-opacity="0.0" d="m208.40448 399.35104l0 0l0 15.6188965l0 0l0 -15.6188965z" fill-rule="nonzero"/><path fill="#000000" fill-opacity="0.0" d="m229.08398 389.91602l105.7323 0l0 30.393707l-105.7323 0z" fill-rule="evenodd"/><path fill="#ffffff" d="m247.21758 398.91602l69.4651 0l0 16.0l-69.4651 0l0 -16.0z" fill-rule="nonzero"/><path fill="#000000" fill-opacity="0.0" d="m247.21758 399.35104l69.4651 0l0 15.6188965l-69.4651 0l0 -15.6188965z" fill-rule="nonzero"/><path fill="#000000" d="m253.90508 408.26288q0 1.65625 -0.734375 2.625q-0.734375 0.953125 -1.953125 0.953125q-1.46875 0 -2.234375 -1.09375l-0.03125 0.96875l-0.71875 0l0 -10.0l0.765625 0l0 3.984375q0.75 -1.15625 2.203125 -1.15625q1.25 0 1.96875 0.953125q0.734375 0.953125 0.734375 2.65625l0 0.109375zm-0.78125 -0.125q0 -1.40625 -0.546875 -2.15625q-0.53125 -0.765625 -1.515625 -0.765625q-0.75 0 -1.28125 0.375q-0.515625 0.359375 -0.78125 1.078125l0 3.171875q0.59375 1.328125 2.078125 1.328125q0.953125 0 1.5 -0.75q0.546875 -0.765625 0.546875 -2.28125zm3.3708344 3.578125l-0.78126526 0l0 -7.046875l0.78126526 0l0 7.046875zm-0.92189026 -9.078125q0 -0.21875 0.140625 -0.375q0.140625 -0.15625 0.39064026 -0.15625q0.25 0 0.390625 0.15625q0.15625 0.15625 0.15625 0.375q0 0.21875 -0.15625 0.375q-0.140625 0.140625 -0.390625 0.140625q-0.25001526 0 -0.39064026 -0.140625q-0.140625 -0.15625 -0.140625 -0.375zm3.7683868 2.03125l0.03125 1.203125q0.40625 -0.640625 0.984375 -0.984375q0.59375 -0.34375 1.3125 -0.34375q1.140625 0 1.6875 0.640625q0.546875 0.640625 0.5625 1.90625l0 4.625l-0.78125 0l0 -4.625q0 -0.953125 -0.40625 -1.40625q-0.390625 -0.46875 -1.25 -0.46875q-0.71875 0 -1.28125 0.453125q-0.546875 0.453125 -0.8125 1.21875l0 4.828125l-0.78125 0l0 -7.046875l0.734375 0zm7.461975 7.046875l-0.78125 0l0 -10.0l0.78125 0l0 10.0zm1.6746216 -3.625q0 -1.015625 0.390625 -1.828125q0.40625 -0.8125 1.125 -1.265625q0.71875 -0.453125 1.625 -0.453125q1.40625 0 2.28125 0.984375q0.875 0.984375 0.875 2.609375l0 0.171875q0 1.015625 -0.40625 1.84375q-0.390625 0.8125 -1.109375 1.25q-0.703125 0.4375 -1.625 0.4375q-1.390625 0 -2.28125 -0.984375q-0.875 -0.984375 -0.875 -2.609375l0 -0.15625zm0.78125 0.21875q0 1.265625 0.65625 2.078125q0.65625 0.796875 1.71875 0.796875q1.0625 0 1.703125 -0.796875q0.65625 -0.8125 0.65625 -2.140625l0 -0.15625q0 -0.8125 -0.296875 -1.46875q-0.296875 -0.671875 -0.84375 -1.046875q-0.53125 -0.375 -1.234375 -0.375q-1.03125 0 -1.703125 0.828125q-0.65625 0.8125 -0.65625 2.140625l0 0.140625zm6.8082886 -0.171875q0 -1.65625 0.734375 -2.625q0.734375 -0.96875 1.984375 -0.96875q1.4375 0 2.1875 1.140625l0.046875 -1.015625l0.71875 0l0 6.90625q0 1.359375 -0.765625 2.15625q-0.75 0.796875 -2.0625 0.796875q-0.734375 0 -1.40625 -0.34375q-0.65625 -0.328125 -1.046875 -0.875l0.4375 -0.46875q0.828125 1.015625 1.96875 1.015625q0.984375 0 1.53125 -0.578125q0.546875 -0.5625 0.5625 -1.59375l0 -0.875q-0.75 1.03125 -2.1875 1.03125q-1.21875 0 -1.96875 -0.96875q-0.734375 -0.984375 -0.734375 -2.640625l0 -0.09375zm0.78125 0.125q0 1.34375 0.546875 2.125q0.546875 0.78125 1.515625 0.78125q1.4375 0 2.046875 -1.28125l0 -3.28125q-0.28125 -0.671875 -0.796875 -1.03125q-0.515625 -0.359375 -1.234375 -0.359375q-0.984375 0 -1.53125 0.78125q-0.546875 0.765625 -0.546875 2.265625zm6.6116943 -0.125q0 -1.640625 0.734375 -2.609375q0.734375 -0.984375 1.984375 -0.984375q1.421875 0 2.171875 1.125l0 -3.953125l0.78125 0l0 10.0l-0.734375 0l-0.03125 -0.9375q-0.75 1.0625 -2.203125 1.0625q-1.21875 0 -1.96875 -0.96875q-0.734375 -0.984375 -0.734375 -2.65625l0 -0.078125zm0.78125 0.125q0 1.34375 0.546875 2.125q0.546875 0.78125 1.515625 0.78125q1.4375 0 2.046875 -1.265625l0 -3.3125q-0.609375 -1.375 -2.03125 -1.375q-0.984375 0 -1.53125 0.78125q-0.546875 0.765625 -0.546875 2.265625zm11.468475 2.5625q-0.703125 1.015625 -2.25 1.015625q-1.125 0 -1.71875 -0.640625q-0.578125 -0.65625 -0.59375 -1.9375l0 -4.59375l0.78125 0l0 4.484375q0 2.015625 1.625 2.015625q1.6875 0 2.140625 -1.40625l0 -5.09375l0.78125 0l0 7.046875l-0.75 0l-0.015625 -0.890625zm3.493225 -6.15625l0.03125 1.15625q0.390625 -0.640625 0.96875 -0.953125q0.59375 -0.328125 1.3125 -0.328125q1.65625 0 2.109375 1.359375q0.375 -0.65625 1.0 -1.0q0.640625 -0.359375 1.40625 -0.359375q2.265625 0 2.3125 2.46875l0 4.703125l-0.78125 0l0 -4.640625q-0.015625 -0.9375 -0.421875 -1.390625q-0.390625 -0.46875 -1.296875 -0.46875q-0.84375 0.015625 -1.421875 0.546875q-0.578125 0.53125 -0.640625 1.296875l0 4.65625l-0.78125 0l0 -4.703125q0 -0.90625 -0.421875 -1.34375q-0.421875 -0.453125 -1.296875 -0.453125q-0.734375 0 -1.265625 0.421875q-0.515625 0.421875 -0.78125 1.25l0 4.828125l-0.78125 0l0 -7.046875l0.75 0zm16.764923 3.59375q0 1.65625 -0.734375 2.625q-0.71875 0.953125 -1.9375 0.953125q-1.453125 0 -2.21875 -1.015625l0 3.59375l-0.765625 0l0 -9.75l0.71875 0l0.03125 1.0q0.765625 -1.125 2.203125 -1.125q1.265625 0 1.984375 0.953125q0.71875 0.953125 0.71875 2.65625l0 0.109375zm-0.78125 -0.125q0 -1.359375 -0.546875 -2.140625q-0.546875 -0.78125 -1.546875 -0.78125q-0.71875 0 -1.234375 0.34375q-0.5 0.34375 -0.78125 1.015625l0 3.375q0.28125 0.59375 0.796875 0.921875q0.53125 0.3125 1.234375 0.3125q0.984375 0 1.53125 -0.78125q0.546875 -0.78125 0.546875 -2.265625z" fill-rule="nonzero"/><path fill="#010000" fill-opacity="0.0" d="m316.68268 399.35104l0 0l0 15.6188965l0 0l0 -15.6188965z" fill-rule="nonzero"/><path fill="#000000" fill-opacity="0.0" d="m230.70604 562.7113c0 12.5 52.982986 25.319702 95.708206 25.0c42.72519 -0.31970215 75.19263 -13.778748 95.70819 -27.397644c20.515533 -13.6188965 29.079193 -27.397644 58.158417 -27.397644" fill-rule="evenodd"/><path stroke="#000000" stroke-width="1.0" stroke-linejoin="round" stroke-linecap="butt" d="m230.70604 562.7113c0 12.5 52.982986 25.319702 95.708176 25.0c42.72522 -0.31970215 75.19266 -13.778748 95.70819 -27.397644c10.257751 -6.8094482 17.527618 -13.6588745 25.867828 -18.805908c4.170166 -2.5735474 8.60791 -4.7214355 13.820587 -6.226013c2.6062927 -0.75231934 5.406372 -1.343689 8.463593 -1.7470703c0.76431274 -0.10083008 1.5446472 -0.1899414 2.342102 -0.2668457c0.39871216 -0.03845215 0.80166626 -0.07385254 1.2090759 -0.10614014l0.45898438 -0.034484863" fill-rule="evenodd"/><path fill="#000000" stroke="#000000" stroke-width="1.0" stroke-linecap="butt" d="m474.34268 534.7779l4.477173 -1.8104248l-4.593445 -1.4909668z" fill-rule="evenodd"/><path fill="#000000" fill-opacity="0.0" d="m542.90424 491.1601c0 -12.4999695 -34.146454 -24.454529 -60.39035 -24.999939c-26.243896 -0.54541016 -44.585205 10.318359 -60.39038 20.909424c-15.805176 10.591064 -29.074188 20.909424 -58.148376 20.909424" fill-rule="evenodd"/><path stroke="#cc0000" stroke-width="1.0" stroke-linejoin="round" stroke-linecap="butt" d="m542.90424 491.1601c0 -12.499939 -34.146454 -24.45456 -60.39038 -24.999939c-26.243896 -0.54541016 -44.585175 10.318359 -60.39032 20.909424c-7.9026184 5.295532 -15.171204 10.522888 -24.098358 14.426361c-4.4635925 1.9517212 -9.341827 3.5725098 -14.921295 4.705353c-2.789734 0.56637573 -5.7547913 1.0108032 -8.930969 1.3136597c-0.7940674 0.07571411 -1.6013184 0.14257812 -2.4223022 0.20025635c-0.41052246 0.028839111 -0.8244324 0.055419922 -1.2419128 0.07965088l-0.53564453 0.027862549" fill-rule="evenodd"/><path fill="#cc0000" stroke="#cc0000" stroke-width="1.0" stroke-linecap="butt" d="m369.93005 506.17154l-4.4935303 1.7693787l4.5795593 1.532959z" fill-rule="evenodd"/><path fill="#000000" fill-opacity="0.0" d="m363.97113 507.98688c12.5000305 0 25.300842 -28.584534 25.00003 -50.68112c-0.30078125 -22.096588 -13.7031555 -37.70526 -27.25592 -50.68112c-13.552765 -12.975861 -27.25592 -23.318878 -27.25592 -46.637756" fill-rule="evenodd"/><path stroke="#cc0000" stroke-width="1.0" stroke-linejoin="round" stroke-linecap="butt" d="m363.97113 507.98688c12.5000305 0 25.300812 -28.584534 25.00003 -50.68109c-0.30075073 -22.096619 -13.7031555 -37.705322 -27.25589 -50.681152c-6.776367 -6.487915 -13.590393 -12.317627 -18.710266 -19.440247c-2.559967 -3.5612793 -4.6963806 -7.445801 -6.19281 -11.89743c-0.74823 -2.2257996 -1.3364258 -4.593384 -1.7376099 -7.1332397c-0.10028076 -0.63497925 -0.18887329 -1.2807007 -0.26538086 -1.9376831l-0.026489258 -0.23788452" fill-rule="evenodd"/><path fill="#cc0000" stroke="#cc0000" stroke-width="1.0" stroke-linecap="butt" d="m336.43207 365.88913l-1.8939514 -4.4424744l-1.4047241 4.6205444z" fill-rule="evenodd"/><path fill="#000000" fill-opacity="0.0" d="m436.27167 441.89633l87.212585 0l0 30.393707l-87.212585 0z" fill-rule="evenodd"/><path fill="#ffffff" d="m458.9779 450.89633l41.80011 0l0 16.0l-41.80011 0l0 -16.0z" fill-rule="nonzero"/><path fill="#000000" fill-opacity="0.0" d="m458.9779 451.33136l41.80011 0l0 15.6188965l-41.80011 0l0 -15.6188965z" fill-rule="nonzero"/><path fill="#cc0000" d="m461.24353 454.22757l3.484375 8.359375l3.515625 -8.359375l1.0625 0l0 9.46875l-0.796875 0l0 -4.125l0.0625 -4.234375l-3.53125 8.359375l-0.609375 0l-3.515625 -8.328125l0.0625 4.171875l0 4.15625l-0.796875 0l0 -9.46875l1.0625 0zm12.516327 8.34375l2.046875 -5.921875l0.84375 0l-3.0 8.25l-0.15625 0.359375q-0.578125 1.28125 -1.796875 1.28125q-0.28125 0 -0.59375 -0.09375l-0.015625 -0.640625l0.40625 0.03125q0.578125 0 0.921875 -0.28125q0.359375 -0.28125 0.609375 -0.96875l0.34375 -0.953125l-2.65625 -6.984375l0.859375 0l2.1875 5.921875zm9.644684 -1.203125q0 -0.796875 -0.5625 -1.25q-0.546875 -0.453125 -2.015625 -0.859375q-1.46875 -0.421875 -2.15625 -0.90625q-0.953125 -0.703125 -0.953125 -1.8125q0 -1.09375 0.890625 -1.765625q0.890625 -0.6875 2.28125 -0.6875q0.953125 0 1.6875 0.375q0.75 0.359375 1.15625 1.015625q0.421875 0.640625 0.421875 1.4375l-0.8125 0q0 -0.96875 -0.671875 -1.546875q-0.65625 -0.59375 -1.78125 -0.59375q-1.078125 0 -1.734375 0.484375q-0.640625 0.484375 -0.640625 1.265625q0 0.71875 0.578125 1.1875q0.59375 0.453125 1.859375 0.796875q1.28125 0.34375 1.9375 0.71875q0.65625 0.375 0.984375 0.90625q0.328125 0.515625 0.328125 1.21875q0 1.125 -0.890625 1.796875q-0.890625 0.671875 -2.359375 0.671875q-1.0 0 -1.84375 -0.34375q-0.828125 -0.359375 -1.265625 -1.0q-0.421875 -0.65625 -0.421875 -1.484375l0.796875 0q0 1.0 0.75 1.578125q0.75 0.578125 1.984375 0.578125q1.109375 0 1.78125 -0.484375q0.671875 -0.484375 0.671875 -1.296875zm9.503418 -1.890625q0 1.34375 -0.484375 2.359375q-0.46875 1.0 -1.359375 1.515625l1.734375 1.5l-0.5625 0.5l-1.921875 -1.671875q-0.546875 0.140625 -1.09375 0.140625q-1.078125 0 -1.921875 -0.53125q-0.84375 -0.53125 -1.3125 -1.5q-0.453125 -0.984375 -0.46875 -2.265625l0 -1.0625q0 -1.296875 0.453125 -2.296875q0.46875 -1.0 1.3125 -1.53125q0.84375 -0.546875 1.921875 -0.546875q1.109375 0 1.9375 0.546875q0.84375 0.53125 1.296875 1.53125q0.46875 0.984375 0.46875 2.28125l0 1.03125zm-0.796875 -1.03125q0 -1.71875 -0.78125 -2.6875q-0.765625 -0.96875 -2.125 -0.96875q-1.3125 0 -2.09375 0.984375q-0.78125 0.96875 -0.78125 2.703125l0 1.0q0 1.6875 0.765625 2.671875q0.78125 0.984375 2.125 0.984375q1.359375 0 2.125 -0.96875q0.765625 -0.96875 0.765625 -2.71875l0 -1.0zm3.644928 4.578125l4.6875 0l0 0.671875l-5.484375 0l0 -9.46875l0.796875 0l0 8.796875z" fill-rule="nonzero"/><path fill="#000000" fill-opacity="0.0" d="m500.778 451.33136l3.2409058 0l0 15.6188965l-3.2409058 0l0 -15.6188965z" fill-rule="nonzero"/><path fill="#ffffff" d="m462.1082 466.89633l35.53955 0l0 16.0l-35.53955 0l0 -16.0z" fill-rule="nonzero"/><path fill="#000000" fill-opacity="0.0" d="m462.1082 467.33136l35.53955 0l0 15.6188965l-35.53955 0l0 -15.6188965z" fill-rule="nonzero"/><path fill="#cc0000" d="m468.7957 476.2432q0 1.65625 -0.734375 2.625q-0.734375 0.953125 -1.953125 0.953125q-1.46875 0 -2.234375 -1.09375l-0.03125 0.96875l-0.71875 0l0 -10.0l0.765625 0l0 3.984375q0.75 -1.15625 2.203125 -1.15625q1.25 0 1.96875 0.953125q0.734375 0.953125 0.734375 2.65625l0 0.109375zm-0.78125 -0.125q0 -1.40625 -0.546875 -2.15625q-0.53125 -0.765625 -1.515625 -0.765625q-0.75 0 -1.28125 0.375q-0.515625 0.359375 -0.78125 1.078125l0 3.171875q0.59375 1.328125 2.078125 1.328125q0.953125 0 1.5 -0.75q0.546875 -0.765625 0.546875 -2.28125zm3.370819 3.578125l-0.78125 0l0 -7.046875l0.78125 0l0 7.046875zm-0.921875 -9.078125q0 -0.21875 0.140625 -0.375q0.140625 -0.15625 0.390625 -0.15625q0.25 0 0.390625 0.15625q0.15625 0.15625 0.15625 0.375q0 0.21875 -0.15625 0.375q-0.140625 0.140625 -0.390625 0.140625q-0.25 0 -0.390625 -0.140625q-0.140625 -0.15625 -0.140625 -0.375zm3.7683716 2.03125l0.03125 1.203125q0.40625 -0.640625 0.984375 -0.984375q0.59375 -0.34375 1.3125 -0.34375q1.140625 0 1.6875 0.640625q0.546875 0.640625 0.5625 1.90625l0 4.625l-0.78125 0l0 -4.625q0 -0.953125 -0.40625 -1.40625q-0.390625 -0.46875 -1.25 -0.46875q-0.71875 0 -1.28125 0.453125q-0.546875 0.453125 -0.8125 1.21875l0 4.828125l-0.78125 0l0 -7.046875l0.734375 0zm7.4620056 7.046875l-0.78125 0l0 -10.0l0.78125 0l0 10.0zm1.6746216 -3.625q0 -1.015625 0.390625 -1.828125q0.40625 -0.8125 1.125 -1.265625q0.71875 -0.453125 1.625 -0.453125q1.40625 0 2.28125 0.984375q0.875 0.984375 0.875 2.609375l0 0.171875q0 1.015625 -0.40625 1.84375q-0.390625 0.8125 -1.109375 1.25q-0.703125 0.4375 -1.625 0.4375q-1.390625 0 -2.28125 -0.984375q-0.875 -0.984375 -0.875 -2.609375l0 -0.15625zm0.78125 0.21875q0 1.265625 0.65625 2.078125q0.65625 0.796875 1.71875 0.796875q1.0625 0 1.703125 -0.796875q0.65625 -0.8125 0.65625 -2.140625l0 -0.15625q0 -0.8125 -0.296875 -1.46875q-0.296875 -0.671875 -0.84375 -1.046875q-0.53125 -0.375 -1.234375 -0.375q-1.03125 0 -1.703125 0.828125q-0.65625 0.8125 -0.65625 2.140625l0 0.140625zm6.8082886 -0.171875q0 -1.65625 0.734375 -2.625q0.734375 -0.96875 1.984375 -0.96875q1.4375 0 2.1875 1.140625l0.046875 -1.015625l0.71875 0l0 6.90625q0 1.359375 -0.765625 2.15625q-0.75 0.796875 -2.0625 0.796875q-0.734375 0 -1.40625 -0.34375q-0.65625 -0.328125 -1.046875 -0.875l0.4375 -0.46875q0.828125 1.015625 1.96875 1.015625q0.984375 0 1.53125 -0.578125q0.546875 -0.5625 0.5625 -1.59375l0 -0.875q-0.75 1.03125 -2.1875 1.03125q-1.21875 0 -1.96875 -0.96875q-0.734375 -0.984375 -0.734375 -2.640625l0 -0.09375zm0.78125 0.125q0 1.34375 0.546875 2.125q0.546875 0.78125 1.515625 0.78125q1.4375 0 2.046875 -1.28125l0 -3.28125q-0.28125 -0.671875 -0.796875 -1.03125q-0.515625 -0.359375 -1.234375 -0.359375q-0.984375 0 -1.53125 0.78125q-0.546875 0.765625 -0.546875 2.265625z" fill-rule="nonzero"/><path fill="#010000" fill-opacity="0.0" d="m497.64774 467.33136l0 0l0 15.6188965l0 0l0 -15.6188965z" fill-rule="nonzero"/></g></svg>