<svg width="264" height="62" viewBox="0 0 264 62" fill="none" xmlns="http://www.w3.org/2000/svg">
<path fill-rule="evenodd" clip-rule="evenodd" d="M130.611 2.6366C130.895 2.6366 131.151 2.75106 131.335 2.93706C131.521 3.12306 131.635 3.37854 131.635 3.66061V15.6381L131.633 16.6519V16.7419C131.584 21.5043 127.699 25.3469 122.916 25.3469C119.075 25.3469 115.815 22.8717 114.654 19.4297C113.499 22.8696 110.262 25.3448 106.448 25.3448C102.934 25.3448 99.9111 23.2437 98.5539 20.2227C97.1947 23.2416 94.1697 25.3428 90.6561 25.3428C85.8753 25.3428 82 21.4511 82 16.6499C82 11.8487 85.8753 7.95699 90.6561 7.95699C94.1697 7.95699 97.1967 10.0602 98.5539 13.0791C99.9111 10.0602 102.934 7.95903 106.448 7.95903C109.15 7.95903 111.564 9.20175 113.152 11.1496V3.66061C113.152 3.09648 113.61 2.6366 114.176 2.6366C114.458 2.6366 114.713 2.75106 114.899 2.93706C115.085 3.12306 115.2 3.37854 115.2 3.66061V12.6049C116.659 9.84355 119.566 7.96107 122.916 7.96107C125.593 7.96107 127.989 9.16496 129.587 11.0597V3.66061C129.587 3.09648 130.047 2.6366 130.611 2.6366ZM83.999 16.6499C83.999 20.3413 86.9811 23.3356 90.6561 23.3356C94.3332 23.3356 97.3132 20.3413 97.3132 16.6499C97.3132 12.9585 94.3332 9.96618 90.6561 9.96618C86.9811 9.96618 83.999 12.9585 83.999 16.6499ZM99.7905 16.6499C99.7905 20.3413 102.773 23.3377 106.448 23.3377C110.125 23.3377 113.105 20.3413 113.105 16.6499C113.105 12.9585 110.125 9.96823 106.448 9.96823C102.773 9.96823 99.7905 12.9585 99.7905 16.6499ZM116.212 16.6519C116.212 20.3433 119.214 23.3397 122.916 23.3397C126.617 23.3397 129.618 20.3433 129.618 16.6519C129.618 12.9606 126.617 9.97027 122.916 9.97027C119.214 9.97027 116.212 12.9606 116.212 16.6519Z" fill="#545C84"/>
<path d="M162.748 17.21L162.748 17.2082C162.76 17.0248 162.766 16.8394 162.766 16.654C162.766 16.5523 162.764 16.4507 162.76 16.349L162.76 16.3475C162.814 12.186 162.811 9.18957 162.767 8.57639C162.752 8.39856 162.713 8.10219 162.493 7.8794C162.286 7.67092 162.006 7.61369 161.806 7.59734C161.74 7.59529 161.346 7.59529 161.046 7.91006C160.78 8.18599 160.766 8.51711 160.763 8.59478L160.77 15.5278C160.766 15.7179 160.763 15.908 160.763 16.1002V16.1022C160.763 16.2875 160.763 16.4708 160.766 16.6541C160.782 20.3168 157.771 23.3398 154.108 23.3398C150.446 23.3398 147.435 20.3168 147.451 16.6541L147.449 16.5641V16.5539C147.502 12.278 147.498 9.20592 147.453 8.5723C147.441 8.38834 147.402 8.08175 147.179 7.85283C146.975 7.63822 146.695 7.5769 146.495 7.56055C146.429 7.56055 146.035 7.56054 145.732 7.88349C145.467 8.16964 145.454 8.51098 145.452 8.5907L145.458 16.372C145.454 16.466 145.452 16.56 145.452 16.6541C145.452 17.0199 145.475 17.3797 145.518 17.7333C146.047 22.0255 149.691 25.347 154.108 25.347C158.701 25.347 162.458 21.7557 162.748 17.2182V17.21Z" fill="#545C84"/>
<path d="M143.247 8.7623C143.147 9.09751 142.858 9.35504 142.501 9.4368C142.145 9.4368 141.699 9.45928 141.193 9.54922C140.508 9.66981 139.985 9.86194 139.698 9.97845C138.693 10.3872 138.033 10.9248 137.859 11.0679C137.603 11.2825 136.896 11.9038 136.31 12.9442C136.31 12.9442 135.633 14.1399 135.482 15.3929C135.435 15.7833 135.435 16.1839 135.435 16.1839C135.435 16.4537 135.451 16.7173 135.482 16.979V24.3188C135.482 24.8849 135.024 25.3428 134.458 25.3428C133.894 25.3428 133.436 24.8849 133.436 24.3188V8.51498C133.436 7.94881 133.894 7.49097 134.458 7.49097C134.742 7.49097 134.997 7.60543 135.181 7.79143C135.367 7.97538 135.482 8.23087 135.482 8.51498V10.888C136.103 10.1317 136.808 9.49607 137.522 9.01983C137.928 8.74595 138.912 8.10211 140.369 7.77303C141.244 7.57681 141.994 7.56046 142.517 7.58499C142.58 7.59725 142.668 7.62178 142.764 7.66879C142.838 7.70558 143.006 7.7996 143.126 7.9672C143.367 8.30307 143.259 8.71431 143.247 8.75936L143.247 8.7623Z" fill="#545C84"/>
<path d="M135.482 16.979V15.3929C135.435 15.7833 135.435 16.1839 135.435 16.1839C135.435 16.4537 135.451 16.7173 135.482 16.979Z" fill="#545C84"/>
<path d="M182 24.3331L181.994 16.5048C181.998 16.4272 182 16.3474 182 16.2698C182 15.9039 181.977 15.5442 181.935 15.1906C181.749 13.6678 179.093 7.60344 173.344 7.57687C170.699 7.56461 168.32 8.83185 166.748 10.6673V8.61928C166.748 8.05516 166.29 7.59731 165.726 7.59731H165.724C165.16 7.59731 164.702 8.05516 164.702 8.61928V24.3188C164.702 24.885 165.16 25.3429 165.724 25.3429H165.726C166.29 25.3429 166.748 24.885 166.748 24.3188V15.3418C167.192 12.1103 169.996 9.58403 173.344 9.58403C177.007 9.58403 180.015 12.607 180.001 16.2698L180.003 16.3638V16.3863C179.95 20.654 179.952 23.72 179.997 24.3515C180.011 24.5355 180.05 24.8421 180.271 25.071C180.477 25.2856 180.757 25.3469 180.958 25.3633C181.023 25.3633 181.415 25.3633 181.718 25.0403C181.984 24.7542 181.998 24.4129 182 24.3331Z" fill="#545C84"/>
<path d="M8.49023 51.249C8.49479 53.2588 7.41244 54.2682 5.24316 54.2773C3.26074 54.2819 2.26497 53.4274 2.25586 51.7139C2.2513 50.889 2.44043 49.9935 2.82324 49.0273L1.73633 48.583C1.2806 49.6904 1.05273 50.7295 1.05273 51.7002C1.05729 54.2204 2.43359 55.4805 5.18164 55.4805C7.22331 55.485 8.58366 54.8083 9.2627 53.4502C9.56803 52.835 9.72298 52.1035 9.72754 51.2559C9.72754 50.3672 9.50423 49.3669 9.05762 48.2549L7.875 48.6719C8.28516 49.515 8.49023 50.374 8.49023 51.249Z" fill="#545C84"/>
<path d="M5.24316 46.6689L4.24512 47.667L5.25 48.665L6.24121 47.6738L5.24316 46.6689Z" fill="#545C84"/>
<path d="M17.7803 51.2422C17.7803 50.4355 17.5889 49.597 17.2061 48.7266L16.0439 49.1367C16.3994 49.8978 16.5771 50.627 16.5771 51.3242C16.5817 53.2155 15.292 54.291 12.708 54.5508L12.9951 55.7129C16.1852 55.3757 17.7803 53.8854 17.7803 51.2422Z" fill="#545C84"/>
<path d="M20.7744 51.0986C20.2503 51.0986 19.7012 51.0394 19.127 50.9209V52.1855C19.6146 52.2949 20.1934 52.3496 20.8633 52.3496C23.3105 52.3451 24.5342 51.5088 24.5342 49.8408C24.5342 48.3643 23.4062 46.9538 21.1504 45.6094L20.4668 46.6484C22.3581 47.8379 23.3037 48.9089 23.3037 49.8613C23.3037 50.6862 22.4606 51.0986 20.7744 51.0986Z" fill="#545C84"/>
<path d="M25.5732 42.8271C25.9925 42.3304 26.4551 42.1162 26.9609 42.1846L27.9248 42.3213C28.5993 42.4124 29.2305 42.2757 29.8184 41.9111L29.3672 40.9746C28.8112 41.2572 28.3122 41.362 27.8701 41.2891L26.8516 41.125C26.0768 41.002 25.4206 41.3278 24.8828 42.1025L25.5732 42.8271Z" fill="#545C84"/>
<path fill-rule="evenodd" clip-rule="evenodd" d="M34.4326 52.1582C35.1253 52.2904 35.777 52.3564 36.3877 52.3564C37.7868 52.3564 38.7871 51.9919 39.3887 51.2627C39.8216 51.9964 40.4186 52.3633 41.1797 52.3633H41.9248C43.0505 52.3633 43.8389 52.042 44.29 51.3994C44.6264 52.0318 45.2342 52.353 46.1134 52.363C46.1185 52.3632 46.1237 52.3633 46.1289 52.3633H46.2725C46.988 52.3633 47.626 52.0374 48.1865 51.3857C48.943 52.1377 49.7406 52.5137 50.5791 52.5137C51.3857 52.5137 51.985 52.2083 52.377 51.5977C52.7051 52.1081 53.1335 52.3633 53.6621 52.3633H54.0449C55.1523 52.3633 55.8883 52.042 56.2529 51.3994C56.5264 52.0374 57.1507 52.3587 58.126 52.3633C58.9645 52.3633 59.6139 52.042 60.0742 51.3994C60.3431 52.0374 60.8991 52.3564 61.7422 52.3564C62.3073 52.3564 62.7607 52.2061 63.1025 51.9053C63.654 51.4222 63.932 50.6634 63.9365 49.6289V49.5879C63.9411 48.9681 63.8294 48.2982 63.6016 47.5781L62.4326 47.8926C62.6331 48.5853 62.7334 49.1663 62.7334 49.6357C62.7334 50.611 62.3939 51.0986 61.7148 51.0986C61.0495 51.0986 60.6917 50.7386 60.6416 50.0186L60.5322 48.4395L59.4043 48.5762L59.4453 48.9863C59.4635 49.2051 59.4727 49.417 59.4727 49.6221C59.4727 49.8089 59.459 49.9684 59.4316 50.1006C59.2995 50.7705 58.8688 51.1055 58.1396 51.1055C57.3512 51.1055 56.932 50.7432 56.8818 50.0186L56.7725 48.4395L55.6445 48.5762L55.6855 48.9863C55.7038 49.2142 55.7129 49.4261 55.7129 49.6221C55.7129 49.8089 55.6992 49.9684 55.6719 50.1006C55.5306 50.7705 54.9928 51.1055 54.0586 51.1055H53.6689C53.1312 51.1055 52.7712 50.6771 52.5889 49.8203C52.4658 49.237 52.2516 48.7493 51.9463 48.3574C51.5179 47.8151 50.9346 47.5439 50.1963 47.5439C49.2256 47.5485 48.444 48.2093 47.8516 49.5264C47.6738 49.9229 47.5029 50.235 47.3389 50.4629C47.0244 50.8913 46.6576 51.1055 46.2383 51.1055H46.1699C45.3542 51.1055 44.9167 50.6953 44.8574 49.875L44.748 48.2959L43.627 48.4326L43.6611 48.9863C43.6748 49.1914 43.6816 49.4079 43.6816 49.6357C43.6816 49.8545 43.668 50.0436 43.6406 50.2031C43.5267 50.8047 42.9434 51.1055 41.8906 51.1055H41.1797C40.6374 51.1055 40.0996 50.4264 39.5664 49.0684L38.2129 45.6299L37.085 46.1494L37.9531 48.207C38.3678 49.1914 38.5752 49.8271 38.5752 50.1143C38.5752 50.7705 37.8574 51.0986 36.4219 51.0986C35.7337 51.0986 35.0706 51.0326 34.4326 50.9004V52.1582ZM51.4746 50.3398C51.4883 50.9779 51.1647 51.2946 50.5039 51.29C49.9434 51.2855 49.3691 50.9414 48.7812 50.2578C49.1185 49.3053 49.5947 48.8337 50.21 48.8428C50.7295 48.8473 51.0986 49.0957 51.3174 49.5879C51.4176 49.8249 51.4701 50.0755 51.4746 50.3398Z" fill="#545C84"/>
<path d="M43.7979 44.8027L42.7998 45.8008L43.8047 46.7988L44.7959 45.8076L43.7979 44.8027Z" fill="#545C84"/>
<path d="M59.8213 43.1211L58.8506 44.0986L59.8281 45.0762L60.7988 44.1055L59.8213 43.1211Z" fill="#545C84"/>
<path d="M60.9492 44.96L59.9717 45.9307L60.9561 46.9082L61.9268 45.9375L60.9492 44.96Z" fill="#545C84"/>
<path d="M58.7207 44.96L57.7568 45.9307L58.7275 46.9082L59.7051 45.9375L58.7207 44.96Z" fill="#545C84"/>
<path fill-rule="evenodd" clip-rule="evenodd" d="M70.6848 52.3622C70.6955 52.3629 70.7065 52.3633 70.7178 52.3633H71.415C72.2262 52.3633 73.1855 52.1992 74.293 51.8711C75.3275 52.1992 76.2002 52.361 76.9111 52.3564C77.8499 52.3564 78.5426 52.1081 78.9893 51.6113C79.3903 51.1693 79.5954 50.611 79.6045 49.9365C79.6318 48.3597 78.1211 46.8307 75.0723 45.3496L74.4775 46.3955C77.0889 47.6533 78.39 48.8314 78.3809 49.9297C78.3763 50.4538 78.1256 50.8138 77.6289 51.0098C77.4603 51.0736 77.221 51.1055 76.9111 51.1055C76.6969 51.1055 76.223 51.0531 75.4893 50.9482C76.2093 50.5062 76.5693 49.8727 76.5693 49.0479C76.5648 48.4827 76.3688 48.0202 75.9814 47.6602C75.5303 47.2318 74.9652 47.0176 74.2861 47.0176C73.5479 47.0176 72.9417 47.2933 72.4678 47.8447C72.0804 48.2913 71.8867 48.7926 71.8867 49.3486C71.8822 49.8454 72.0553 50.2965 72.4062 50.7021C72.5247 50.8389 72.6797 50.9733 72.8711 51.1055H70.7178C70.6877 51.1055 70.6592 51.1077 70.6326 51.1123H70.1025C69.8929 48.6468 69.0977 47.4141 67.7168 47.4141C66.8509 47.4141 66.2038 47.863 65.7754 48.7607C65.5384 49.2529 65.4199 49.7747 65.4199 50.3262C65.4199 51.6842 66.2539 52.3633 67.9219 52.3633H68.9199C68.5599 53.5801 67.2998 54.307 65.1396 54.5439L65.4268 55.7129C68.1611 55.4395 69.6992 54.3206 70.041 52.3564L70.6848 52.3622ZM67.6348 48.7061C68.4141 48.7106 68.8561 49.5104 68.9609 51.1055H67.8535C67.0013 51.1055 66.5752 50.8115 66.5752 50.2236C66.5752 50.0003 66.6162 49.7679 66.6982 49.5264C66.8942 48.9749 67.2064 48.7015 67.6348 48.7061ZM75.4961 49.1025C75.4824 49.4626 75.3206 49.793 75.0107 50.0938C74.8649 50.2305 74.6963 50.3581 74.5049 50.4766C74.4365 50.5176 74.3682 50.5518 74.2998 50.5791C74.1813 50.5518 74.0674 50.5107 73.958 50.4561C73.8076 50.3877 73.6686 50.2965 73.541 50.1826C73.263 49.932 73.124 49.6631 73.124 49.376C73.1286 49.1208 73.1855 48.902 73.2949 48.7197C73.5319 48.3232 73.8828 48.125 74.3477 48.125C74.735 48.125 75.0518 48.2594 75.2979 48.5283C75.43 48.6742 75.4961 48.8656 75.4961 49.1025Z" fill="#545C84"/>
<path d="M89.2637 54.5781C87.1081 54.569 86.0303 53.7373 86.0303 52.083C86.0303 51.2536 86.3105 50.2031 86.8711 48.9316L85.7842 48.4873C85.1507 49.9183 84.834 51.1237 84.834 52.1035C84.834 54.5508 86.2992 55.7744 89.2295 55.7744C90.2093 55.7744 91.0843 55.599 91.8545 55.248C93.167 54.6465 93.8232 53.6849 93.8232 52.3633C93.8232 51.4518 93.2832 50.9984 92.2031 51.0029H91.3896C91.221 51.0029 91.098 50.971 91.0205 50.9072C90.9476 50.848 90.9111 50.75 90.9111 50.6133C90.9202 50.1165 91.1686 49.6973 91.6562 49.3555C92.1348 49.0228 92.7386 48.8564 93.4678 48.8564H93.6182V47.5371H93.4746C92.194 47.5371 91.2005 47.9222 90.4941 48.6924C89.9473 49.2894 89.6738 50.0186 89.6738 50.8799C89.6738 51.7822 90.2412 52.2357 91.376 52.2402L92.1553 52.2471C92.5107 52.2471 92.6885 52.377 92.6885 52.6367C92.6885 52.9648 92.5631 53.2588 92.3125 53.5186C92.0619 53.7738 91.7702 53.9788 91.4375 54.1338C90.7995 54.43 90.0749 54.5781 89.2637 54.5781Z" fill="#545C84"/>
<path fill-rule="evenodd" clip-rule="evenodd" d="M95.6416 49.3965C95.6416 51.3743 96.5257 52.3633 98.2939 52.3633H99.0459C99.8571 52.3633 100.816 52.1992 101.924 51.8711C102.958 52.1992 103.831 52.361 104.542 52.3564C105.481 52.3564 106.174 52.1081 106.62 51.6113C107.021 51.1693 107.226 50.611 107.235 49.9365C107.263 48.3597 105.752 46.8307 102.703 45.3496L102.108 46.3955C104.72 47.6533 106.021 48.8314 106.012 49.9297C106.007 50.4538 105.757 50.8138 105.26 51.0098C105.091 51.0736 104.852 51.1055 104.542 51.1055C104.328 51.1055 103.854 51.0531 103.12 50.9482C103.84 50.5062 104.2 49.8727 104.2 49.0479C104.196 48.4827 104 48.0202 103.612 47.6602C103.161 47.2318 102.596 47.0176 101.917 47.0176C101.179 47.0176 100.573 47.2933 100.099 47.8447C99.7113 48.2913 99.5176 48.7926 99.5176 49.3486C99.513 49.8454 99.6862 50.2965 100.037 50.7021C100.156 50.8389 100.311 50.9733 100.502 51.1055H98.3145C97.3255 51.1055 96.8311 50.5312 96.8311 49.3828V42.5332H95.6416V49.3965ZM103.127 49.1025C103.113 49.4626 102.951 49.793 102.642 50.0938C102.496 50.2305 102.327 50.3581 102.136 50.4766C102.067 50.5176 101.999 50.5518 101.931 50.5791C101.812 50.5518 101.698 50.5107 101.589 50.4561C101.438 50.3877 101.299 50.2965 101.172 50.1826C100.894 49.932 100.755 49.6631 100.755 49.376C100.759 49.1208 100.816 48.902 100.926 48.7197C101.163 48.3232 101.514 48.125 101.979 48.125C102.366 48.125 102.683 48.2594 102.929 48.5283C103.061 48.6742 103.127 48.8656 103.127 49.1025Z" fill="#545C84"/>
<path d="M111.706 51.2422C111.706 50.4355 111.515 49.597 111.132 48.7266L109.97 49.1367C110.325 49.8978 110.503 50.627 110.503 51.3242C110.507 53.2155 109.218 54.291 106.634 54.5508L106.921 55.7129C110.111 55.3757 111.706 53.8854 111.706 51.2422Z" fill="#545C84"/>
<path fill-rule="evenodd" clip-rule="evenodd" d="M113.456 49.3965C113.456 51.3743 114.34 52.3633 116.108 52.3633H117.134C119.043 52.3633 120.258 51.96 120.777 51.1533C121.379 51.96 122.174 52.3633 123.163 52.3633H123.888C124.699 52.3633 125.658 52.1992 126.766 51.8711C127.8 52.1992 128.673 52.361 129.384 52.3564C130.323 52.3564 131.015 52.1081 131.462 51.6113C131.863 51.1693 132.068 50.611 132.077 49.9365C132.104 48.3597 130.594 46.8307 127.545 45.3496L126.95 46.3955C129.562 47.6533 130.863 48.8314 130.854 49.9297C130.849 50.4538 130.598 50.8138 130.102 51.0098C129.933 51.0736 129.694 51.1055 129.384 51.1055C129.17 51.1055 128.696 51.0531 127.962 50.9482C128.682 50.5062 129.042 49.8727 129.042 49.0479C129.037 48.4827 128.841 48.0202 128.454 47.6602C128.003 47.2318 127.438 47.0176 126.759 47.0176C126.021 47.0176 125.414 47.2933 124.94 47.8447C124.553 48.2913 124.359 48.7926 124.359 49.3486C124.355 49.8454 124.528 50.2965 124.879 50.7021C124.997 50.8389 125.152 50.9733 125.344 51.1055H123.163C122.252 51.1055 121.595 50.5335 121.194 49.3896C120.976 48.7653 120.682 48.2526 120.312 47.8516C119.761 47.2591 118.891 46.4639 117.701 45.4658L122.295 43.7568V42.5195L117.558 44.3174C116.92 44.5589 116.601 44.9759 116.601 45.5684C116.601 46.015 116.86 46.4411 117.38 46.8467C117.927 47.2751 118.549 47.8151 119.246 48.4668C119.72 48.9089 119.957 49.3532 119.957 49.7998C119.952 50.6702 119.009 51.1055 117.127 51.1055H116.129C115.14 51.1055 114.646 50.5312 114.646 49.3828V42.5332H113.456V49.3965ZM127.969 49.1025C127.955 49.4626 127.793 49.793 127.483 50.0938C127.338 50.2305 127.169 50.3581 126.978 50.4766C126.909 50.5176 126.841 50.5518 126.772 50.5791C126.654 50.5518 126.54 50.5107 126.431 50.4561C126.28 50.3877 126.141 50.2965 126.014 50.1826C125.736 49.932 125.597 49.6631 125.597 49.376C125.601 49.1208 125.658 48.902 125.768 48.7197C126.005 48.3232 126.355 48.125 126.82 48.125C127.208 48.125 127.524 48.2594 127.771 48.5283C127.903 48.6742 127.969 48.8656 127.969 49.1025Z" fill="#545C84"/>
<path d="M140.116 51.2422C140.116 50.4355 139.925 49.597 139.542 48.7266L138.38 49.1367C138.735 49.8978 138.913 50.627 138.913 51.3242C138.918 53.2155 137.628 54.291 135.044 54.5508L135.331 55.7129C138.521 55.3757 140.116 53.8854 140.116 51.2422Z" fill="#545C84"/>
<path fill-rule="evenodd" clip-rule="evenodd" d="M148.907 46.4912C146.542 47.2158 145.359 48.248 145.359 49.5879C145.359 49.957 145.437 50.2715 145.592 50.5312C145.993 51.1966 146.701 51.5293 147.718 51.5293C148.397 51.5293 149.01 51.29 149.557 50.8115C149.78 51.846 150.516 52.3633 151.765 52.3633H151.997C153.97 52.3633 155.333 52.0397 156.085 51.3926L156.099 51.3857L156.112 51.3926C156.946 52.0397 158.122 52.3633 159.64 52.3633H160.091C161.198 52.3633 161.934 52.042 162.299 51.3994C162.572 52.0374 163.197 52.3587 164.172 52.3633C165.01 52.3633 165.66 52.042 166.12 51.3994C166.389 52.0374 166.945 52.3564 167.788 52.3564C168.353 52.3564 168.807 52.2061 169.148 51.9053C169.7 51.4222 169.978 50.6634 169.982 49.6289V49.5879C169.987 48.9681 169.875 48.2982 169.647 47.5781L168.479 47.8926C168.679 48.5853 168.779 49.1663 168.779 49.6357C168.779 50.611 168.44 51.0986 167.761 51.0986C167.095 51.0986 166.738 50.7386 166.688 50.0186L166.578 48.4395L165.45 48.5762L165.491 48.9863C165.509 49.2051 165.519 49.417 165.519 49.6221C165.519 49.8089 165.505 49.9684 165.478 50.1006C165.345 50.7705 164.915 51.1055 164.186 51.1055C163.397 51.1055 162.978 50.7432 162.928 50.0186L162.818 48.4395L161.69 48.5762L161.731 48.9863C161.75 49.2142 161.759 49.4261 161.759 49.6221C161.759 49.8089 161.745 49.9684 161.718 50.1006C161.576 50.7705 161.039 51.1055 160.104 51.1055H159.64C158.437 51.1055 157.587 50.9574 157.09 50.6611L157.056 50.6406L157.09 50.627C158.512 49.7337 159.223 48.9544 159.223 48.2891C159.223 47.7923 158.883 47.4004 158.204 47.1133C157.666 46.89 156.969 46.7806 156.112 46.7852C155.228 46.7897 154.538 46.9036 154.041 47.127C153.321 47.4505 152.961 47.8493 152.961 48.3232C152.961 49.0752 153.651 49.8408 155.032 50.6201L155.06 50.6406L155.032 50.6611C154.586 50.9574 153.581 51.1055 152.018 51.1055H151.792C151.049 51.1055 150.625 50.734 150.521 49.9912L149.96 45.9512L148.846 46.1768L148.907 46.4912ZM146.576 49.5059C146.576 48.8496 147.401 48.2253 149.051 47.6328L149.071 47.6191L149.105 47.8105L149.249 48.7197C149.34 49.3167 149.167 49.7497 148.729 50.0186C148.379 50.2327 148.028 50.3398 147.677 50.3398C146.943 50.3398 146.576 50.0618 146.576 49.5059ZM156.078 48.043C157.29 48.043 157.896 48.1842 157.896 48.4668C157.896 48.5443 157.824 48.6559 157.678 48.8018C157.295 49.1982 156.764 49.5765 156.085 49.9365L156.078 49.9434L156.064 49.9365C155.326 49.5628 154.793 49.2028 154.465 48.8564C154.324 48.7106 154.253 48.5853 154.253 48.4805C154.257 48.1888 154.866 48.043 156.078 48.043Z" fill="#545C84"/>
<path fill-rule="evenodd" clip-rule="evenodd" d="M176.716 52.3621C176.727 52.3629 176.738 52.3633 176.75 52.3633H177.27C178.34 52.3633 179.108 52.1878 179.573 51.8369C180.211 51.3538 180.53 50.554 180.53 49.4375C180.53 48.7676 180.419 48.0771 180.195 47.3662L179.081 47.6465C179.25 48.3118 179.334 48.9157 179.334 49.458C179.334 50.1826 179.14 50.6589 178.753 50.8867C178.493 51.0326 177.999 51.1055 177.27 51.1055H176.75C176.72 51.1055 176.691 51.1077 176.665 51.1123H176.142C175.932 48.6468 175.137 47.4141 173.756 47.4141C172.89 47.4141 172.243 47.863 171.814 48.7607C171.577 49.2529 171.459 49.7747 171.459 50.3262C171.459 51.6842 172.293 52.3633 173.961 52.3633H174.959C174.599 53.5801 173.339 54.307 171.179 54.5439L171.466 55.7129C174.2 55.4395 175.738 54.3206 176.08 52.3564L176.716 52.3621ZM173.674 48.7061C174.453 48.7106 174.895 49.5104 175 51.1055H173.893C173.04 51.1055 172.614 50.8115 172.614 50.2236C172.614 50.0003 172.655 49.7679 172.737 49.5264C172.933 48.9749 173.245 48.7015 173.674 48.7061Z" fill="#545C84"/>
<path d="M179.977 44.2217L178.979 45.2197L179.983 46.2178L180.975 45.2266L179.977 44.2217Z" fill="#545C84"/>
<path d="M177.748 44.2217L176.757 45.2197L177.755 46.2178L178.753 45.2266L177.748 44.2217Z" fill="#545C84"/>
<path d="M12.7217 42.5332H11.5391V52.3564H12.7217V42.5332Z" fill="#545C84"/>
<path d="M28.123 43.5244H26.9404V52.3564H28.123V43.5244Z" fill="#545C84"/>
<path d="M135.058 42.5332H133.875V52.3564H135.058V42.5332Z" fill="#545C84"/>
<path d="M204.694 35.2872C204.49 37.9105 204.759 40.0978 205.043 41.5991C203.979 39.7518 200.823 33.7156 202.464 26.4753C203.493 21.9383 205.958 18.8928 207.288 17.288C210.678 13.1948 214.565 11.1912 216.52 10.2099C218.634 9.14845 220.525 8.49948 221.926 8.09485C218.683 10.206 214.9 13.2808 211.714 17.5812C210.031 19.8506 208.95 21.8797 208.55 22.6518C207.666 24.3583 206.536 26.874 205.682 30.0563L205.677 30.0745C205.286 31.5316 204.862 33.1148 204.694 35.2872Z" fill="#8DE9FC"/>
<path d="M261.308 26.9092C261.529 24.2859 261.343 22.0634 261.104 20.4429C262.154 22.339 265.215 28.4554 263.477 35.7368C262.389 40.2991 259.889 43.3466 258.592 44.8908C255.175 48.9625 251.274 50.9368 249.313 51.9064C247.193 52.9541 245.297 53.5914 243.894 53.9862C246.033 52.6551 247.716 51.3141 248.96 50.2155C249.621 49.6311 251.813 47.6509 254.168 44.5683C254.979 43.5069 256.198 41.8981 257.454 39.5524C258.249 38.0688 259.458 35.5472 260.342 32.2222C260.64 31.1041 261.104 29.3213 261.308 26.9092Z" fill="#8DE9FC"/>
<path d="M213.35 7.10373C207.99 11.0718 206.226 16.6331 205.691 18.6543C212.876 9.24221 223.18 7.35589 223.182 7.35784C225.143 6.05012 227.373 5.11771 229.113 4.5137C230.163 4.14816 231.162 3.85691 232.103 3.63211C230.143 3.15711 226.732 2.5961 222.606 3.30958C220.97 3.59302 217.14 4.29868 213.35 7.10373Z" fill="#4B80B3"/>
<path d="M252.524 55.0064C258.02 51.0813 259.811 45.2992 260.32 43.364C258.551 45.698 256.743 47.3732 255.336 48.5109C252.638 50.6904 250.226 51.8476 248.829 52.5063C246.498 53.6069 244.401 54.2852 242.783 54.7152C241.705 55.3427 240.735 55.8353 239.938 56.2145C239.148 56.5878 238.173 57.0492 236.834 57.5183C235.68 57.9249 234.658 58.1946 233.839 58.3803C235.063 58.6364 236.644 58.8788 238.498 58.9394C239.24 58.9628 241.202 58.9961 243.316 58.6638C244.517 58.4741 248.639 57.7802 252.524 55.0064Z" fill="#4B80B3"/>
<path d="M233.016 3.4014C232.293 3.2372 231.39 3.06127 230.337 2.92053C228.605 2.68987 227.281 2.66446 226.916 2.66055C225.747 2.64491 224.242 2.70356 222.5 2.97135C224.123 1.99203 228.562 -0.404478 234.53 0.0587947C237.277 0.271861 240.338 1.09481 243.535 2.97135C242.105 2.76024 240.853 2.68596 239.848 2.67032C237.522 2.63123 235.731 2.8873 234.95 3.01631C234.16 3.14142 233.502 3.28411 233.016 3.4014Z" fill="#545C84"/>
<path fill-rule="evenodd" clip-rule="evenodd" d="M260.885 22.5442C260.687 20.4644 259.936 13.6189 254.505 8.55218C254.039 8.11823 252.15 6.40002 249.182 5.03365C245.538 3.35844 242.342 3.16688 240.583 3.07892C239.724 3.03591 237.244 2.95381 234.015 3.57346C225.29 5.24672 218.989 10.5245 216.726 12.6004C211.221 17.6495 208.699 22.9351 207.978 24.5419C205.799 29.3975 205.327 33.4986 205.225 34.4837C205.119 35.5061 204.949 37.2262 205.11 39.2768C205.251 41.0947 205.766 47.7271 211.08 53.0049C215.907 57.8038 221.762 58.5661 224.103 58.8359C228.296 59.3187 231.513 58.5407 233.772 57.9738C235.394 57.5653 242.849 55.5617 249.797 48.8999C251.633 47.1407 258.179 40.6998 260.315 30.5137C260.681 28.77 261.22 26.0745 260.885 22.5442ZM233.012 43.4149C226.117 43.4149 220.529 37.84 220.529 30.9633C220.529 24.0865 226.117 18.5096 233.012 18.5096C239.905 18.5096 245.493 24.0865 245.493 30.9633C245.493 37.84 239.905 43.4149 233.012 43.4149Z" fill="#545C84"/>
<path d="M235.596 59.1017C234.53 58.9629 233.625 58.7733 232.922 58.6032C232.436 58.7166 231.775 58.8554 230.988 58.9786C230.204 59.1017 228.413 59.346 226.088 59.2913C225.083 59.2679 223.831 59.1858 222.402 58.9649C224.005 59.9618 227.134 61.5979 231.386 61.938C237.405 62.4169 241.883 59.9931 243.488 59.0196C241.715 59.2659 240.191 59.3265 239.005 59.3187C237.203 59.3069 235.894 59.1408 235.596 59.1017Z" fill="#545C84"/>
</svg>
