<?xml version="1.0" encoding="UTF-8"?>
<svg width="150px" height="54px" viewBox="0 0 150 54" version="1.1" xmlns="http://www.w3.org/2000/svg" xmlns:xlink="http://www.w3.org/1999/xlink">
    <!-- Generator: Sketch 52.6 (67491) - http://www.bohemiancoding.com/sketch -->
    <title>Untitled</title>
    <desc>Created with Sketch.</desc>
    <g id="Page-1" stroke="none" stroke-width="1" fill="none" fill-rule="evenodd">
        <g id="OS-Logo">
            <path d="M138.081502,23.3060927 L112.029565,23.3060927 L112.029565,24.9016181 C112.029565,27.8472034 110.65841,29.3302437 107.964043,29.3302437 L99.0371554,29.3302437 L99.0371554,24.9016181 L106.247703,24.9016181 C107.244906,24.9016181 107.724331,24.3902517 107.724331,23.3777068 L102.402717,23.3777068 C100.159009,23.3777068 99.0275669,22.28336 99.0275669,20.074171 L99.0275669,13.4670396 C99.0275669,11.2476029 100.168598,10.1532561 102.421894,10.1532561 L108.635238,10.1532561 C110.898122,10.1532561 112.029565,11.2476029 112.029565,13.4670396 L112.029565,18.8979624 L115.021175,18.8979624 L115.021175,10.1225729 L119.220935,10.1225729 L119.220935,18.8979624 L123.037155,18.8979624 L123.037155,10.1225729 L127.246504,10.1225729 L127.246504,18.8979624 L131.139433,18.8979624 L131.139433,10.1225729 L135.348781,10.1225729 L135.348781,18.8979624 L137.256892,18.8979624 C138.493807,18.8979624 139.107471,18.2331802 139.107471,16.9138034 L139.107471,0.00737115461 L143.393528,0.00737115461 L143.393528,18.8979624 C143.393528,21.8333 141.974431,23.3060927 139.145825,23.3060927 L138.081502,23.3060927 Z M107.724331,17.8342988 L107.724331,15.6251099 C107.724331,14.9193967 107.35038,14.5614463 106.602477,14.5614463 L104.406712,14.5614463 C103.639632,14.5614463 103.265681,14.9092089 103.265681,15.6251099 L103.265681,17.8342988 C103.265681,18.5706952 103.639632,18.9388933 104.406712,18.9388933 L106.602477,18.9388933 C107.35038,18.949141 107.724331,18.5809429 107.724331,17.8342988 Z M95.4414702,6.15419497 C95.4414702,6.77810627 95.2401119,7.30990811 94.8278066,7.74972034 C94.4155014,8.18953256 93.9073112,8.39406712 93.3320016,8.39406712 C92.756692,8.39406712 92.2676788,8.17928486 91.8745505,7.72928486 C91.4622453,7.28947263 91.2608869,6.7576708 91.2608869,6.15419497 C91.2608869,5.53028366 91.4622453,5.0086696 91.8745505,4.5689173 C92.2676788,4.1189173 92.756692,3.90413504 93.3320016,3.90413504 C93.9073112,3.90413504 94.4155014,4.1189173 94.8278066,4.55872952 C95.2305234,4.98829405 95.4414702,5.50990811 95.4414702,6.15425489 L95.4414702,6.15419497 Z M90.6280463,6.15419497 C90.6280463,6.76785857 90.426688,7.29972034 90.0143827,7.72928486 C89.6020775,8.17928486 89.1130643,8.39406712 88.5377547,8.39406712 C87.9624451,8.39406712 87.4734319,8.17928486 87.0611266,7.72928486 C86.6488214,7.29972034 86.447463,6.7576708 86.447463,6.15419497 C86.447463,5.53028366 86.6488214,4.99848182 87.0611266,4.5689173 C87.4734319,4.1189173 87.9624451,3.90413504 88.5377547,3.90413504 C89.1130643,3.90413504 89.6020775,4.1189173 90.0143827,4.5689173 C90.4170995,4.99848182 90.6280463,5.53034359 90.6280463,6.15419497 Z M97.3304035,23.142489 C97.3304035,26.1085098 96.3523771,29.2484419 94.4059129,31.3144626 C92.4594487,33.3906712 90.0815022,34.4338993 87.2912505,34.4338993 C84.5105873,34.4338993 82.1422293,33.3906712 80.2053536,31.3144626 C78.4698362,29.4632241 77.5013983,27.2540352 77.3192169,24.6971434 L81.5477427,24.6971434 C81.6915701,26.0267679 82.2572913,27.2131642 83.2449061,28.2768278 C84.4051139,29.5245905 85.7379145,30.1485018 87.2528965,30.1485018 C88.8062325,30.1485018 90.1773871,29.5450859 91.3184179,28.3279465 C92.4402717,27.1313024 93.0251698,25.0857771 93.0251698,23.3982022 L87.7419097,23.3982022 C85.4790252,23.3982022 84.3475829,22.3038554 84.3475829,20.1048542 L84.3475829,13.5079704 C84.3475829,11.2885338 85.4790252,10.1839393 87.7227327,10.1839393 L93.9360767,10.1839393 C96.1797843,10.1839393 97.3304035,11.2885338 97.3304035,13.5181582 L97.3304035,23.1424291 L97.3304035,23.142489 Z M93.0251698,17.8751698 L93.0251698,15.6455453 C93.0251698,14.9398322 92.6512185,14.5818817 91.922493,14.5818817 L89.7459049,14.5818817 C89.0171794,14.5818817 88.6432281,14.9398322 88.6432281,15.6455453 L88.6432281,17.8751698 C88.6432281,18.5911306 89.0171794,18.9593288 89.7459049,18.9593288 L91.922493,18.9593288 C92.6512185,18.9695765 93.0251698,18.6013783 93.0251698,17.8751698 Z M149.894527,23.3060927 L145.685178,23.3060927 L145.685178,0.00731122653 L149.894527,0.00731122653 L149.894527,23.3060927 Z" id="Shape" fill="#8EC641" fill-rule="nonzero"></path>
            <path d="M31.2848582,24.9016181 C31.2848582,27.8472034 29.923292,29.3302437 27.2193368,29.3302437 L18.3020376,29.3302437 L18.3020376,24.9016181 L25.5029964,24.9016181 C26.4906113,24.9016181 26.9796245,24.3902517 26.9796245,23.3777068 L21.6675989,23.3777068 C19.4238913,23.3777068 18.3020376,22.28336 18.3020376,20.074171 L18.3020376,13.4670396 C18.3020376,11.2476029 19.4238913,10.1532561 21.6771874,10.1532561 L27.9097083,10.1532561 C30.1534159,10.1532561 31.2848582,11.2476029 31.2848582,13.4670396 L31.2848582,18.8979624 L33.4135038,18.8979624 L33.4135038,10.1635038 L37.6228526,10.1635038 L37.6228526,18.8979624 L41.0842988,18.8979624 L41.0842988,13.4363564 C41.0842988,11.2169197 42.1965641,10.1225729 44.4402717,10.1225729 L50.6152617,10.1225729 C52.8589692,10.1225729 53.9904115,11.2169197 53.9904115,13.4363564 L53.9904115,18.8979624 L56.3204155,18.8979624 L56.3204155,10.1225729 L65.8897323,10.1225729 C68.1430284,10.1225729 69.2744706,11.2169197 69.2744706,13.4363564 L69.2744706,18.8979624 L69.5813024,18.8979624 C70.8086296,18.8979624 71.4318817,18.2331802 71.4318817,16.9138034 L71.4318817,0.00737115461 L75.7179385,0.00737115461 L75.7179385,18.8979624 C75.7179385,21.7003795 74.4139033,23.1731722 71.8154215,23.3060927 L31.2848582,23.3060927 L31.2848582,24.9016181 Z M26.9892129,17.8342988 L26.9892129,15.6251099 C26.9892129,14.9193967 26.6056732,14.5614463 25.8577707,14.5614463 L23.6715941,14.5614463 C22.9045146,14.5614463 22.5209748,14.9092089 22.5209748,15.6251099 L22.5209748,17.8342988 C22.5209748,18.5706952 22.9045146,18.9388933 23.6715941,18.9388933 L25.8577707,18.9388933 C26.6152617,18.949141 26.9892129,18.5809429 26.9892129,17.8342988 Z M40.2213344,6.11332401 C40.2213344,6.73723532 40.019976,7.25884938 39.6172593,7.70884938 C39.2049541,8.1384139 38.7063524,8.35319616 38.1214543,8.35319616 C37.5461446,8.35319616 37.0571314,8.1384139 36.6544147,7.6884139 C36.251698,7.24860168 36.0599281,6.72698761 36.0599281,6.11332401 C36.0599281,5.49966041 36.251698,4.97804634 36.6448262,4.53823412 C37.0475429,4.09842189 37.5365561,3.87345186 38.1118658,3.87345186 C38.6967639,3.87345186 39.1953656,4.09848182 39.6076708,4.52804634 C40.019976,4.96785857 40.2213344,5.48947263 40.2213344,6.11332401 Z M35.379145,6.11332401 C35.379145,6.73723532 35.1777867,7.24860168 34.7750699,7.6884139 C34.3627647,8.1384139 33.88334,8.35319616 33.2984419,8.35319616 C32.7231322,8.35319616 32.2341191,8.1384139 31.8218138,7.6884139 C31.4095086,7.24860168 31.2081502,6.72698761 31.2081502,6.11332401 C31.2081502,5.49966041 31.4095086,4.97804634 31.8218138,4.53823412 C32.2245306,4.09842189 32.7231322,3.87345186 33.2984419,3.87345186 C33.88334,3.87345186 34.3627647,4.09848182 34.7750699,4.53823412 C35.1777867,4.97804634 35.379145,5.4894127 35.379145,6.11332401 Z M49.6180583,6.02127447 C49.6180583,6.63493807 49.4071115,7.15655214 48.9948062,7.60655214 C48.582501,8.04636436 48.0934878,8.2713344 47.5085897,8.2713344 C46.9332801,8.2713344 46.4442669,8.04630443 46.0319616,7.60655214 C45.6100679,7.15655214 45.4087095,6.62469037 45.4087095,6.02127447 C45.4087095,5.39736316 45.6100679,4.8757491 46.0319616,4.44618458 C46.4346784,4.00637235 46.9332801,3.79159009 47.5085897,3.79159009 C48.0934878,3.79159009 48.5729125,4.00637235 48.9948062,4.44618458 C49.4071115,4.8757491 49.6180583,5.40761087 49.6180583,6.02127447 Z M49.7043548,17.8036157 L49.7043548,15.584179 C49.7043548,14.8784658 49.3304035,14.5205154 48.601678,14.5205154 L46.4250899,14.5205154 C45.6963644,14.5205154 45.3320016,14.8682781 45.3320016,15.584179 L45.3320016,17.8036157 C45.3320016,18.5093288 45.6963644,18.8877747 46.4250899,18.8877747 L48.601678,18.8877747 C49.3304035,18.8980224 49.7043548,18.5195765 49.7043548,17.8036157 Z M64.9404714,17.8036157 L64.9404714,15.584179 C64.9404714,14.8784658 64.5665202,14.5205154 63.8377946,14.5205154 L60.6448262,14.5205154 L60.6448262,18.8877747 L63.8377946,18.8877747 C64.5761087,18.8980224 64.9404714,18.5195765 64.9404714,17.8036157 Z M81.4422693,23.3060927 L77.242509,23.3060927 L77.242509,0.00731122653 L81.4422693,0.00731122653 L81.4422693,23.3060927 Z" id="Shape" fill="#2785C7" fill-rule="nonzero"></path>
            <path d="M50.6919696,44.7332002 C50.6919696,47.9038154 53.0411506,50.1231922 55.9752297,50.1231922 C58.9284858,50.1231922 61.2680783,47.8935677 61.2680783,44.7332002 C61.2680783,41.5830803 58.9188973,39.3533959 55.9752297,39.3533959 C53.0411506,39.3533959 50.6919696,41.5932681 50.6919696,44.7332002 Z M83.0435477,49.8777267 L85.4214942,49.8777267 L85.4214942,45.152517 C85.4214942,44.6718338 85.4790252,44.2115861 85.6228526,43.7820216 C85.9584499,42.5546944 86.9172992,41.6853176 88.2117459,41.6853176 C89.4294846,41.6853176 89.7267279,42.534199 89.7267279,43.7820216 L89.7267279,48.5072313 C89.7267279,49.4788454 90.1006792,49.8777267 91.0019976,49.8777267 L93.3032361,49.8777267 L93.3032361,47.7196564 L92.5361566,47.7196564 C92.2772673,47.7196564 92.1238514,47.5559928 92.1238514,47.2798442 L92.1238514,43.2603476 C92.1238514,40.5295445 90.8869357,39.3431482 88.7487016,39.3431482 C86.8022373,39.3431482 85.76668,40.6011586 85.3447863,41.4807231 L85.3064323,41.4807231 C85.3064323,41.4807231 85.3447863,41.2659409 85.3447863,41.0307231 L85.3447863,40.734139 C85.3447863,40.0181782 84.932481,39.5886137 84.0886936,39.5886137 L81.8737515,39.5886137 L81.8737515,41.7671195 L82.6312425,41.7671195 C82.8997203,41.7671195 83.0435477,41.9102877 83.0435477,42.2069317 L83.0435477,49.8777267 Z M72.4386736,44.7332002 C72.4386736,47.65835 74.4330803,50.1231922 77.6260487,50.1231922 C80.0231722,50.1231922 81.4998002,48.5685977 81.4998002,48.5685977 L80.5025969,46.7889732 C80.5025969,46.7889732 79.3519776,47.9344986 77.7986416,47.9344986 C76.3411906,47.9344986 75.0946864,46.98332 74.9029165,45.1627647 L81.5669197,45.1627647 C81.5669197,45.1627647 81.6244507,44.5286656 81.6244507,44.2218338 C81.6244507,41.4910308 80.1094686,39.3329604 77.3479824,39.3329604 C74.4426688,39.3533959 72.4386736,41.5728326 72.4386736,44.7332002 Z M74.970036,43.4035757 C75.2385138,42.1046344 76.1014782,41.3171195 77.3383939,41.3171195 C78.3260088,41.3171195 79.1218538,42.1660008 79.1506193,43.4035757 L74.970036,43.4035757 Z M62.5529365,53.9279065 L64.9404714,53.9279065 L64.9404714,49.6629445 C64.9404714,49.1413304 64.9021175,48.7731322 64.9021175,48.7731322 L64.9404714,48.7731322 C64.9404714,48.7731322 65.7842589,50.1334399 67.7019577,50.1334399 C70.2429085,50.1334399 72.1222533,48.0060527 72.1222533,44.7434479 C72.1222533,41.5523971 70.4442669,39.3636436 67.8266081,39.3636436 C65.573312,39.3636436 64.7582901,40.9898522 64.7582901,40.9898522 L64.7295246,40.9898522 L64.7295246,40.5909708 C64.7295246,40.0284259 64.4035158,39.5988614 63.5213744,39.5988614 L61.3831402,39.5988614 L61.3831402,41.7773672 L62.1406312,41.7773672 C62.4091091,41.7773672 62.5529365,41.9205354 62.5529365,42.2171794 L62.5529365,53.9279065 Z M64.8829405,44.7945665 C64.8829405,42.5137635 66.0527367,41.5523971 67.2992409,41.5523971 C68.718338,41.5523971 69.7059529,42.8206552 69.7059529,44.7843787 C69.7059529,46.8094686 68.5840991,47.9651818 67.2704754,47.9651818 C65.6787855,47.9651818 64.8829405,46.3900919 64.8829405,44.7945665 Z M53.1178586,44.7332002 C53.1178586,42.830843 54.4218937,41.5319017 55.9752297,41.5319017 C57.5381542,41.5319017 58.8517779,42.8410308 58.8517779,44.7332002 C58.8517779,46.6559928 57.5381542,47.9344986 55.9752297,47.9344986 C54.4218937,47.9447463 53.1178586,46.6560527 53.1178586,44.7332002 Z" id="Shape" fill="#808184" fill-rule="nonzero"></path>
            <path d="M123.104275,44.7332002 C123.104275,47.9242509 124.772673,50.1231922 127.371155,50.1231922 C129.451858,50.1231922 130.276468,48.6606472 130.276468,48.6606472 L130.314822,48.6606472 C130.314822,48.6606472 130.276468,49.0288454 130.276468,49.5504594 L130.276468,53.9177187 L132.673592,53.9177187 L132.673592,42.2069916 C132.673592,41.9104075 132.846185,41.7671794 133.085897,41.7671794 L133.852976,41.7671794 L133.852976,39.5886736 L131.733919,39.5886736 C130.851778,39.5886736 130.497004,39.9773072 130.497004,40.4989213 L130.497004,40.8568718 L130.45865,40.8568718 C130.45865,40.8568718 129.653216,39.3533959 127.46704,39.3533959 C124.9165,39.3533959 123.104275,41.4705354 123.104275,44.7332002 Z M93.2073512,48.2822014 C93.2073512,48.2822014 94.5785058,50.1334399 97.2153416,50.1334399 C99.3343987,50.1334399 100.945266,48.9265481 100.945266,46.9730723 C100.945266,43.5468038 95.7962445,43.8638234 95.7962445,42.2581103 C95.7962445,41.6444467 96.3907311,41.3171794 97.2345186,41.3171794 C97.7810627,41.3171794 98.4522573,41.5626448 98.4522573,42.043328 L98.4522573,42.5546944 L100.571314,42.5546944 L100.571314,41.4910308 C100.571314,39.8137036 98.4906113,39.3534559 97.1769876,39.3534559 C95.1729924,39.3534559 93.4278865,40.2943867 93.4278865,42.3501598 C93.4278865,45.6843787 98.5193767,45.6639433 98.5193767,47.1264882 C98.5193767,47.8117659 97.9536556,48.1390332 97.2057531,48.1390332 C95.5565322,48.1390332 94.3387934,46.6253096 94.3387934,46.6253096 L93.2073512,48.2822014 Z M101.30004,44.7332002 C101.30004,47.9038154 103.639632,50.1231922 106.5833,50.1231922 C109.526968,50.1231922 111.885737,47.8935677 111.885737,44.7332002 C111.885737,41.5830803 109.526968,39.3533959 106.5833,39.3533959 C103.639632,39.3533959 101.30004,41.5932681 101.30004,44.7332002 Z M103.71634,44.7332002 C103.71634,42.830843 105.029964,41.5319017 106.5833,41.5319017 C108.155813,41.5319017 109.469437,42.8410308 109.469437,44.7332002 C109.469437,46.6559928 108.155813,47.9344986 106.5833,47.9344986 C105.029964,47.9447463 103.71634,46.6560527 103.71634,44.7332002 Z M112.202157,44.7332002 C112.202157,47.9038154 114.54175,50.1231922 117.466241,50.1231922 C120.429085,50.1231922 122.768678,47.8935677 122.768678,44.7332002 C122.768678,41.5830803 120.429085,39.3533959 117.466241,39.3533959 C114.54175,39.3533959 112.202157,41.5932681 112.202157,44.7332002 Z M114.618458,44.7332002 C114.618458,42.830843 115.932082,41.5319017 117.466241,41.5319017 C119.038753,41.5319017 120.352377,42.8410308 120.352377,44.7332002 C120.352377,46.6559928 119.038753,47.9344986 117.466241,47.9344986 C115.922493,47.9447463 114.618458,46.6560527 114.618458,44.7332002 Z M127.90811,47.9651818 C126.50819,47.9651818 125.510987,46.6969237 125.510987,44.7434479 C125.510987,42.718358 126.632841,41.5523971 127.946464,41.5523971 C129.557331,41.5523971 130.343588,43.1172393 130.343588,44.7332002 C130.343588,46.9935078 129.164203,47.9651818 127.90811,47.9651818 Z" id="Shape" fill="#808184" fill-rule="nonzero"></path>
            <path d="M133.757091,50.0209549 L134.696764,50.0209549 L134.696764,48.9879744 L133.757091,48.9879744 L133.757091,50.0209549 Z M143.527767,50.0209549 L144.486616,50.0209549 L144.486616,48.2106472 C144.486616,48.0163004 144.505793,47.8526968 144.544147,47.6890332 C144.678386,47.1469836 144.994806,46.7276069 145.483819,46.7276069 C145.953656,46.7276069 146.011187,47.1162405 146.011187,47.5560527 L146.011187,50.0107072 L146.989213,50.0107072 L146.989213,48.2003995 C146.989213,47.995865 146.989213,47.8322014 147.046744,47.6685378 C147.142629,47.136676 147.497403,46.7173592 147.986416,46.7173592 C148.417899,46.7173592 148.513783,47.0753096 148.513783,47.545805 L148.513783,49.4685977 C148.513783,49.8470435 148.667199,50.0106472 149.021974,50.0106472 L149.942469,50.0106472 L149.942469,49.1617659 L149.645226,49.1617659 C149.549341,49.1617659 149.49181,49.0901518 149.49181,48.9674191 L149.49181,47.3514583 C149.49181,46.2672992 149.021974,45.7763684 148.21654,45.7763684 C147.602877,45.7763684 147.094686,46.1854974 146.88374,46.6354974 L146.864563,46.6354974 C146.69197,46.0729525 146.318018,45.7763684 145.742709,45.7763684 C145.129045,45.7763684 144.659209,46.2366161 144.467439,46.6457451 L144.467439,46.3389133 C144.467439,46.0423292 144.294846,45.8786656 143.959249,45.8786656 L143.048342,45.8786656 L143.048342,46.7480423 L143.364762,46.7480423 C143.460647,46.7480423 143.537355,46.8094087 143.537355,46.9321414 L143.537355,50.0208949 L143.527767,50.0208949 L143.527767,50.0209549 Z M138.752697,47.9651818 C138.752697,49.2436276 139.692369,50.1334399 140.871754,50.1334399 C142.070316,50.1334399 143.009988,49.2436276 143.009988,47.9651818 C143.009988,46.6969237 142.070316,45.786676 140.871754,45.786676 C139.692369,45.786676 138.752697,46.6969237 138.752697,47.9651818 Z M139.730723,47.9651818 C139.730723,47.20835 140.25809,46.6764882 140.871754,46.6764882 C141.504594,46.6764882 142.031962,47.20835 142.031962,47.9651818 C142.031962,48.7322613 141.504594,49.2538753 140.871754,49.2538753 C140.25809,49.2538753 139.730723,48.7322613 139.730723,47.9651818 Z M135.032361,47.9651818 C135.032361,49.1720735 135.837795,50.1334399 137.132241,50.1334399 C138.177387,50.1334399 138.762285,49.3867958 138.762285,49.3867958 L138.369157,48.6810827 C138.369157,48.6810827 137.880144,49.2436276 137.208949,49.2436276 C136.595286,49.2436276 136.010388,48.8140631 136.010388,47.9651818 C136.010388,47.2185378 136.480224,46.6764882 137.151418,46.6764882 C137.391131,46.6764882 137.717139,46.7685378 137.717139,47.0037555 L137.717139,47.2185378 L138.560927,47.2185378 L138.560927,46.7378546 C138.560927,46.0218937 137.659608,45.786676 137.161007,45.786676 C135.818618,45.786676 135.032361,46.7889732 135.032361,47.9651818 Z" id="Shape" fill="#808184" fill-rule="nonzero"></path>
            <path d="M6.18218138,23.8072713 C7.04514583,22.9788254 8.09029165,22.5696964 9.31761886,22.5696964 L16.3555733,22.5696964 L16.3555733,14.0193368 C16.3459848,14.0295845 16.3363963,14.0193368 16.3268078,14.0193368 L16.3268078,13.3340591 C16.3268078,11.2885338 15.1761886,10.2657411 12.8845386,10.2657411 C9.96963644,10.2657411 5.28086296,10.4498402 4.1494207,9.80549341 C4.1494207,14.2238714 4.72473032,14.3056732 9.94087095,14.3056732 C11.2161406,14.3056732 11.8585697,14.9193368 11.8585697,16.1364163 L11.8585697,18.3865362 L8.79984019,18.3865362 C6.34518578,18.3865362 4.26448262,19.1842988 2.56731922,20.7798242 C0.870155813,22.3651019 0.0167798642,24.3493208 0.0167798642,26.7119257 C0.0167798642,29.0642829 0.860567319,31.0996205 2.56731922,32.7769477 C4.27407111,34.4542749 6.34518578,35.2929684 8.79984019,35.2929684 L16.3651618,35.2929684 L16.3651618,31.079125 L9.31761886,31.079125 C8.08070316,31.079125 7.02596884,30.6598082 6.17259289,29.8415501 C5.31921694,29.0131043 4.88773472,28.0005593 4.88773472,26.814163 C4.88773472,25.6277667 5.31921694,24.6254095 6.18218138,23.8072113 L6.18218138,23.8072713 Z" id="Path" fill="#2785C7"></path>
        </g>
    </g>
</svg>