<?xml version="1.0" encoding="UTF-8" standalone="no"?><!DOCTYPE svg PUBLIC "-//W3C//DTD SVG 1.1//EN" "http://www.w3.org/Graphics/SVG/1.1/DTD/svg11.dtd"><svg width="100%" height="100%" viewBox="0 0 2143 498" version="1.1" xmlns="http://www.w3.org/2000/svg" xmlns:xlink="http://www.w3.org/1999/xlink" xml:space="preserve" xmlns:serif="http://www.serif.com/" style="fill-rule:evenodd;clip-rule:evenodd;stroke-linejoin:round;stroke-miterlimit:2;"><rect id="Artboard1" x="0" y="0" width="2142.7" height="497.796" style="fill:none;"/><g><path d="M86.677,304.722l-0,111.639l111.639,-0l-0,-223.289c-61.66,0 -111.639,49.989 -111.639,111.65" style="fill:#004db4;fill-rule:nonzero;"/><path d="M421.618,304.722l0,111.639l-111.67,-0c-30.83,-0 -58.73,-12.484 -78.922,-32.687c-20.212,-20.202 -32.717,-48.122 -32.717,-78.952l223.309,-0Z" style="fill:#0096f0;fill-rule:nonzero;"/><path d="M421.608,192.949l-0,-111.514l-111.639,-0l-0,0.01l-223.3,0l0,111.64l223.279,-0l-0,111.628c30.84,0 58.761,-12.474 78.952,-32.686c20.213,-20.192 32.718,-48.112 32.718,-78.942c0,-0.053 -0.01,-0.084 -0.01,-0.136" style="fill:#2a288e;fill-rule:nonzero;"/><path d="M1941.24,296.237c-21.683,0 -30.006,-8.573 -30.006,-30.517c0,-21.683 8.323,-30.246 30.006,-30.246c21.183,-0 28.244,10.085 28.244,30.246c0,20.432 -7.061,30.517 -28.244,30.517m28.244,-90.519l0,15.123c-8.573,-11.838 -22.434,-18.909 -43.116,-18.909c-41.604,0 -58.5,28.995 -58.5,63.037c-0,33.281 16.896,63.037 58.5,63.037c20.682,-0 34.543,-7.061 43.116,-19.159l0,22.434c0,16.886 -8.834,23.946 -27.993,23.946c-18.659,0 -26.721,-7.551 -28.244,-18.648l-42.104,0c1.773,27.232 22.455,48.415 68.085,48.415c53.201,-0 73.623,-19.671 73.623,-60.524l-0,-118.752l-43.367,0Zm-164.497,-4.026c-22.444,0 -37.067,10.837 -45.39,27.472l0,-23.446l-43.366,0l-0,126.063l43.366,0l0,-59.24c0,-24.718 10.086,-35.805 27.482,-35.805c15.134,-0 21.934,9.074 21.934,25.719l0,69.326l43.367,0l-0,-76.637c-0,-33.031 -14.362,-53.452 -47.393,-53.452m-157.331,130.089l43.366,0l0,-126.063l-43.366,0l-0,126.063Zm-0.772,-138.714l44.889,-0l0,-27.91l-44.889,0l-0,27.91Zm-61.775,38.371l-0,-25.72l-42.105,0l0,126.063l43.377,0l0,-50.427c0,-25.459 8.824,-35.544 29.746,-35.544l15.383,-0l0,-42.105l-10.586,0c-20.431,0 -30.757,9.825 -35.815,27.733m-126.022,70.598c-20.671,0 -28.734,-8.072 -28.734,-33.291c0,-25.209 8.063,-33.271 28.734,-33.271c20.682,-0 28.744,8.062 28.744,33.271c0,25.219 -8.062,33.291 -28.744,33.291m0,-100.344c-53.452,0 -72.111,33.271 -72.111,67.053c0,34.042 18.659,67.073 72.111,67.073c53.452,-0 72.372,-33.281 72.372,-67.073c-0,-33.782 -18.92,-67.053 -72.372,-67.053m-83.917,36.546c4.068,-12.182 10.899,-23.488 21.047,-32.52l-52.858,0l0,-30.507l-21.944,0l-17.897,31.519l-25.709,11.347l0,20.161l22.184,-0l-0,43.877c-0,32.531 12.098,49.666 50.678,49.666l22.945,0l-0,-34.282l-30.257,0l0,-59.261l31.811,-0Zm-170.702,63.798c-17.887,0 -27.733,-8.072 -27.733,-33.291c0,-25.209 10.336,-33.271 28.504,-33.271c16.886,-0 24.447,8.563 25.709,23.446l42.606,-0c-1.002,-31.519 -23.185,-57.228 -68.826,-57.228c-52.19,0 -71.36,33.031 -71.36,67.053c0,34.042 19.671,67.073 71.871,67.073c46.892,-0 67.824,-27.482 68.826,-57.489l-42.616,0c-1.502,13.872 -9.074,23.707 -26.981,23.707m-125.355,-29.495c0,22.684 -11.597,34.282 -27.993,34.282c-8.813,0 -15.624,-4.537 -15.624,-13.371c0,-8.562 4.537,-12.849 16.636,-15.874l7.311,-1.762c7.822,-2.013 13.621,-3.536 19.67,-8.073l0,4.798Zm40.092,-25.72c-0,-28.744 -19.67,-45.129 -59.501,-45.129c-39.842,0 -63.037,19.149 -64.299,45.88l42.115,0c0.24,-11.086 7.551,-17.146 22.684,-17.146c14.372,-0 18.909,4.537 18.909,12.109c0,6.55 -3.024,9.585 -14.622,11.598l-28.494,5.037c-34.793,5.799 -43.116,19.159 -43.116,39.341c-0,22.184 16.646,36.556 41.854,36.556c25.469,-0 41.093,-11.097 47.403,-29.495c-0,10.336 0.761,18.898 2.013,26.209l37.317,0c-1.502,-10.335 -2.263,-21.422 -2.263,-34.793l-0,-50.167Zm-168.679,-60.273l42.355,0l-0,-31.257l-34.533,-0c-31.779,-0 -44.639,16.645 -44.639,41.854l0,8.323l-22.945,12.609l-0,20.161l22.945,-0l0,93.543l43.377,0l0,-93.543l29.495,-0l0,-32.52l-36.055,0l-0,-19.17Zm-160.826,68.085c2.775,-18.147 11.859,-24.457 27.493,-24.457c16.886,-0 24.708,8.573 26.21,24.457l-53.703,0Zm94.806,14.623c0,-35.044 -16.395,-67.564 -67.824,-67.564c-48.415,0 -69.587,30.246 -69.587,66.813c0,34.532 18.148,67.313 69.587,67.313c45.89,-0 63.037,-20.422 67.323,-42.105l-42.104,0c-3.536,7.562 -11.348,13.11 -24.218,13.11c-16.124,0 -25.97,-6.81 -28.483,-26.971l94.545,0c0.511,-2.785 0.761,-6.56 0.761,-10.596m-214.486,-30.007l-36.056,0l0,-41.092l36.317,-0c14.862,-0 21.422,6.56 21.422,19.659c0,14.373 -6.299,21.433 -21.683,21.433m68.085,-28.744c-0,-26.981 -18.409,-46.391 -56.237,-46.391l-92.793,0l0,167.667l44.889,0l0,-60.763l30.507,0c14.372,0 24.708,7.572 24.708,23.696l0,6.821c0,13.861 1.012,23.446 3.025,30.246l44.889,0c-1.773,-9.574 -3.285,-16.645 -3.285,-30.246l-0,-9.334c-0,-24.708 -14.623,-33.542 -32.019,-37.317c20.932,-4.287 36.316,-20.422 36.316,-44.379" style="fill:#263238;fill-rule:nonzero;"/><path d="M2094.54,193.03l-3.484,0l0,-25.271l-9.428,25.271l-4.683,0l-9.397,-25.271l-0,25.271l-3.484,0l0,-25.062l-8.385,-0l-0,25.104l-3.431,0l-0,-25.104l-10.065,-0l-0,-2.806l27.962,0l9.178,24.719l9.22,-24.719l5.997,0l-0,27.868Z" style="fill:#263238;fill-rule:nonzero;"/></g></svg>